%TF.GenerationSoftware,KiCad,Pcbnew,8.0.7*%
%TF.CreationDate,2025-01-17T18:48:29+01:00*%
%TF.ProjectId,SAO_Attraktor,53414f5f-4174-4747-9261-6b746f722e6b,rev?*%
%TF.SameCoordinates,Original*%
%TF.FileFunction,Soldermask,Top*%
%TF.FilePolarity,Negative*%
%FSLAX46Y46*%
G04 Gerber Fmt 4.6, Leading zero omitted, Abs format (unit mm)*
G04 Created by KiCad (PCBNEW 8.0.7) date 2025-01-17 18:48:29*
%MOMM*%
%LPD*%
G01*
G04 APERTURE LIST*
G04 Aperture macros list*
%AMRoundRect*
0 Rectangle with rounded corners*
0 $1 Rounding radius*
0 $2 $3 $4 $5 $6 $7 $8 $9 X,Y pos of 4 corners*
0 Add a 4 corners polygon primitive as box body*
4,1,4,$2,$3,$4,$5,$6,$7,$8,$9,$2,$3,0*
0 Add four circle primitives for the rounded corners*
1,1,$1+$1,$2,$3*
1,1,$1+$1,$4,$5*
1,1,$1+$1,$6,$7*
1,1,$1+$1,$8,$9*
0 Add four rect primitives between the rounded corners*
20,1,$1+$1,$2,$3,$4,$5,0*
20,1,$1+$1,$4,$5,$6,$7,0*
20,1,$1+$1,$6,$7,$8,$9,0*
20,1,$1+$1,$8,$9,$2,$3,0*%
G04 Aperture macros list end*
%ADD10RoundRect,0.218750X0.256250X-0.218750X0.256250X0.218750X-0.256250X0.218750X-0.256250X-0.218750X0*%
G04 APERTURE END LIST*
D10*
%TO.C,D31*%
X139446000Y-107467500D03*
X139446000Y-105892500D03*
%TD*%
%TO.C,D33*%
X136398000Y-111023500D03*
X136398000Y-109448500D03*
%TD*%
%TO.C,D23*%
X138684000Y-99847500D03*
X138684000Y-98272500D03*
%TD*%
%TO.C,D5*%
X123952000Y-90957500D03*
X123952000Y-89382500D03*
%TD*%
%TO.C,D15*%
X126238000Y-108229500D03*
X126238000Y-106654500D03*
%TD*%
%TO.C,D1*%
X127508000Y-101879500D03*
X127508000Y-100304500D03*
%TD*%
%TO.C,D10*%
X119380000Y-103403500D03*
X119380000Y-101828500D03*
%TD*%
%TO.C,D11*%
X119380000Y-106705500D03*
X119380000Y-105130500D03*
%TD*%
%TO.C,D37*%
X130048000Y-115849500D03*
X130048000Y-114274500D03*
%TD*%
%TO.C,D32*%
X137922000Y-109245500D03*
X137922000Y-107670500D03*
%TD*%
%TO.C,D28*%
X144018000Y-101879500D03*
X144018000Y-100304500D03*
%TD*%
%TO.C,D40*%
X126238000Y-112293500D03*
X126238000Y-110718500D03*
%TD*%
%TO.C,D3*%
X126238000Y-95783500D03*
X126238000Y-94208500D03*
%TD*%
%TO.C,D21*%
X135382000Y-101625500D03*
X135382000Y-100050500D03*
%TD*%
%TO.C,D25*%
X142240000Y-98069500D03*
X142240000Y-96494500D03*
%TD*%
%TO.C,D27*%
X145542000Y-99593500D03*
X145542000Y-98018500D03*
%TD*%
%TO.C,D14*%
X124460000Y-110007500D03*
X124460000Y-108432500D03*
%TD*%
%TO.C,D30*%
X140970000Y-105435500D03*
X140970000Y-103860500D03*
%TD*%
%TO.C,D42*%
X128016000Y-108229500D03*
X128016000Y-106654500D03*
%TD*%
%TO.C,D26*%
X144018000Y-98069500D03*
X144018000Y-96494500D03*
%TD*%
%TO.C,D34*%
X134874000Y-112293500D03*
X134874000Y-110718500D03*
%TD*%
%TO.C,D20*%
X133858000Y-102387500D03*
X133858000Y-100812500D03*
%TD*%
%TO.C,D13*%
X122428000Y-111531500D03*
X122428000Y-109956500D03*
%TD*%
%TO.C,D6*%
X122428000Y-91973500D03*
X122428000Y-90398500D03*
%TD*%
%TO.C,D35*%
X133096000Y-113817500D03*
X133096000Y-112242500D03*
%TD*%
%TO.C,D41*%
X127762000Y-111277500D03*
X127762000Y-109702500D03*
%TD*%
%TO.C,D4*%
X125476000Y-92735500D03*
X125476000Y-91160500D03*
%TD*%
%TO.C,D29*%
X142494000Y-103657500D03*
X142494000Y-102082500D03*
%TD*%
%TO.C,D36*%
X131572000Y-115087500D03*
X131572000Y-113512500D03*
%TD*%
%TO.C,D24*%
X140462000Y-98831500D03*
X140462000Y-97256500D03*
%TD*%
%TO.C,D12*%
X120650000Y-109753500D03*
X120650000Y-108178500D03*
%TD*%
%TO.C,D9*%
X119634000Y-100101500D03*
X119634000Y-98526500D03*
%TD*%
%TO.C,D19*%
X132334000Y-103149500D03*
X132334000Y-101574500D03*
%TD*%
%TO.C,D2*%
X127000000Y-98831500D03*
X127000000Y-97256500D03*
%TD*%
%TO.C,D17*%
X129286000Y-104927500D03*
X129286000Y-103352500D03*
%TD*%
%TO.C,D22*%
X136906000Y-100609500D03*
X136906000Y-99034500D03*
%TD*%
%TO.C,D39*%
X126746000Y-115341500D03*
X126746000Y-113766500D03*
%TD*%
%TO.C,D8*%
X120396000Y-97053500D03*
X120396000Y-95478500D03*
%TD*%
%TO.C,D38*%
X128524000Y-115595500D03*
X128524000Y-114020500D03*
%TD*%
%TO.C,D7*%
X120904000Y-93751500D03*
X120904000Y-92176500D03*
%TD*%
%TO.C,D16*%
X127762000Y-105181500D03*
X127762000Y-103606500D03*
%TD*%
%TO.C,D18*%
X130810000Y-104165500D03*
X130810000Y-102590500D03*
%TD*%
M02*
