%TF.GenerationSoftware,KiCad,Pcbnew,8.0.7*%
%TF.CreationDate,2025-01-17T18:48:29+01:00*%
%TF.ProjectId,SAO_Attraktor,53414f5f-4174-4747-9261-6b746f722e6b,rev?*%
%TF.SameCoordinates,Original*%
%TF.FileFunction,Copper,L4,Bot*%
%TF.FilePolarity,Positive*%
%FSLAX46Y46*%
G04 Gerber Fmt 4.6, Leading zero omitted, Abs format (unit mm)*
G04 Created by KiCad (PCBNEW 8.0.7) date 2025-01-17 18:48:29*
%MOMM*%
%LPD*%
G01*
G04 APERTURE LIST*
G04 Aperture macros list*
%AMRoundRect*
0 Rectangle with rounded corners*
0 $1 Rounding radius*
0 $2 $3 $4 $5 $6 $7 $8 $9 X,Y pos of 4 corners*
0 Add a 4 corners polygon primitive as box body*
4,1,4,$2,$3,$4,$5,$6,$7,$8,$9,$2,$3,0*
0 Add four circle primitives for the rounded corners*
1,1,$1+$1,$2,$3*
1,1,$1+$1,$4,$5*
1,1,$1+$1,$6,$7*
1,1,$1+$1,$8,$9*
0 Add four rect primitives between the rounded corners*
20,1,$1+$1,$2,$3,$4,$5,0*
20,1,$1+$1,$4,$5,$6,$7,0*
20,1,$1+$1,$6,$7,$8,$9,0*
20,1,$1+$1,$8,$9,$2,$3,0*%
G04 Aperture macros list end*
%TA.AperFunction,SMDPad,CuDef*%
%ADD10C,1.500000*%
%TD*%
%TA.AperFunction,SMDPad,CuDef*%
%ADD11RoundRect,0.200000X0.275000X-0.200000X0.275000X0.200000X-0.275000X0.200000X-0.275000X-0.200000X0*%
%TD*%
%TA.AperFunction,SMDPad,CuDef*%
%ADD12R,1.000000X3.150000*%
%TD*%
%TA.AperFunction,SMDPad,CuDef*%
%ADD13R,1.050000X0.650000*%
%TD*%
%TA.AperFunction,SMDPad,CuDef*%
%ADD14RoundRect,0.225000X-0.250000X0.225000X-0.250000X-0.225000X0.250000X-0.225000X0.250000X0.225000X0*%
%TD*%
%TA.AperFunction,SMDPad,CuDef*%
%ADD15RoundRect,0.100000X0.637500X0.100000X-0.637500X0.100000X-0.637500X-0.100000X0.637500X-0.100000X0*%
%TD*%
%TA.AperFunction,ViaPad*%
%ADD16C,0.600000*%
%TD*%
%TA.AperFunction,Conductor*%
%ADD17C,0.200000*%
%TD*%
G04 APERTURE END LIST*
D10*
%TO.P,PC7,1,1*%
%TO.N,Net-(U1-PC7)*%
X158038800Y-108559600D03*
%TD*%
%TO.P,PC6,1,1*%
%TO.N,Net-(U1-PC6)*%
X160528000Y-109220000D03*
%TD*%
%TO.P,PC4,1,1*%
%TO.N,Net-(U1-PC4)*%
X160528000Y-111760000D03*
%TD*%
%TO.P,PC3,1,1*%
%TO.N,Net-(U1-PC3)*%
X158242000Y-113030000D03*
%TD*%
D11*
%TO.P,R3,1*%
%TO.N,IO2*%
X138430000Y-104965000D03*
%TO.P,R3,2*%
%TO.N,Net-(D13-K)*%
X138430000Y-103315000D03*
%TD*%
D12*
%TO.P,J1,1,Pin_1*%
%TO.N,VCC*%
X149860000Y-108981000D03*
%TO.P,J1,2,Pin_2*%
%TO.N,GND*%
X149860000Y-114031000D03*
%TO.P,J1,3,Pin_3*%
%TO.N,/SDA*%
X152400000Y-108981000D03*
%TO.P,J1,4,Pin_4*%
%TO.N,/SCL*%
X152400000Y-114031000D03*
%TO.P,J1,5,Pin_5*%
%TO.N,/SWD*%
X154940000Y-108981000D03*
%TO.P,J1,6,Pin_6*%
%TO.N,/PD0*%
X154940000Y-114031000D03*
%TD*%
D11*
%TO.P,R1,1*%
%TO.N,IO0*%
X133096000Y-104965000D03*
%TO.P,R1,2*%
%TO.N,Net-(D1-K)*%
X133096000Y-103315000D03*
%TD*%
D13*
%TO.P,SW1,1,1*%
%TO.N,GND*%
X167132000Y-110118000D03*
X162982000Y-110118000D03*
%TO.P,SW1,2,2*%
%TO.N,Net-(U1-PC0)*%
X167132000Y-112268000D03*
X162982000Y-112268000D03*
%TD*%
D11*
%TO.P,R5,1*%
%TO.N,IO4*%
X141986000Y-104965000D03*
%TO.P,R5,2*%
%TO.N,Net-(D25-K)*%
X141986000Y-103315000D03*
%TD*%
D14*
%TO.P,C2,1*%
%TO.N,VCC*%
X146812000Y-109969000D03*
%TO.P,C2,2*%
%TO.N,GND*%
X146812000Y-111519000D03*
%TD*%
D15*
%TO.P,U1,1,PD4*%
%TO.N,IO2*%
X140345000Y-107696000D03*
%TO.P,U1,2,PD5*%
%TO.N,IO3*%
X140345000Y-108346000D03*
%TO.P,U1,3,PD6*%
%TO.N,IO4*%
X140345000Y-108996000D03*
%TO.P,U1,4,PD7*%
%TO.N,IO5*%
X140345000Y-109646000D03*
%TO.P,U1,5,PA1*%
%TO.N,IO6*%
X140345000Y-110296000D03*
%TO.P,U1,6,PA2*%
%TO.N,unconnected-(U1-PA2-Pad6)*%
X140345000Y-110946000D03*
%TO.P,U1,7,VSS*%
%TO.N,GND*%
X140345000Y-111596000D03*
%TO.P,U1,8,PD0*%
%TO.N,/PD0*%
X140345000Y-112246000D03*
%TO.P,U1,9,VDD*%
%TO.N,VCC*%
X140345000Y-112896000D03*
%TO.P,U1,10,PC0*%
%TO.N,Net-(U1-PC0)*%
X140345000Y-113546000D03*
%TO.P,U1,11,PC1*%
%TO.N,/SDA*%
X134620000Y-113546000D03*
%TO.P,U1,12,PC2*%
%TO.N,/SCL*%
X134620000Y-112896000D03*
%TO.P,U1,13,PC3*%
%TO.N,Net-(U1-PC3)*%
X134620000Y-112246000D03*
%TO.P,U1,14,PC4*%
%TO.N,Net-(U1-PC4)*%
X134620000Y-111596000D03*
%TO.P,U1,15,PC5*%
%TO.N,Net-(U1-PC5)*%
X134620000Y-110946000D03*
%TO.P,U1,16,PC6*%
%TO.N,Net-(U1-PC6)*%
X134620000Y-110296000D03*
%TO.P,U1,17,PC7*%
%TO.N,Net-(U1-PC7)*%
X134620000Y-109646000D03*
%TO.P,U1,18,PD1*%
%TO.N,/SWD*%
X134620000Y-108996000D03*
%TO.P,U1,19,PD2*%
%TO.N,IO0*%
X134620000Y-108346000D03*
%TO.P,U1,20,PD3*%
%TO.N,IO1*%
X134620000Y-107696000D03*
%TD*%
D11*
%TO.P,R4,1*%
%TO.N,IO3*%
X140208000Y-104965000D03*
%TO.P,R4,2*%
%TO.N,Net-(D19-K)*%
X140208000Y-103315000D03*
%TD*%
%TO.P,R2,1*%
%TO.N,IO1*%
X134874000Y-104965000D03*
%TO.P,R2,2*%
%TO.N,Net-(D10-K)*%
X134874000Y-103315000D03*
%TD*%
%TO.P,R7,1*%
%TO.N,IO6*%
X136652000Y-104965000D03*
%TO.P,R7,2*%
%TO.N,Net-(D37-K)*%
X136652000Y-103315000D03*
%TD*%
%TO.P,R6,1*%
%TO.N,IO5*%
X143764000Y-104965000D03*
%TO.P,R6,2*%
%TO.N,Net-(D31-K)*%
X143764000Y-103315000D03*
%TD*%
D14*
%TO.P,C1,1*%
%TO.N,VCC*%
X144780000Y-109969000D03*
%TO.P,C1,2*%
%TO.N,GND*%
X144780000Y-111519000D03*
%TD*%
D10*
%TO.P,PC5,1,1*%
%TO.N,Net-(U1-PC5)*%
X131419600Y-108610400D03*
%TD*%
D16*
%TO.N,/PD0*%
X153365200Y-111709200D03*
X143548618Y-110351853D03*
%TO.N,Net-(U1-PC7)*%
X138176000Y-111556800D03*
%TO.N,Net-(U1-PC6)*%
X137718800Y-112268000D03*
%TO.N,Net-(U1-PC3)*%
X134219115Y-114451742D03*
%TO.N,Net-(U1-PC4)*%
X131974048Y-116158798D03*
%TO.N,Net-(U1-PC6)*%
X160172400Y-107696000D03*
%TO.N,Net-(U1-PC4)*%
X161086800Y-113131600D03*
%TO.N,Net-(U1-PC3)*%
X156768800Y-114309600D03*
%TO.N,Net-(U1-PC7)*%
X156006892Y-106947170D03*
%TO.N,IO1*%
X126238000Y-100838000D03*
X145288000Y-96520000D03*
X134366000Y-105918000D03*
X137039422Y-108186922D03*
X124206000Y-106934000D03*
X134112000Y-99822000D03*
X128778000Y-113030000D03*
%TO.N,Net-(D1-K)*%
X126492000Y-102108000D03*
X132355596Y-104086999D03*
%TO.N,IO2*%
X125984000Y-97790000D03*
X137414000Y-105918000D03*
X146558000Y-98044000D03*
X136144000Y-108458000D03*
X135890000Y-99060000D03*
X127508000Y-112776000D03*
X122428000Y-95504000D03*
%TO.N,IO3*%
X133096000Y-110490000D03*
X124968000Y-111506000D03*
X143510000Y-99314000D03*
X125730000Y-105410000D03*
X121666000Y-98552000D03*
X125222000Y-94742000D03*
X139446000Y-104140000D03*
%TO.N,IO4*%
X137922000Y-99060000D03*
X142494000Y-105664000D03*
X132080000Y-111506000D03*
X126492000Y-103378000D03*
X124714000Y-91948000D03*
X129032000Y-109474000D03*
X120650000Y-101828500D03*
%TO.N,IO5*%
X142240000Y-100838000D03*
X120650000Y-104648000D03*
X143256000Y-106172000D03*
X138684000Y-110236000D03*
X129286000Y-106934000D03*
X122936000Y-89154000D03*
X139700000Y-98044000D03*
X129540000Y-102362000D03*
%TO.N,IO6*%
X130810000Y-101346000D03*
X131318000Y-112268000D03*
X121158000Y-107188000D03*
X141732000Y-99060000D03*
X135890000Y-105918000D03*
X122977001Y-91093735D03*
X141986000Y-110236000D03*
X121666000Y-108966000D03*
X121158000Y-111760000D03*
X141224000Y-102362000D03*
%TO.N,Net-(D10-K)*%
X134112000Y-104140000D03*
X122174000Y-106172000D03*
%TO.N,IO0*%
X143137461Y-95916384D03*
X122682000Y-93472000D03*
X142748000Y-109474000D03*
X122428000Y-108712000D03*
X132588000Y-100584000D03*
X140462000Y-106680000D03*
X132080000Y-105410000D03*
X130048000Y-113284000D03*
%TO.N,/SDA*%
X147828000Y-112938000D03*
X151485600Y-110032800D03*
%TO.N,/SWD*%
X137591800Y-110921800D03*
X153789500Y-107830500D03*
%TO.N,/SCL*%
X151384000Y-114300000D03*
X136412328Y-113001343D03*
%TO.N,Net-(U1-PC0)*%
X145796000Y-113538000D03*
X161036000Y-114249200D03*
%TO.N,Net-(D13-K)*%
X137668000Y-104140000D03*
X130810000Y-105156000D03*
%TO.N,Net-(D19-K)*%
X137922000Y-100838000D03*
X139446000Y-102362000D03*
%TO.N,Net-(D25-K)*%
X141478000Y-101600000D03*
%TO.N,Net-(D31-K)*%
X144780000Y-102870000D03*
X143764000Y-108458000D03*
%TO.N,Net-(D37-K)*%
X135890000Y-104140000D03*
X129286000Y-108204000D03*
%TD*%
D17*
%TO.N,/PD0*%
X154940000Y-113284000D02*
X154940000Y-114031000D01*
X153365200Y-111709200D02*
X154940000Y-113284000D01*
%TO.N,Net-(U1-PC3)*%
X156962400Y-114309600D02*
X158242000Y-113030000D01*
X156768800Y-114309600D02*
X156962400Y-114309600D01*
%TO.N,/PD0*%
X141754000Y-112246000D02*
X140345000Y-112246000D01*
X143548618Y-110351853D02*
X143548618Y-110451382D01*
X143548618Y-110451382D02*
X141754000Y-112246000D01*
%TO.N,Net-(U1-PC6)*%
X137333059Y-112268000D02*
X135361059Y-110296000D01*
X137718800Y-112268000D02*
X137333059Y-112268000D01*
X135361059Y-110296000D02*
X134620000Y-110296000D01*
%TO.N,Net-(U1-PC7)*%
X137378271Y-111556800D02*
X135467471Y-109646000D01*
X138176000Y-111556800D02*
X137378271Y-111556800D01*
X135467471Y-109646000D02*
X134620000Y-109646000D01*
%TO.N,/SWD*%
X135666000Y-108996000D02*
X134620000Y-108996000D01*
X137591800Y-110921800D02*
X135666000Y-108996000D01*
%TO.N,Net-(U1-PC6)*%
X160172400Y-108864400D02*
X160528000Y-109220000D01*
X160172400Y-107696000D02*
X160172400Y-108864400D01*
%TO.N,Net-(U1-PC4)*%
X161086800Y-113131600D02*
X161086800Y-112318800D01*
X161086800Y-112318800D02*
X160528000Y-111760000D01*
%TO.N,Net-(U1-PC0)*%
X161036000Y-114214000D02*
X162982000Y-112268000D01*
X161036000Y-114249200D02*
X161036000Y-114214000D01*
%TO.N,Net-(U1-PC7)*%
X157239170Y-106947170D02*
X156006892Y-106947170D01*
X158242000Y-107950000D02*
X157239170Y-106947170D01*
%TO.N,Net-(U1-PC3)*%
X133965773Y-114198400D02*
X134219115Y-114451742D01*
X133248400Y-114198400D02*
X133965773Y-114198400D01*
X133248400Y-112961644D02*
X133248400Y-114198400D01*
X133964044Y-112246000D02*
X133248400Y-112961644D01*
X134620000Y-112246000D02*
X133964044Y-112246000D01*
%TO.N,Net-(U1-PC4)*%
X132181600Y-115951246D02*
X131974048Y-116158798D01*
X132181600Y-114858800D02*
X132181600Y-115951246D01*
X132842000Y-114198400D02*
X132181600Y-114858800D01*
X133260000Y-111596000D02*
X132842000Y-112014000D01*
X132842000Y-112014000D02*
X132842000Y-114198400D01*
X134620000Y-111596000D02*
X133260000Y-111596000D01*
%TO.N,VCC*%
X147800000Y-108981000D02*
X146812000Y-109969000D01*
X146812000Y-109969000D02*
X144780000Y-109969000D01*
X141853000Y-112896000D02*
X140345000Y-112896000D01*
X144780000Y-109969000D02*
X141853000Y-112896000D01*
X149860000Y-108981000D02*
X147800000Y-108981000D01*
%TO.N,IO1*%
X134716668Y-105567331D02*
X134366000Y-105918000D01*
X134874000Y-105187500D02*
X134874000Y-104965000D01*
X136793961Y-107941461D02*
X137039422Y-108186922D01*
X136201365Y-107696000D02*
X134620000Y-107696000D01*
X134874000Y-105187500D02*
G75*
G02*
X134716676Y-105567339I-537200J0D01*
G01*
X136793961Y-107941461D02*
G75*
G03*
X136201365Y-107696037I-592561J-592639D01*
G01*
%TO.N,Net-(D1-K)*%
X133096000Y-103330797D02*
X133096000Y-103315000D01*
X132355596Y-104086999D02*
X133084829Y-103357765D01*
X133096000Y-103330797D02*
G75*
G02*
X133084823Y-103357759I-38100J-3D01*
G01*
%TO.N,IO2*%
X138430000Y-105781000D02*
X138430000Y-104965000D01*
X137414000Y-105918000D02*
X138430000Y-104965000D01*
X140345000Y-107696000D02*
X138430000Y-105781000D01*
%TO.N,IO3*%
X140185726Y-104879726D02*
X139446000Y-104140000D01*
X140208000Y-104933500D02*
X140208000Y-104965000D01*
X141478000Y-106235000D02*
X140208000Y-104965000D01*
X140345000Y-108346000D02*
X141082499Y-108346000D01*
X141082499Y-108346000D02*
X141478000Y-107950499D01*
X141478000Y-107950499D02*
X141478000Y-106235000D01*
X140185726Y-104879726D02*
G75*
G02*
X140208014Y-104933500I-53726J-53774D01*
G01*
%TO.N,IO4*%
X126492000Y-107136803D02*
X126492000Y-103378000D01*
X129032000Y-109474000D02*
X132080000Y-111506000D01*
X142494000Y-105664000D02*
X142053528Y-105223528D01*
X141986000Y-108092499D02*
X141986000Y-104965000D01*
X141082499Y-108996000D02*
X141986000Y-108092499D01*
X141986000Y-105060500D02*
X141986000Y-104965000D01*
X127941605Y-109474000D02*
X129032000Y-109474000D01*
X127395801Y-109079751D02*
X127000000Y-108585000D01*
X140345000Y-108996000D02*
X141082499Y-108996000D01*
X141986000Y-105060500D02*
G75*
G03*
X142053540Y-105223516I230500J0D01*
G01*
X126492000Y-107136803D02*
G75*
G03*
X127000009Y-108584992I2318200J3D01*
G01*
X127635000Y-109347000D02*
G75*
G03*
X127941605Y-109473998I306600J306600D01*
G01*
X127395801Y-109079751D02*
G75*
G03*
X127635001Y-109346999I2532299J2025851D01*
G01*
%TO.N,IO5*%
X140345000Y-109646000D02*
X141082499Y-109646000D01*
X141082499Y-109646000D02*
X143764000Y-106964499D01*
X143764000Y-105664000D02*
X143256000Y-106172000D01*
X138938000Y-109982000D02*
X138684000Y-110236000D01*
X143764000Y-106964499D02*
X143764000Y-104902000D01*
X139550305Y-109702517D02*
X140345000Y-109646000D01*
X143764000Y-104965000D02*
X143764000Y-104902000D01*
X143764000Y-104902000D02*
X143764000Y-105664000D01*
X139550305Y-109702517D02*
G75*
G03*
X138938003Y-109982003I68295J-960083D01*
G01*
%TO.N,IO6*%
X141986000Y-110236000D02*
X140345000Y-110296000D01*
X136652000Y-105060500D02*
X136652000Y-104965000D01*
X140345000Y-110296000D02*
X139607501Y-110296000D01*
X136584471Y-105223528D02*
X135890000Y-105918000D01*
X136652000Y-105060500D02*
G75*
G02*
X136584480Y-105223537I-230600J0D01*
G01*
%TO.N,Net-(D10-K)*%
X134112000Y-104140000D02*
X134851726Y-103400273D01*
X134874000Y-103346500D02*
X134874000Y-103315000D01*
X134874000Y-103346500D02*
G75*
G02*
X134851737Y-103400284I-76100J0D01*
G01*
%TO.N,IO0*%
X131685592Y-103090854D02*
X131705517Y-102951379D01*
X133096000Y-107559499D02*
X133096000Y-104965000D01*
X132080000Y-105410000D02*
X131826000Y-104648000D01*
X132323121Y-105166878D02*
X132080000Y-105410000D01*
X133882501Y-108346000D02*
X133096000Y-107559499D01*
X132588000Y-100584000D02*
X132207000Y-101346000D01*
X132810500Y-104965000D02*
X133096000Y-104965000D01*
X134620000Y-108346000D02*
X133882501Y-108346000D01*
X134620000Y-108346000D02*
X135357499Y-108346000D01*
X132810500Y-104965000D02*
G75*
G03*
X132323113Y-105166870I0J-689300D01*
G01*
X132207000Y-101346000D02*
G75*
G03*
X131705520Y-102951379I4695600J-2347800D01*
G01*
X131685592Y-103090854D02*
G75*
G03*
X131826016Y-104647995I3368308J-481146D01*
G01*
%TO.N,/SDA*%
X135890000Y-113538000D02*
X135882000Y-113546000D01*
X137414000Y-114808000D02*
X136144000Y-113538000D01*
X146558000Y-114808000D02*
X137414000Y-114808000D01*
X135882000Y-113546000D02*
X134620000Y-113546000D01*
X152400000Y-109118400D02*
X152400000Y-108981000D01*
X151485600Y-110032800D02*
X152400000Y-109118400D01*
X147828000Y-112938000D02*
X147828000Y-113538000D01*
X147828000Y-113538000D02*
X146558000Y-114808000D01*
X136144000Y-113538000D02*
X135890000Y-113538000D01*
%TO.N,/SWD*%
X153789500Y-107830500D02*
X154940000Y-108981000D01*
%TO.N,/SCL*%
X152400000Y-114031000D02*
X151653000Y-114031000D01*
X136412328Y-113001343D02*
X134725343Y-113001343D01*
X151653000Y-114031000D02*
X151384000Y-114300000D01*
X134725343Y-113001343D02*
X134620000Y-112896000D01*
%TO.N,Net-(U1-PC0)*%
X145796000Y-113538000D02*
X145288000Y-113538000D01*
X145288000Y-113538000D02*
X145280000Y-113546000D01*
X145280000Y-113546000D02*
X140345000Y-113546000D01*
X167132000Y-112268000D02*
X162982000Y-112268000D01*
%TO.N,Net-(D13-K)*%
X138430000Y-103315000D02*
X138430000Y-103378000D01*
X138430000Y-103378000D02*
X137668000Y-104140000D01*
%TO.N,Net-(D19-K)*%
X140208000Y-103124000D02*
X139446000Y-102362000D01*
X140208000Y-103315000D02*
X140208000Y-103124000D01*
%TO.N,Net-(D25-K)*%
X141986000Y-103315000D02*
X141986000Y-102108000D01*
X141986000Y-102108000D02*
X141478000Y-101600000D01*
%TO.N,Net-(D31-K)*%
X144335000Y-103315000D02*
X144780000Y-102870000D01*
X143764000Y-103315000D02*
X144335000Y-103315000D01*
%TO.N,Net-(D37-K)*%
X136629726Y-103400273D02*
X135890000Y-104140000D01*
X136652000Y-103346500D02*
X136652000Y-103315000D01*
X136652000Y-103346500D02*
G75*
G02*
X136629737Y-103400284I-76100J0D01*
G01*
%TO.N,Net-(U1-PC5)*%
X131419600Y-109880400D02*
X131419600Y-108610400D01*
X131368800Y-110032800D02*
X131368800Y-109931200D01*
X131368800Y-109931200D02*
X131419600Y-109880400D01*
X131455329Y-110032800D02*
X131368800Y-110032800D01*
X134476000Y-111090000D02*
X132512529Y-111090000D01*
X134620000Y-110946000D02*
X134476000Y-111090000D01*
X132512529Y-111090000D02*
X131455329Y-110032800D01*
%TD*%
%TA.AperFunction,Conductor*%
%TO.N,GND*%
G36*
X123464070Y-86462657D02*
G01*
X123547783Y-86466059D01*
X123555637Y-86466694D01*
X123644894Y-86477517D01*
X123650879Y-86478430D01*
X123686435Y-86484991D01*
X123690467Y-86485823D01*
X123732195Y-86495345D01*
X123736222Y-86496353D01*
X123778382Y-86507863D01*
X123782306Y-86509024D01*
X123824952Y-86522628D01*
X123828858Y-86523965D01*
X123872199Y-86539832D01*
X123876020Y-86541323D01*
X123885933Y-86545430D01*
X123920089Y-86559581D01*
X123923797Y-86561208D01*
X123968782Y-86582066D01*
X123972394Y-86583832D01*
X124018362Y-86607469D01*
X124021822Y-86609336D01*
X124068895Y-86635975D01*
X124072145Y-86637898D01*
X124120380Y-86667742D01*
X124123479Y-86669742D01*
X124172814Y-86702931D01*
X124175787Y-86705012D01*
X124176092Y-86705234D01*
X124226280Y-86741766D01*
X124229103Y-86743899D01*
X124261878Y-86769603D01*
X124280793Y-86784437D01*
X124283452Y-86786598D01*
X124303685Y-86803630D01*
X124324283Y-86820969D01*
X124330530Y-86826702D01*
X124358957Y-86855129D01*
X124358959Y-86855130D01*
X124358960Y-86855131D01*
X124364108Y-86859082D01*
X124364057Y-86859147D01*
X124375261Y-86867421D01*
X124450431Y-86937238D01*
X124454450Y-86941190D01*
X124554355Y-87045184D01*
X124570138Y-87061612D01*
X124573397Y-87065174D01*
X124693377Y-87202919D01*
X124696048Y-87206120D01*
X124819212Y-87360163D01*
X124821425Y-87363037D01*
X124946912Y-87532350D01*
X124948765Y-87534936D01*
X125075911Y-87718535D01*
X125077477Y-87720867D01*
X125205693Y-87917719D01*
X125207031Y-87919830D01*
X125335793Y-88128876D01*
X125336945Y-88130795D01*
X125465962Y-88351270D01*
X125466944Y-88352987D01*
X125594546Y-88581609D01*
X125595786Y-88583831D01*
X125596652Y-88585419D01*
X125696233Y-88771857D01*
X125724981Y-88825681D01*
X125725756Y-88827162D01*
X125853293Y-89075959D01*
X125853982Y-89077328D01*
X125891797Y-89153997D01*
X125962061Y-89296456D01*
X125980522Y-89333884D01*
X125981138Y-89335157D01*
X126105550Y-89596758D01*
X126106361Y-89598506D01*
X126333252Y-90100552D01*
X126335580Y-90105702D01*
X126340991Y-90120849D01*
X126345397Y-90137294D01*
X126345398Y-90137297D01*
X126359954Y-90162509D01*
X126365361Y-90173359D01*
X126591576Y-90706855D01*
X126592396Y-90708849D01*
X126821826Y-91284488D01*
X126822560Y-91286386D01*
X127043367Y-91875309D01*
X127044027Y-91877123D01*
X127255995Y-92477853D01*
X127256591Y-92479594D01*
X127459522Y-93090675D01*
X127460062Y-93092352D01*
X127653776Y-93712351D01*
X127654268Y-93713974D01*
X127838587Y-94341465D01*
X127839036Y-94343041D01*
X128013821Y-94976691D01*
X128014222Y-94978192D01*
X128179360Y-95615745D01*
X128179687Y-95617042D01*
X128334448Y-96249615D01*
X128334813Y-96251163D01*
X128612591Y-97471143D01*
X128612931Y-97472693D01*
X128842557Y-98561497D01*
X128842756Y-98562462D01*
X129006344Y-99378272D01*
X129006350Y-99378307D01*
X129008561Y-99389330D01*
X129010494Y-99408796D01*
X129010494Y-99415170D01*
X129022590Y-99460316D01*
X129024031Y-99466474D01*
X129034511Y-99518741D01*
X129034515Y-99518754D01*
X129042319Y-99557667D01*
X129043881Y-99568573D01*
X129044331Y-99573758D01*
X129057286Y-99632400D01*
X129057684Y-99634290D01*
X129069485Y-99693138D01*
X129071165Y-99698062D01*
X129074137Y-99708670D01*
X129080515Y-99737537D01*
X129082846Y-99758697D01*
X129082848Y-99759731D01*
X129096407Y-99809960D01*
X129097496Y-99814402D01*
X129108721Y-99865206D01*
X129108724Y-99865214D01*
X129109197Y-99866124D01*
X129116930Y-99885976D01*
X129122907Y-99908120D01*
X129126153Y-99928053D01*
X129126412Y-99932418D01*
X129126412Y-99932419D01*
X129141786Y-99978671D01*
X129143418Y-99984095D01*
X129151525Y-100014124D01*
X129152079Y-100017035D01*
X129152146Y-100017019D01*
X129154184Y-100025253D01*
X129156089Y-100031026D01*
X129156116Y-100031128D01*
X129157993Y-100035634D01*
X129160877Y-100041613D01*
X129171990Y-100069966D01*
X129173762Y-100074862D01*
X129182936Y-100102458D01*
X129185927Y-100114213D01*
X129186270Y-100115290D01*
X129186997Y-100116837D01*
X129187661Y-100118495D01*
X129190677Y-100124693D01*
X129191261Y-100125913D01*
X129205912Y-100157096D01*
X129208481Y-100163067D01*
X129223347Y-100200994D01*
X129224977Y-100205983D01*
X129226018Y-100208526D01*
X129226019Y-100208528D01*
X129246792Y-100244853D01*
X129250444Y-100251880D01*
X129264427Y-100281641D01*
X129270673Y-100294936D01*
X129271652Y-100296903D01*
X129272080Y-100296679D01*
X129275097Y-100302416D01*
X129275099Y-100302419D01*
X129275100Y-100302421D01*
X129280897Y-100310627D01*
X129296577Y-100332824D01*
X129301657Y-100340798D01*
X129320137Y-100373113D01*
X129324066Y-100378277D01*
X129323486Y-100378718D01*
X129331669Y-100390122D01*
X129331935Y-100389943D01*
X129335566Y-100395314D01*
X129335567Y-100395315D01*
X129335568Y-100395317D01*
X129357320Y-100419852D01*
X129364099Y-100428406D01*
X129380714Y-100451926D01*
X129383024Y-100455195D01*
X129383025Y-100455197D01*
X129386109Y-100457763D01*
X129405262Y-100479103D01*
X129408725Y-100484319D01*
X129408726Y-100484320D01*
X129408727Y-100484321D01*
X129430574Y-100503597D01*
X129439144Y-100512147D01*
X129440922Y-100514152D01*
X129458470Y-100533946D01*
X129458472Y-100533948D01*
X129466759Y-100539420D01*
X129486903Y-100557061D01*
X129494364Y-100565639D01*
X129516684Y-100580684D01*
X129526833Y-100588528D01*
X129547026Y-100606345D01*
X129558879Y-100612235D01*
X129580402Y-100626726D01*
X129590480Y-100635637D01*
X129614282Y-100647495D01*
X129625470Y-100654014D01*
X129647529Y-100668883D01*
X129647532Y-100668884D01*
X129660122Y-100673215D01*
X129683703Y-100685043D01*
X129693782Y-100691917D01*
X129720425Y-100701244D01*
X129731862Y-100706072D01*
X129757137Y-100718664D01*
X129757139Y-100718664D01*
X129757142Y-100718666D01*
X129767298Y-100720728D01*
X129793613Y-100730095D01*
X129800910Y-100733928D01*
X129817243Y-100737610D01*
X129831533Y-100740833D01*
X129842467Y-100743968D01*
X129872092Y-100754339D01*
X129872095Y-100754340D01*
X129877467Y-100754743D01*
X129906944Y-100761594D01*
X129909499Y-100762620D01*
X129944620Y-100766855D01*
X129954506Y-100768561D01*
X129989028Y-100776345D01*
X129989031Y-100776344D01*
X129989036Y-100776346D01*
X129995494Y-100776935D01*
X129995467Y-100777220D01*
X130011909Y-100779320D01*
X130012032Y-100778579D01*
X130018427Y-100779632D01*
X130018431Y-100779632D01*
X130018434Y-100779633D01*
X130058009Y-100780910D01*
X130066621Y-100781567D01*
X130105937Y-100786309D01*
X130105944Y-100786307D01*
X130112422Y-100786238D01*
X130112426Y-100786668D01*
X130124135Y-100786357D01*
X130127716Y-100786674D01*
X130127722Y-100786676D01*
X130171269Y-100784840D01*
X130178632Y-100784805D01*
X130222190Y-100786212D01*
X130222192Y-100786211D01*
X130222199Y-100786212D01*
X130222205Y-100786210D01*
X130227713Y-100785665D01*
X130236298Y-100785355D01*
X130238100Y-100785165D01*
X130238102Y-100785166D01*
X130285044Y-100780239D01*
X130291155Y-100779790D01*
X130338294Y-100777805D01*
X130338297Y-100777803D01*
X130340209Y-100777470D01*
X130345368Y-100776955D01*
X130350595Y-100776128D01*
X130350596Y-100776129D01*
X130400241Y-100768283D01*
X130405301Y-100767618D01*
X130443873Y-100763570D01*
X130503717Y-100776303D01*
X130544650Y-100821780D01*
X130551034Y-100882632D01*
X130520431Y-100935614D01*
X130507725Y-100945313D01*
X130478874Y-100963854D01*
X130384622Y-101072628D01*
X130324834Y-101203543D01*
X130304353Y-101345997D01*
X130304353Y-101346002D01*
X130324834Y-101488456D01*
X130376686Y-101601994D01*
X130384623Y-101619373D01*
X130476891Y-101725857D01*
X130478873Y-101728144D01*
X130588026Y-101798292D01*
X130599947Y-101805953D01*
X130676726Y-101828497D01*
X130738035Y-101846499D01*
X130738036Y-101846499D01*
X130738039Y-101846500D01*
X130738041Y-101846500D01*
X130881959Y-101846500D01*
X130881961Y-101846500D01*
X131020053Y-101805953D01*
X131141128Y-101728143D01*
X131235377Y-101619373D01*
X131295165Y-101488457D01*
X131311994Y-101371406D01*
X131315647Y-101346002D01*
X131315647Y-101345997D01*
X131295165Y-101203543D01*
X131279411Y-101169047D01*
X131235377Y-101072627D01*
X131141128Y-100963857D01*
X131141127Y-100963856D01*
X131141126Y-100963855D01*
X131020057Y-100886049D01*
X131020054Y-100886048D01*
X131020053Y-100886047D01*
X130922397Y-100857373D01*
X130895656Y-100849521D01*
X130845150Y-100814985D01*
X130824588Y-100757358D01*
X130841826Y-100698651D01*
X130890279Y-100661288D01*
X130894999Y-100659737D01*
X130899907Y-100658263D01*
X130902082Y-100657639D01*
X130958449Y-100642246D01*
X130958458Y-100642240D01*
X130961664Y-100640895D01*
X130982099Y-100634802D01*
X130982997Y-100634636D01*
X130983004Y-100634636D01*
X131039713Y-100616285D01*
X131041583Y-100615702D01*
X131098720Y-100598538D01*
X131098727Y-100598533D01*
X131104388Y-100595986D01*
X131114637Y-100592042D01*
X131115421Y-100591788D01*
X131126133Y-100588988D01*
X131130046Y-100588194D01*
X131130059Y-100588194D01*
X131187502Y-100568479D01*
X131188928Y-100568004D01*
X131246693Y-100549314D01*
X131246701Y-100549308D01*
X131250291Y-100547602D01*
X131260665Y-100543371D01*
X131272361Y-100539356D01*
X131282808Y-100536401D01*
X131288937Y-100535024D01*
X131288943Y-100535024D01*
X131344866Y-100514496D01*
X131346753Y-100513826D01*
X131403130Y-100494480D01*
X131403144Y-100494470D01*
X131408745Y-100491685D01*
X131418718Y-100487389D01*
X131611726Y-100416547D01*
X131622140Y-100413363D01*
X131627969Y-100411926D01*
X131627979Y-100411925D01*
X131683549Y-100390207D01*
X131685373Y-100389516D01*
X131741485Y-100368921D01*
X131741491Y-100368916D01*
X131746806Y-100366131D01*
X131756729Y-100361608D01*
X131994859Y-100268545D01*
X132055940Y-100264975D01*
X132107454Y-100297989D01*
X132129725Y-100354977D01*
X132120948Y-100401881D01*
X132102833Y-100441545D01*
X132082353Y-100583997D01*
X132082353Y-100584002D01*
X132102833Y-100726452D01*
X132102835Y-100726457D01*
X132120388Y-100764894D01*
X132127362Y-100825681D01*
X132118882Y-100850293D01*
X131959510Y-101169040D01*
X131959505Y-101169046D01*
X131959506Y-101169047D01*
X131954746Y-101178566D01*
X131954734Y-101178577D01*
X131926872Y-101234315D01*
X131926836Y-101234389D01*
X131920532Y-101246998D01*
X131920530Y-101247004D01*
X131920529Y-101247007D01*
X131858349Y-101371405D01*
X131719448Y-101700579D01*
X131719434Y-101700616D01*
X131601999Y-102038016D01*
X131506487Y-102382331D01*
X131433324Y-102732031D01*
X131433320Y-102732053D01*
X131414479Y-102863826D01*
X131414459Y-102863923D01*
X131394841Y-103001249D01*
X131394841Y-103001250D01*
X131393605Y-103009901D01*
X131393574Y-103009963D01*
X131388096Y-103048358D01*
X131370146Y-103174175D01*
X131363828Y-103218456D01*
X131363827Y-103218459D01*
X131346944Y-103561635D01*
X131346944Y-103561662D01*
X131361912Y-103904947D01*
X131408603Y-104245379D01*
X131486616Y-104580024D01*
X131526460Y-104699623D01*
X131526492Y-104699743D01*
X131652412Y-105077502D01*
X131652876Y-105138685D01*
X131648545Y-105149935D01*
X131594834Y-105267543D01*
X131574353Y-105409997D01*
X131574353Y-105410002D01*
X131594834Y-105552456D01*
X131646386Y-105665337D01*
X131654623Y-105683373D01*
X131746891Y-105789857D01*
X131748873Y-105792144D01*
X131869942Y-105869950D01*
X131869947Y-105869953D01*
X131960424Y-105896519D01*
X132008035Y-105910499D01*
X132008036Y-105910499D01*
X132008039Y-105910500D01*
X132008041Y-105910500D01*
X132151959Y-105910500D01*
X132151961Y-105910500D01*
X132290053Y-105869953D01*
X132411128Y-105792143D01*
X132505377Y-105683373D01*
X132547550Y-105591027D01*
X132588920Y-105545952D01*
X132648887Y-105533801D01*
X132682547Y-105543947D01*
X132688538Y-105546999D01*
X132695696Y-105550646D01*
X132711986Y-105553226D01*
X132766503Y-105581003D01*
X132794281Y-105635519D01*
X132795500Y-105651007D01*
X132795500Y-107599063D01*
X132815824Y-107674911D01*
X132815979Y-107675488D01*
X132827820Y-107695997D01*
X132850003Y-107734420D01*
X132853512Y-107740498D01*
X132855540Y-107744010D01*
X133642041Y-108530511D01*
X133642040Y-108530511D01*
X133671125Y-108559595D01*
X133697990Y-108586460D01*
X133697996Y-108586463D01*
X133703139Y-108590410D01*
X133702352Y-108591434D01*
X133727643Y-108614895D01*
X133727866Y-108615222D01*
X133745031Y-108673950D01*
X133731989Y-108713955D01*
X133734000Y-108714843D01*
X133730294Y-108723234D01*
X133730294Y-108723235D01*
X133693118Y-108807430D01*
X133684914Y-108826011D01*
X133682000Y-108851130D01*
X133682000Y-109140859D01*
X133682001Y-109140864D01*
X133684914Y-109165990D01*
X133705450Y-109212499D01*
X133729724Y-109267475D01*
X133734000Y-109277157D01*
X133731626Y-109278205D01*
X133745037Y-109323757D01*
X133731977Y-109363949D01*
X133734000Y-109364843D01*
X133730294Y-109373234D01*
X133730294Y-109373235D01*
X133699934Y-109441994D01*
X133684914Y-109476011D01*
X133682000Y-109501130D01*
X133682000Y-109790859D01*
X133682001Y-109790864D01*
X133684914Y-109815990D01*
X133706113Y-109864000D01*
X133719958Y-109895357D01*
X133734000Y-109927157D01*
X133731626Y-109928205D01*
X133745037Y-109973757D01*
X133731977Y-110013949D01*
X133734000Y-110014843D01*
X133730294Y-110023234D01*
X133730294Y-110023235D01*
X133705901Y-110078480D01*
X133684914Y-110126011D01*
X133682244Y-110149023D01*
X133656754Y-110204646D01*
X133603438Y-110234664D01*
X133542661Y-110227610D01*
X133509086Y-110202442D01*
X133427128Y-110107857D01*
X133427127Y-110107856D01*
X133427126Y-110107855D01*
X133306057Y-110030049D01*
X133306054Y-110030047D01*
X133306053Y-110030047D01*
X133306050Y-110030046D01*
X133167964Y-109989500D01*
X133167961Y-109989500D01*
X133024039Y-109989500D01*
X133024035Y-109989500D01*
X132885949Y-110030046D01*
X132885942Y-110030049D01*
X132764873Y-110107855D01*
X132670622Y-110216628D01*
X132610834Y-110347543D01*
X132590353Y-110489997D01*
X132590353Y-110490001D01*
X132590482Y-110490899D01*
X132590353Y-110491644D01*
X132590353Y-110497081D01*
X132589412Y-110497081D01*
X132580043Y-110551188D01*
X132536161Y-110593826D01*
X132475598Y-110602529D01*
X132422484Y-110574984D01*
X131749096Y-109901596D01*
X131721319Y-109847079D01*
X131720100Y-109831592D01*
X131720100Y-109585870D01*
X131739007Y-109527679D01*
X131781215Y-109494406D01*
X131785101Y-109492796D01*
X131834298Y-109466500D01*
X131950225Y-109404536D01*
X132094957Y-109285757D01*
X132213736Y-109141025D01*
X132301996Y-108975901D01*
X132356347Y-108796731D01*
X132358712Y-108772724D01*
X132374699Y-108610404D01*
X132374699Y-108610395D01*
X132356348Y-108424074D01*
X132356347Y-108424071D01*
X132356347Y-108424069D01*
X132301996Y-108244899D01*
X132287104Y-108217037D01*
X132213740Y-108079782D01*
X132213738Y-108079780D01*
X132213736Y-108079775D01*
X132145394Y-107996500D01*
X132094961Y-107935047D01*
X132094952Y-107935038D01*
X132009036Y-107864529D01*
X131950225Y-107816264D01*
X131950222Y-107816262D01*
X131950217Y-107816259D01*
X131785106Y-107728006D01*
X131785104Y-107728005D01*
X131781695Y-107726971D01*
X131654875Y-107688500D01*
X131605928Y-107673652D01*
X131605925Y-107673651D01*
X131419604Y-107655301D01*
X131419596Y-107655301D01*
X131233274Y-107673651D01*
X131233271Y-107673652D01*
X131054095Y-107728005D01*
X131054093Y-107728006D01*
X130888982Y-107816259D01*
X130888976Y-107816263D01*
X130744247Y-107935038D01*
X130744238Y-107935047D01*
X130625463Y-108079776D01*
X130625459Y-108079782D01*
X130537206Y-108244893D01*
X130537205Y-108244895D01*
X130482852Y-108424071D01*
X130482851Y-108424074D01*
X130464501Y-108610395D01*
X130464501Y-108610404D01*
X130482851Y-108796725D01*
X130482852Y-108796728D01*
X130482853Y-108796731D01*
X130531925Y-108958500D01*
X130537205Y-108975904D01*
X130537206Y-108975906D01*
X130625459Y-109141017D01*
X130625462Y-109141022D01*
X130625464Y-109141025D01*
X130650844Y-109171950D01*
X130744238Y-109285752D01*
X130744247Y-109285761D01*
X130800033Y-109331543D01*
X130888975Y-109404536D01*
X130888980Y-109404538D01*
X130888982Y-109404540D01*
X131054098Y-109492796D01*
X131057985Y-109494406D01*
X131104511Y-109534142D01*
X131119100Y-109585870D01*
X131119100Y-109736165D01*
X131105838Y-109785663D01*
X131088778Y-109815212D01*
X131088777Y-109815214D01*
X131068300Y-109891635D01*
X131068300Y-110072364D01*
X131088778Y-110148788D01*
X131088780Y-110148792D01*
X131128338Y-110217308D01*
X131128340Y-110217311D01*
X131184289Y-110273260D01*
X131207129Y-110286447D01*
X131252807Y-110312819D01*
X131252808Y-110312819D01*
X131252811Y-110312821D01*
X131305828Y-110327027D01*
X131350207Y-110352649D01*
X131560236Y-110562678D01*
X131588013Y-110617195D01*
X131578442Y-110677627D01*
X131535177Y-110720892D01*
X131474745Y-110730463D01*
X131435317Y-110715055D01*
X129570606Y-109471914D01*
X129532676Y-109423904D01*
X129527530Y-109403639D01*
X129517165Y-109331543D01*
X129513609Y-109323757D01*
X129475071Y-109239371D01*
X129457377Y-109200627D01*
X129363128Y-109091857D01*
X129363127Y-109091856D01*
X129363126Y-109091855D01*
X129242057Y-109014049D01*
X129242054Y-109014047D01*
X129242053Y-109014047D01*
X129242050Y-109014046D01*
X129103964Y-108973500D01*
X129103961Y-108973500D01*
X128960039Y-108973500D01*
X128960035Y-108973500D01*
X128821949Y-109014046D01*
X128821942Y-109014049D01*
X128700876Y-109091854D01*
X128700875Y-109091855D01*
X128700872Y-109091857D01*
X128659992Y-109139036D01*
X128659736Y-109139331D01*
X128607340Y-109170927D01*
X128584917Y-109173500D01*
X127997181Y-109173500D01*
X127997169Y-109173499D01*
X127948087Y-109173499D01*
X127935171Y-109172653D01*
X127927605Y-109171657D01*
X127920074Y-109170666D01*
X127895100Y-109163973D01*
X127890508Y-109162070D01*
X127887079Y-109160650D01*
X127864711Y-109147734D01*
X127853375Y-109139036D01*
X127842363Y-109129198D01*
X127773417Y-109057663D01*
X127770962Y-109055019D01*
X127701021Y-108976875D01*
X127698637Y-108974111D01*
X127631077Y-108892784D01*
X127629923Y-108891367D01*
X127599009Y-108852724D01*
X127599009Y-108852725D01*
X127599005Y-108852720D01*
X127359735Y-108553634D01*
X127236383Y-108399444D01*
X127233037Y-108395012D01*
X127106371Y-108217031D01*
X127100443Y-108207622D01*
X127098434Y-108203997D01*
X128780353Y-108203997D01*
X128780353Y-108204002D01*
X128800834Y-108346456D01*
X128851776Y-108458002D01*
X128860623Y-108477373D01*
X128952891Y-108583857D01*
X128954873Y-108586144D01*
X129075942Y-108663950D01*
X129075947Y-108663953D01*
X129173603Y-108692627D01*
X129214035Y-108704499D01*
X129214036Y-108704499D01*
X129214039Y-108704500D01*
X129214041Y-108704500D01*
X129357959Y-108704500D01*
X129357961Y-108704500D01*
X129496053Y-108663953D01*
X129617128Y-108586143D01*
X129711377Y-108477373D01*
X129771165Y-108346457D01*
X129790404Y-108212644D01*
X129791647Y-108204002D01*
X129791647Y-108203997D01*
X129771165Y-108061543D01*
X129756292Y-108028976D01*
X129711377Y-107930627D01*
X129617128Y-107821857D01*
X129617127Y-107821856D01*
X129617126Y-107821855D01*
X129496057Y-107744049D01*
X129496054Y-107744047D01*
X129496053Y-107744047D01*
X129495927Y-107744010D01*
X129357964Y-107703500D01*
X129357961Y-107703500D01*
X129214039Y-107703500D01*
X129214035Y-107703500D01*
X129075949Y-107744046D01*
X129075942Y-107744049D01*
X128954873Y-107821855D01*
X128860622Y-107930628D01*
X128800834Y-108061543D01*
X128780353Y-108203997D01*
X127098434Y-108203997D01*
X126995918Y-108019017D01*
X126991079Y-108008997D01*
X126908370Y-107809832D01*
X126904687Y-107799332D01*
X126844851Y-107592143D01*
X126842377Y-107581328D01*
X126806167Y-107368714D01*
X126804921Y-107357688D01*
X126792656Y-107139787D01*
X126792500Y-107134223D01*
X126792500Y-106933997D01*
X128780353Y-106933997D01*
X128780353Y-106934002D01*
X128800834Y-107076456D01*
X128859768Y-107205500D01*
X128860623Y-107207373D01*
X128952891Y-107313857D01*
X128954873Y-107316144D01*
X129075707Y-107393799D01*
X129075947Y-107393953D01*
X129175677Y-107423236D01*
X129214035Y-107434499D01*
X129214036Y-107434499D01*
X129214039Y-107434500D01*
X129214041Y-107434500D01*
X129357959Y-107434500D01*
X129357961Y-107434500D01*
X129496053Y-107393953D01*
X129617128Y-107316143D01*
X129711377Y-107207373D01*
X129771165Y-107076457D01*
X129788569Y-106955409D01*
X129791647Y-106934002D01*
X129791647Y-106933997D01*
X129771165Y-106791543D01*
X129755279Y-106756758D01*
X129711377Y-106660627D01*
X129617128Y-106551857D01*
X129617127Y-106551856D01*
X129617126Y-106551855D01*
X129496057Y-106474049D01*
X129496054Y-106474047D01*
X129496053Y-106474047D01*
X129496050Y-106474046D01*
X129357964Y-106433500D01*
X129357961Y-106433500D01*
X129214039Y-106433500D01*
X129214035Y-106433500D01*
X129075949Y-106474046D01*
X129075942Y-106474049D01*
X128954873Y-106551855D01*
X128860622Y-106660628D01*
X128800834Y-106791543D01*
X128780353Y-106933997D01*
X126792500Y-106933997D01*
X126792500Y-105155997D01*
X130304353Y-105155997D01*
X130304353Y-105156002D01*
X130324834Y-105298456D01*
X130384622Y-105429371D01*
X130384623Y-105429373D01*
X130476891Y-105535857D01*
X130478873Y-105538144D01*
X130590768Y-105610054D01*
X130599947Y-105615953D01*
X130667156Y-105635687D01*
X130738035Y-105656499D01*
X130738036Y-105656499D01*
X130738039Y-105656500D01*
X130738041Y-105656500D01*
X130881959Y-105656500D01*
X130881961Y-105656500D01*
X131020053Y-105615953D01*
X131141128Y-105538143D01*
X131235377Y-105429373D01*
X131295165Y-105298457D01*
X131309821Y-105196519D01*
X131315647Y-105156002D01*
X131315647Y-105155997D01*
X131295165Y-105013543D01*
X131266167Y-104950047D01*
X131235377Y-104882627D01*
X131141128Y-104773857D01*
X131141127Y-104773856D01*
X131141126Y-104773855D01*
X131020057Y-104696049D01*
X131020054Y-104696047D01*
X131020053Y-104696047D01*
X131020050Y-104696046D01*
X130881964Y-104655500D01*
X130881961Y-104655500D01*
X130738039Y-104655500D01*
X130738035Y-104655500D01*
X130599949Y-104696046D01*
X130599942Y-104696049D01*
X130478873Y-104773855D01*
X130384622Y-104882628D01*
X130324834Y-105013543D01*
X130304353Y-105155997D01*
X126792500Y-105155997D01*
X126792500Y-103831893D01*
X126811407Y-103773702D01*
X126818741Y-103765711D01*
X126818491Y-103765494D01*
X126823128Y-103760143D01*
X126917377Y-103651373D01*
X126977165Y-103520457D01*
X126994556Y-103399497D01*
X126997647Y-103378002D01*
X126997647Y-103377997D01*
X126977165Y-103235543D01*
X126969363Y-103218459D01*
X126917377Y-103104627D01*
X126823128Y-102995857D01*
X126823127Y-102995856D01*
X126823126Y-102995855D01*
X126702057Y-102918049D01*
X126702054Y-102918047D01*
X126702053Y-102918047D01*
X126702050Y-102918046D01*
X126563964Y-102877500D01*
X126563961Y-102877500D01*
X126420039Y-102877500D01*
X126420035Y-102877500D01*
X126281949Y-102918046D01*
X126281942Y-102918049D01*
X126160873Y-102995855D01*
X126066622Y-103104628D01*
X126006834Y-103235543D01*
X125986353Y-103377997D01*
X125986353Y-103378002D01*
X126006834Y-103520456D01*
X126042821Y-103599255D01*
X126066623Y-103651373D01*
X126158891Y-103757857D01*
X126165509Y-103765494D01*
X126163471Y-103767259D01*
X126188925Y-103809458D01*
X126191500Y-103831893D01*
X126191500Y-104930337D01*
X126172593Y-104988528D01*
X126123093Y-105024492D01*
X126061907Y-105024492D01*
X126038977Y-105013621D01*
X125940057Y-104950049D01*
X125940054Y-104950047D01*
X125940053Y-104950047D01*
X125937812Y-104949389D01*
X125801964Y-104909500D01*
X125801961Y-104909500D01*
X125658039Y-104909500D01*
X125658035Y-104909500D01*
X125519949Y-104950046D01*
X125519942Y-104950049D01*
X125398873Y-105027855D01*
X125304622Y-105136628D01*
X125244834Y-105267543D01*
X125224353Y-105409997D01*
X125224353Y-105410002D01*
X125244834Y-105552456D01*
X125296386Y-105665337D01*
X125304623Y-105683373D01*
X125396891Y-105789857D01*
X125398873Y-105792144D01*
X125519942Y-105869950D01*
X125519947Y-105869953D01*
X125610424Y-105896519D01*
X125658035Y-105910499D01*
X125658036Y-105910499D01*
X125658039Y-105910500D01*
X125658041Y-105910500D01*
X125801959Y-105910500D01*
X125801961Y-105910500D01*
X125940053Y-105869953D01*
X126038979Y-105806377D01*
X126098151Y-105790823D01*
X126155168Y-105813022D01*
X126188247Y-105864494D01*
X126191500Y-105889662D01*
X126191500Y-107095787D01*
X126191483Y-107095839D01*
X126191506Y-107284201D01*
X126214939Y-107491677D01*
X126224592Y-107577150D01*
X126232346Y-107611043D01*
X126290340Y-107864529D01*
X126328376Y-107972957D01*
X126387926Y-108142717D01*
X126387927Y-108142721D01*
X126387929Y-108142724D01*
X126516108Y-108408187D01*
X126516116Y-108408200D01*
X126673274Y-108657598D01*
X126673283Y-108657611D01*
X126718347Y-108713955D01*
X126726469Y-108724109D01*
X126726479Y-108724137D01*
X126777912Y-108788426D01*
X126777914Y-108788427D01*
X127131417Y-109230306D01*
X127131418Y-109230308D01*
X127138670Y-109239373D01*
X127161150Y-109267473D01*
X127161151Y-109267475D01*
X127180373Y-109291504D01*
X127201976Y-109318509D01*
X127232358Y-109353740D01*
X127287336Y-109417494D01*
X127315259Y-109447556D01*
X127367039Y-109503304D01*
X127376301Y-109513275D01*
X127393515Y-109530488D01*
X127393516Y-109530490D01*
X127393517Y-109530490D01*
X127422513Y-109559486D01*
X127422513Y-109559487D01*
X127473639Y-109610613D01*
X127473642Y-109610615D01*
X127593871Y-109690949D01*
X127593873Y-109690950D01*
X127593876Y-109690952D01*
X127727476Y-109746290D01*
X127869305Y-109774501D01*
X127941608Y-109774500D01*
X127989203Y-109774500D01*
X128584917Y-109774500D01*
X128643108Y-109793407D01*
X128659733Y-109808667D01*
X128700872Y-109856143D01*
X128821947Y-109933953D01*
X128915186Y-109961330D01*
X128960035Y-109974499D01*
X128960036Y-109974499D01*
X128960039Y-109974500D01*
X128960041Y-109974500D01*
X129103960Y-109974500D01*
X129103961Y-109974500D01*
X129103962Y-109974499D01*
X129103966Y-109974499D01*
X129144393Y-109962628D01*
X129154760Y-109959584D01*
X129215919Y-109961330D01*
X129237562Y-109972197D01*
X131509208Y-111486628D01*
X131541392Y-111508084D01*
X131579322Y-111556094D01*
X131584469Y-111576367D01*
X131594834Y-111648456D01*
X131599292Y-111658218D01*
X131606266Y-111719005D01*
X131576178Y-111772281D01*
X131520522Y-111797698D01*
X131481347Y-111794333D01*
X131389964Y-111767500D01*
X131389961Y-111767500D01*
X131246039Y-111767500D01*
X131246035Y-111767500D01*
X131107949Y-111808046D01*
X131107942Y-111808049D01*
X130986873Y-111885855D01*
X130892622Y-111994628D01*
X130832834Y-112125543D01*
X130812353Y-112267997D01*
X130812353Y-112268002D01*
X130832834Y-112410456D01*
X130882298Y-112518765D01*
X130892623Y-112541373D01*
X130984891Y-112647857D01*
X130986873Y-112650144D01*
X131097389Y-112721168D01*
X131107947Y-112727953D01*
X131181184Y-112749457D01*
X131246035Y-112768499D01*
X131246036Y-112768499D01*
X131246039Y-112768500D01*
X131246041Y-112768500D01*
X131389959Y-112768500D01*
X131389961Y-112768500D01*
X131528053Y-112727953D01*
X131649128Y-112650143D01*
X131743377Y-112541373D01*
X131803165Y-112410457D01*
X131818257Y-112305491D01*
X131823647Y-112268002D01*
X131823647Y-112267997D01*
X131805024Y-112138471D01*
X131803165Y-112125543D01*
X131798708Y-112115783D01*
X131791733Y-112054997D01*
X131821819Y-112001719D01*
X131877475Y-111976301D01*
X131916648Y-111979665D01*
X132008039Y-112006500D01*
X132008041Y-112006500D01*
X132151959Y-112006500D01*
X132151961Y-112006500D01*
X132290053Y-111965953D01*
X132388979Y-111902377D01*
X132448151Y-111886823D01*
X132505168Y-111909022D01*
X132538247Y-111960494D01*
X132541500Y-111985662D01*
X132541500Y-114032921D01*
X132522593Y-114091112D01*
X132512504Y-114102925D01*
X131997089Y-114618340D01*
X131997088Y-114618339D01*
X131941139Y-114674289D01*
X131901580Y-114742807D01*
X131901578Y-114742811D01*
X131881100Y-114819235D01*
X131881100Y-115590349D01*
X131862193Y-115648540D01*
X131812693Y-115684504D01*
X131809992Y-115685339D01*
X131763995Y-115698845D01*
X131763993Y-115698845D01*
X131763990Y-115698847D01*
X131642921Y-115776653D01*
X131548670Y-115885426D01*
X131488882Y-116016341D01*
X131468401Y-116158795D01*
X131468401Y-116158800D01*
X131488882Y-116301254D01*
X131536141Y-116404735D01*
X131548671Y-116432171D01*
X131621834Y-116516606D01*
X131642921Y-116540942D01*
X131732835Y-116598726D01*
X131763995Y-116618751D01*
X131870451Y-116650009D01*
X131902083Y-116659297D01*
X131902084Y-116659297D01*
X131902087Y-116659298D01*
X131902089Y-116659298D01*
X132046007Y-116659298D01*
X132046009Y-116659298D01*
X132184101Y-116618751D01*
X132305176Y-116540941D01*
X132399425Y-116432171D01*
X132459213Y-116301255D01*
X132470843Y-116220364D01*
X132479695Y-116158800D01*
X132479695Y-116158797D01*
X132477363Y-116142577D01*
X132467705Y-116075406D01*
X132470070Y-116035700D01*
X132482100Y-115990808D01*
X132482100Y-115024279D01*
X132501007Y-114966088D01*
X132511096Y-114954276D01*
X132986476Y-114478895D01*
X133040993Y-114451117D01*
X133101425Y-114460688D01*
X133105976Y-114463158D01*
X133132411Y-114478421D01*
X133208835Y-114498899D01*
X133208837Y-114498900D01*
X133208838Y-114498900D01*
X133287962Y-114498900D01*
X133634464Y-114498900D01*
X133692655Y-114517807D01*
X133728619Y-114567307D01*
X133732456Y-114583809D01*
X133733004Y-114587617D01*
X133733950Y-114594200D01*
X133780750Y-114696676D01*
X133793738Y-114725115D01*
X133876474Y-114820598D01*
X133887988Y-114833886D01*
X133997569Y-114904309D01*
X134009062Y-114911695D01*
X134108683Y-114940946D01*
X134147150Y-114952241D01*
X134147151Y-114952241D01*
X134147154Y-114952242D01*
X134147156Y-114952242D01*
X134291074Y-114952242D01*
X134291076Y-114952242D01*
X134429168Y-114911695D01*
X134550243Y-114833885D01*
X134644492Y-114725115D01*
X134704280Y-114594199D01*
X134713529Y-114529868D01*
X134724762Y-114451744D01*
X134724762Y-114451739D01*
X134704280Y-114309285D01*
X134690938Y-114280071D01*
X134644492Y-114178369D01*
X134585535Y-114110329D01*
X134561719Y-114053970D01*
X134575578Y-113994375D01*
X134621819Y-113954308D01*
X134660356Y-113946499D01*
X135302361Y-113946499D01*
X135302364Y-113946499D01*
X135327491Y-113943585D01*
X135430265Y-113898206D01*
X135443860Y-113884611D01*
X135452977Y-113875495D01*
X135507494Y-113847719D01*
X135522979Y-113846500D01*
X135921562Y-113846500D01*
X135938831Y-113841873D01*
X135964453Y-113838500D01*
X135978521Y-113838500D01*
X136036712Y-113857407D01*
X136048525Y-113867496D01*
X137173540Y-114992511D01*
X137173539Y-114992511D01*
X137229489Y-115048460D01*
X137298007Y-115088019D01*
X137298011Y-115088021D01*
X137374435Y-115108499D01*
X137374437Y-115108500D01*
X137374438Y-115108500D01*
X146597563Y-115108500D01*
X146597563Y-115108499D01*
X146673989Y-115088021D01*
X146742511Y-115048460D01*
X146798460Y-114992511D01*
X148068460Y-113722511D01*
X148082241Y-113698642D01*
X148084977Y-113693904D01*
X148108020Y-113653990D01*
X148108021Y-113653989D01*
X148128500Y-113577562D01*
X148128500Y-113391893D01*
X148147407Y-113333702D01*
X148154741Y-113325711D01*
X148154491Y-113325494D01*
X148173659Y-113303373D01*
X148253377Y-113211373D01*
X148313165Y-113080457D01*
X148323515Y-113008471D01*
X148333647Y-112938002D01*
X148333647Y-112937997D01*
X148313165Y-112795543D01*
X148304240Y-112776000D01*
X148253377Y-112664627D01*
X148159128Y-112555857D01*
X148159127Y-112555856D01*
X148159126Y-112555855D01*
X148038057Y-112478049D01*
X148038054Y-112478047D01*
X148038053Y-112478047D01*
X148038050Y-112478046D01*
X147899964Y-112437500D01*
X147899961Y-112437500D01*
X147756039Y-112437500D01*
X147756035Y-112437500D01*
X147631414Y-112474092D01*
X147570253Y-112472344D01*
X147521801Y-112434981D01*
X147513706Y-112407412D01*
X148852000Y-112407412D01*
X148852000Y-113776999D01*
X148852001Y-113777000D01*
X149605999Y-113777000D01*
X149606000Y-113776999D01*
X149606000Y-111948001D01*
X149605999Y-111948000D01*
X149311413Y-111948000D01*
X149250911Y-111954504D01*
X149250901Y-111954506D01*
X149114039Y-112005552D01*
X148997100Y-112093092D01*
X148997092Y-112093100D01*
X148909552Y-112210039D01*
X148858506Y-112346901D01*
X148858504Y-112346911D01*
X148852000Y-112407412D01*
X147513706Y-112407412D01*
X147504563Y-112376274D01*
X147525125Y-112318647D01*
X147533520Y-112309098D01*
X147640890Y-112201728D01*
X147730845Y-112055888D01*
X147730846Y-112055886D01*
X147784744Y-111893232D01*
X147795000Y-111792851D01*
X147795000Y-111773001D01*
X147794999Y-111773000D01*
X147066001Y-111773000D01*
X147066000Y-111773001D01*
X147066000Y-112476999D01*
X147066001Y-112477000D01*
X147110852Y-112477000D01*
X147211232Y-112466744D01*
X147378570Y-112411294D01*
X147439754Y-112410938D01*
X147489462Y-112446613D01*
X147508708Y-112504693D01*
X147490140Y-112562992D01*
X147484530Y-112570099D01*
X147402623Y-112664626D01*
X147342834Y-112795543D01*
X147322353Y-112937997D01*
X147322353Y-112938002D01*
X147342834Y-113080456D01*
X147395831Y-113196500D01*
X147402623Y-113211373D01*
X147482341Y-113303373D01*
X147494084Y-113316925D01*
X147517901Y-113373285D01*
X147504042Y-113432880D01*
X147489268Y-113451760D01*
X146462525Y-114478504D01*
X146408008Y-114506281D01*
X146392521Y-114507500D01*
X137579479Y-114507500D01*
X137521288Y-114488593D01*
X137509475Y-114478504D01*
X136630040Y-113599069D01*
X136602263Y-113544552D01*
X136611834Y-113484120D01*
X136646518Y-113445783D01*
X136743456Y-113383486D01*
X136837705Y-113274716D01*
X136897493Y-113143800D01*
X136905787Y-113086115D01*
X136917975Y-113001345D01*
X136917975Y-113001340D01*
X136897493Y-112858886D01*
X136890544Y-112843671D01*
X136837705Y-112727970D01*
X136743456Y-112619200D01*
X136743455Y-112619199D01*
X136743454Y-112619198D01*
X136622385Y-112541392D01*
X136622382Y-112541390D01*
X136622381Y-112541390D01*
X136622378Y-112541389D01*
X136484292Y-112500843D01*
X136484289Y-112500843D01*
X136340367Y-112500843D01*
X136340363Y-112500843D01*
X136202277Y-112541389D01*
X136202270Y-112541392D01*
X136081204Y-112619197D01*
X136081203Y-112619198D01*
X136081200Y-112619200D01*
X136041837Y-112664628D01*
X136040064Y-112666674D01*
X135987668Y-112698270D01*
X135965245Y-112700843D01*
X135608481Y-112700843D01*
X135550290Y-112681936D01*
X135517916Y-112641830D01*
X135515742Y-112636907D01*
X135509706Y-112623235D01*
X135509705Y-112623234D01*
X135506000Y-112614842D01*
X135508375Y-112613793D01*
X135494962Y-112568261D01*
X135508026Y-112528051D01*
X135506000Y-112527157D01*
X135509704Y-112518766D01*
X135509706Y-112518765D01*
X135555085Y-112415991D01*
X135558000Y-112390865D01*
X135557999Y-112101136D01*
X135555085Y-112076009D01*
X135509706Y-111973235D01*
X135509705Y-111973234D01*
X135506000Y-111964843D01*
X135508375Y-111963794D01*
X135494962Y-111918261D01*
X135508026Y-111878051D01*
X135506000Y-111877157D01*
X135509704Y-111868766D01*
X135509706Y-111868765D01*
X135555085Y-111765991D01*
X135558000Y-111740865D01*
X135557999Y-111451136D01*
X135555085Y-111426009D01*
X135509706Y-111323235D01*
X135509705Y-111323234D01*
X135506000Y-111314843D01*
X135508375Y-111313794D01*
X135494962Y-111268261D01*
X135508026Y-111228051D01*
X135506000Y-111227157D01*
X135509704Y-111218766D01*
X135509706Y-111218765D01*
X135555085Y-111115991D01*
X135555085Y-111115988D01*
X135558092Y-111109179D01*
X135561222Y-111110561D01*
X135586739Y-111071557D01*
X135643934Y-111049822D01*
X135702981Y-111065856D01*
X135718787Y-111078699D01*
X137092599Y-112452511D01*
X137092598Y-112452511D01*
X137148548Y-112508460D01*
X137217066Y-112548019D01*
X137217067Y-112548019D01*
X137217070Y-112548021D01*
X137293497Y-112568500D01*
X137293500Y-112568500D01*
X137294694Y-112568820D01*
X137343888Y-112599614D01*
X137387672Y-112650143D01*
X137508747Y-112727953D01*
X137581984Y-112749457D01*
X137646835Y-112768499D01*
X137646836Y-112768499D01*
X137646839Y-112768500D01*
X137646841Y-112768500D01*
X137790759Y-112768500D01*
X137790761Y-112768500D01*
X137928853Y-112727953D01*
X138049928Y-112650143D01*
X138144177Y-112541373D01*
X138203965Y-112410457D01*
X138219057Y-112305491D01*
X138224447Y-112268002D01*
X138224447Y-112267997D01*
X138208541Y-112157370D01*
X138218974Y-112097081D01*
X138262852Y-112054439D01*
X138278638Y-112048292D01*
X138386053Y-112016753D01*
X138507128Y-111938943D01*
X138601377Y-111830173D01*
X138616983Y-111796000D01*
X139107420Y-111796000D01*
X139115150Y-111854719D01*
X139176411Y-112002619D01*
X139176413Y-112002623D01*
X139273868Y-112129627D01*
X139273871Y-112129630D01*
X139368268Y-112202064D01*
X139402923Y-112252489D01*
X139407000Y-112280605D01*
X139407000Y-112390861D01*
X139407001Y-112390864D01*
X139409914Y-112415990D01*
X139432325Y-112466744D01*
X139450629Y-112508200D01*
X139459000Y-112527157D01*
X139456626Y-112528205D01*
X139470037Y-112573757D01*
X139456977Y-112613949D01*
X139459000Y-112614843D01*
X139455294Y-112623234D01*
X139455294Y-112623235D01*
X139436114Y-112666674D01*
X139409914Y-112726011D01*
X139407000Y-112751130D01*
X139407000Y-113040859D01*
X139407001Y-113040864D01*
X139409914Y-113065990D01*
X139431955Y-113115907D01*
X139450604Y-113158144D01*
X139459000Y-113177157D01*
X139456626Y-113178205D01*
X139470037Y-113223757D01*
X139456977Y-113263949D01*
X139459000Y-113264843D01*
X139455294Y-113273234D01*
X139455294Y-113273235D01*
X139432124Y-113325711D01*
X139409914Y-113376011D01*
X139407000Y-113401130D01*
X139407000Y-113690859D01*
X139407001Y-113690864D01*
X139409914Y-113715990D01*
X139435256Y-113773385D01*
X139455294Y-113818765D01*
X139534735Y-113898206D01*
X139637509Y-113943585D01*
X139662635Y-113946500D01*
X141027364Y-113946499D01*
X141052491Y-113943585D01*
X141155265Y-113898206D01*
X141168860Y-113884611D01*
X141177977Y-113875495D01*
X141232494Y-113847719D01*
X141247979Y-113846500D01*
X145319560Y-113846500D01*
X145319562Y-113846500D01*
X145325842Y-113844817D01*
X145386942Y-113848017D01*
X145426285Y-113875611D01*
X145464872Y-113920143D01*
X145542629Y-113970114D01*
X145583379Y-113996303D01*
X145585947Y-113997953D01*
X145681995Y-114026155D01*
X145724035Y-114038499D01*
X145724036Y-114038499D01*
X145724039Y-114038500D01*
X145724041Y-114038500D01*
X145867959Y-114038500D01*
X145867961Y-114038500D01*
X146006053Y-113997953D01*
X146127128Y-113920143D01*
X146221377Y-113811373D01*
X146281165Y-113680457D01*
X146298394Y-113560625D01*
X146301647Y-113538002D01*
X146301647Y-113537997D01*
X146281165Y-113395543D01*
X146256347Y-113341200D01*
X146221377Y-113264627D01*
X146127128Y-113155857D01*
X146127127Y-113155856D01*
X146127126Y-113155855D01*
X146006057Y-113078049D01*
X146006054Y-113078047D01*
X146006053Y-113078047D01*
X146000771Y-113076496D01*
X145867964Y-113037500D01*
X145867961Y-113037500D01*
X145724039Y-113037500D01*
X145724035Y-113037500D01*
X145585949Y-113078046D01*
X145585942Y-113078049D01*
X145464876Y-113155854D01*
X145464875Y-113155855D01*
X145464872Y-113155857D01*
X145446416Y-113177157D01*
X145423736Y-113203331D01*
X145371340Y-113234927D01*
X145348917Y-113237500D01*
X145248435Y-113237500D01*
X145231168Y-113242127D01*
X145205547Y-113245500D01*
X142167479Y-113245500D01*
X142109288Y-113226593D01*
X142073324Y-113177093D01*
X142073324Y-113115907D01*
X142097475Y-113076496D01*
X143400970Y-111773001D01*
X143797000Y-111773001D01*
X143797000Y-111792851D01*
X143807255Y-111893232D01*
X143861153Y-112055886D01*
X143861154Y-112055888D01*
X143951108Y-112201726D01*
X144072273Y-112322891D01*
X144218111Y-112412845D01*
X144218113Y-112412846D01*
X144380767Y-112466744D01*
X144481148Y-112477000D01*
X144525999Y-112477000D01*
X144526000Y-112476999D01*
X144526000Y-111773001D01*
X145034000Y-111773001D01*
X145034000Y-112476999D01*
X145034001Y-112477000D01*
X145078852Y-112477000D01*
X145179232Y-112466744D01*
X145341886Y-112412846D01*
X145341888Y-112412845D01*
X145487726Y-112322891D01*
X145608891Y-112201726D01*
X145698845Y-112055888D01*
X145698846Y-112055886D01*
X145702025Y-112046294D01*
X145738276Y-111997004D01*
X145796576Y-111978436D01*
X145854656Y-111997681D01*
X145889975Y-112046294D01*
X145893153Y-112055886D01*
X145893154Y-112055888D01*
X145983108Y-112201726D01*
X146104273Y-112322891D01*
X146250111Y-112412845D01*
X146250113Y-112412846D01*
X146412767Y-112466744D01*
X146513148Y-112477000D01*
X146557999Y-112477000D01*
X146558000Y-112476999D01*
X146558000Y-111773001D01*
X146557999Y-111773000D01*
X145034001Y-111773000D01*
X145034000Y-111773001D01*
X144526000Y-111773001D01*
X144525999Y-111773000D01*
X143797001Y-111773000D01*
X143797000Y-111773001D01*
X143400970Y-111773001D01*
X143464774Y-111709197D01*
X152859553Y-111709197D01*
X152859553Y-111709202D01*
X152880034Y-111851656D01*
X152927004Y-111954504D01*
X152939823Y-111982573D01*
X153027012Y-112083195D01*
X153038709Y-112096694D01*
X153036957Y-112098211D01*
X153063035Y-112141457D01*
X153057799Y-112202418D01*
X153056598Y-112203803D01*
X153106297Y-112170596D01*
X153161059Y-112170888D01*
X153293239Y-112209700D01*
X153293241Y-112209700D01*
X153399721Y-112209700D01*
X153457912Y-112228607D01*
X153469725Y-112238696D01*
X154210504Y-112979475D01*
X154238281Y-113033992D01*
X154239500Y-113049479D01*
X154239500Y-115625746D01*
X154239501Y-115625758D01*
X154251132Y-115684227D01*
X154251134Y-115684233D01*
X154295445Y-115750548D01*
X154295448Y-115750552D01*
X154361769Y-115794867D01*
X154406231Y-115803711D01*
X154420241Y-115806498D01*
X154420246Y-115806498D01*
X154420252Y-115806500D01*
X154420253Y-115806500D01*
X155459747Y-115806500D01*
X155459748Y-115806500D01*
X155518231Y-115794867D01*
X155584552Y-115750552D01*
X155628867Y-115684231D01*
X155640500Y-115625748D01*
X155640500Y-114309597D01*
X156263153Y-114309597D01*
X156263153Y-114309602D01*
X156283634Y-114452056D01*
X156325425Y-114543564D01*
X156343423Y-114582973D01*
X156437672Y-114691743D01*
X156437673Y-114691744D01*
X156546734Y-114761833D01*
X156558747Y-114769553D01*
X156664141Y-114800499D01*
X156696835Y-114810099D01*
X156696836Y-114810099D01*
X156696839Y-114810100D01*
X156696841Y-114810100D01*
X156840759Y-114810100D01*
X156840761Y-114810100D01*
X156978853Y-114769553D01*
X157099928Y-114691743D01*
X157194177Y-114582973D01*
X157229181Y-114506325D01*
X157254154Y-114451644D01*
X157274200Y-114422769D01*
X157764725Y-113932244D01*
X157819240Y-113904469D01*
X157872612Y-113910786D01*
X157876494Y-113912394D01*
X157876496Y-113912394D01*
X157876499Y-113912396D01*
X158055669Y-113966747D01*
X158055671Y-113966747D01*
X158055674Y-113966748D01*
X158241996Y-113985099D01*
X158242000Y-113985099D01*
X158242004Y-113985099D01*
X158428325Y-113966748D01*
X158428326Y-113966747D01*
X158428331Y-113966747D01*
X158607501Y-113912396D01*
X158772625Y-113824136D01*
X158917357Y-113705357D01*
X159036136Y-113560625D01*
X159124396Y-113395501D01*
X159178747Y-113216331D01*
X159179236Y-113211373D01*
X159197099Y-113030004D01*
X159197099Y-113029995D01*
X159178748Y-112843674D01*
X159178747Y-112843671D01*
X159178747Y-112843669D01*
X159124396Y-112664499D01*
X159115500Y-112647855D01*
X159036140Y-112499382D01*
X159036138Y-112499380D01*
X159036136Y-112499375D01*
X158965122Y-112412845D01*
X158917361Y-112354647D01*
X158917352Y-112354638D01*
X158827142Y-112280605D01*
X158772625Y-112235864D01*
X158772622Y-112235862D01*
X158772617Y-112235859D01*
X158607506Y-112147606D01*
X158607504Y-112147605D01*
X158589498Y-112142143D01*
X158502602Y-112115783D01*
X158428328Y-112093252D01*
X158428325Y-112093251D01*
X158242004Y-112074901D01*
X158241996Y-112074901D01*
X158055674Y-112093251D01*
X158055671Y-112093252D01*
X157876495Y-112147605D01*
X157876493Y-112147606D01*
X157711382Y-112235859D01*
X157711376Y-112235863D01*
X157566647Y-112354638D01*
X157566638Y-112354647D01*
X157447863Y-112499376D01*
X157447859Y-112499382D01*
X157359606Y-112664493D01*
X157359605Y-112664495D01*
X157305252Y-112843671D01*
X157305251Y-112843674D01*
X157286901Y-113029995D01*
X157286901Y-113030004D01*
X157305251Y-113216325D01*
X157305252Y-113216328D01*
X157305253Y-113216331D01*
X157359593Y-113395466D01*
X157359606Y-113395507D01*
X157361217Y-113399397D01*
X157366010Y-113460395D01*
X157339752Y-113507275D01*
X157034710Y-113812317D01*
X156980193Y-113840094D01*
X156936815Y-113837303D01*
X156840764Y-113809100D01*
X156840761Y-113809100D01*
X156696839Y-113809100D01*
X156696835Y-113809100D01*
X156558749Y-113849646D01*
X156558742Y-113849649D01*
X156437673Y-113927455D01*
X156343422Y-114036228D01*
X156283634Y-114167143D01*
X156263153Y-114309597D01*
X155640500Y-114309597D01*
X155640500Y-112436252D01*
X155628867Y-112377769D01*
X155584552Y-112311448D01*
X155584548Y-112311445D01*
X155518233Y-112267134D01*
X155518231Y-112267133D01*
X155518228Y-112267132D01*
X155518227Y-112267132D01*
X155459758Y-112255501D01*
X155459748Y-112255500D01*
X154420252Y-112255500D01*
X154420244Y-112255500D01*
X154402269Y-112259076D01*
X154341508Y-112251883D01*
X154312953Y-112231982D01*
X153895746Y-111814775D01*
X153867969Y-111760258D01*
X153867967Y-111759995D01*
X159572901Y-111759995D01*
X159572901Y-111760004D01*
X159591251Y-111946325D01*
X159591252Y-111946328D01*
X159645605Y-112125504D01*
X159645606Y-112125506D01*
X159733859Y-112290617D01*
X159733862Y-112290622D01*
X159733864Y-112290625D01*
X159758695Y-112320881D01*
X159852638Y-112435352D01*
X159852647Y-112435361D01*
X159913892Y-112485623D01*
X159997375Y-112554136D01*
X159997380Y-112554138D01*
X159997382Y-112554140D01*
X160161440Y-112641830D01*
X160162499Y-112642396D01*
X160341669Y-112696747D01*
X160341671Y-112696747D01*
X160341674Y-112696748D01*
X160527996Y-112715099D01*
X160528000Y-112715099D01*
X160528002Y-112715099D01*
X160546892Y-112713238D01*
X160565047Y-112711450D01*
X160624811Y-112724562D01*
X160665454Y-112770298D01*
X160671452Y-112831189D01*
X160663137Y-112851226D01*
X160664364Y-112851787D01*
X160601634Y-112989143D01*
X160581153Y-113131597D01*
X160581153Y-113131602D01*
X160601634Y-113274056D01*
X160657100Y-113395507D01*
X160661423Y-113404973D01*
X160755672Y-113513743D01*
X160755673Y-113513744D01*
X160870316Y-113587420D01*
X160876747Y-113591553D01*
X160876755Y-113591555D01*
X160878902Y-113592536D01*
X160880364Y-113593878D01*
X160882703Y-113595381D01*
X160882442Y-113595785D01*
X160923982Y-113633906D01*
X160936135Y-113693873D01*
X160910721Y-113749530D01*
X160865674Y-113777581D01*
X160825951Y-113789245D01*
X160825942Y-113789249D01*
X160704873Y-113867055D01*
X160610622Y-113975828D01*
X160550834Y-114106743D01*
X160530353Y-114249197D01*
X160530353Y-114249202D01*
X160550834Y-114391656D01*
X160603203Y-114506325D01*
X160610623Y-114522573D01*
X160686530Y-114610175D01*
X160704873Y-114631344D01*
X160824173Y-114708013D01*
X160825947Y-114709153D01*
X160920238Y-114736839D01*
X160964035Y-114749699D01*
X160964036Y-114749699D01*
X160964039Y-114749700D01*
X160964041Y-114749700D01*
X161107959Y-114749700D01*
X161107961Y-114749700D01*
X161246053Y-114709153D01*
X161367128Y-114631343D01*
X161461377Y-114522573D01*
X161521165Y-114391657D01*
X161530677Y-114325501D01*
X161541647Y-114249202D01*
X161541647Y-114249198D01*
X161534133Y-114196942D01*
X161544566Y-114136653D01*
X161562118Y-114112851D01*
X162852475Y-112822496D01*
X162906992Y-112794719D01*
X162922479Y-112793500D01*
X163526747Y-112793500D01*
X163526748Y-112793500D01*
X163585231Y-112781867D01*
X163651552Y-112737552D01*
X163695867Y-112671231D01*
X163698585Y-112657566D01*
X163700452Y-112648184D01*
X163730350Y-112594800D01*
X163785915Y-112569186D01*
X163797549Y-112568500D01*
X166316451Y-112568500D01*
X166374642Y-112587407D01*
X166410606Y-112636907D01*
X166413548Y-112648184D01*
X166418132Y-112671227D01*
X166418134Y-112671233D01*
X166456032Y-112727950D01*
X166462448Y-112737552D01*
X166528769Y-112781867D01*
X166573231Y-112790711D01*
X166587241Y-112793498D01*
X166587246Y-112793498D01*
X166587252Y-112793500D01*
X166587253Y-112793500D01*
X167676747Y-112793500D01*
X167676748Y-112793500D01*
X167735231Y-112781867D01*
X167801552Y-112737552D01*
X167845867Y-112671231D01*
X167857500Y-112612748D01*
X167857500Y-111923252D01*
X167845867Y-111864769D01*
X167801552Y-111798448D01*
X167800430Y-111797698D01*
X167735233Y-111754134D01*
X167735231Y-111754133D01*
X167735228Y-111754132D01*
X167735227Y-111754132D01*
X167676758Y-111742501D01*
X167676748Y-111742500D01*
X166587252Y-111742500D01*
X166587251Y-111742500D01*
X166587241Y-111742501D01*
X166528772Y-111754132D01*
X166528766Y-111754134D01*
X166462451Y-111798445D01*
X166462445Y-111798451D01*
X166418134Y-111864766D01*
X166418132Y-111864772D01*
X166413548Y-111887816D01*
X166383650Y-111941200D01*
X166328085Y-111966814D01*
X166316451Y-111967500D01*
X163797549Y-111967500D01*
X163739358Y-111948593D01*
X163703394Y-111899093D01*
X163700452Y-111887816D01*
X163698038Y-111875683D01*
X163695867Y-111864769D01*
X163651552Y-111798448D01*
X163650430Y-111797698D01*
X163585233Y-111754134D01*
X163585231Y-111754133D01*
X163585228Y-111754132D01*
X163585227Y-111754132D01*
X163526758Y-111742501D01*
X163526748Y-111742500D01*
X162437252Y-111742500D01*
X162437251Y-111742500D01*
X162437241Y-111742501D01*
X162378772Y-111754132D01*
X162378766Y-111754134D01*
X162312451Y-111798445D01*
X162312445Y-111798451D01*
X162268134Y-111864766D01*
X162268132Y-111864772D01*
X162256501Y-111923241D01*
X162256500Y-111923253D01*
X162256500Y-112527520D01*
X162237593Y-112585711D01*
X162227503Y-112597524D01*
X161744989Y-113080037D01*
X161690473Y-113107814D01*
X161630041Y-113098243D01*
X161586776Y-113054978D01*
X161576994Y-113024125D01*
X161571965Y-112989143D01*
X161512177Y-112858227D01*
X161417928Y-112749457D01*
X161417927Y-112749456D01*
X161413291Y-112744106D01*
X161415324Y-112742343D01*
X161389867Y-112700105D01*
X161387300Y-112677705D01*
X161387300Y-112279240D01*
X161387300Y-112279238D01*
X161384289Y-112268000D01*
X161382820Y-112262518D01*
X161377699Y-112243405D01*
X161380900Y-112182303D01*
X161386012Y-112171118D01*
X161410396Y-112125501D01*
X161464747Y-111946331D01*
X161465253Y-111941200D01*
X161483099Y-111760004D01*
X161483099Y-111759995D01*
X161464748Y-111573674D01*
X161464747Y-111573671D01*
X161464747Y-111573669D01*
X161410396Y-111394499D01*
X161393850Y-111363543D01*
X161322140Y-111229382D01*
X161322138Y-111229380D01*
X161322136Y-111229375D01*
X161252700Y-111144767D01*
X161203361Y-111084647D01*
X161203352Y-111084638D01*
X161096509Y-110996955D01*
X161058625Y-110965864D01*
X161058622Y-110965862D01*
X161058617Y-110965859D01*
X160893506Y-110877606D01*
X160893504Y-110877605D01*
X160869739Y-110870396D01*
X160714331Y-110823253D01*
X160714328Y-110823252D01*
X160714325Y-110823251D01*
X160528004Y-110804901D01*
X160527996Y-110804901D01*
X160341674Y-110823251D01*
X160341671Y-110823252D01*
X160162495Y-110877605D01*
X160162493Y-110877606D01*
X159997382Y-110965859D01*
X159997376Y-110965863D01*
X159852647Y-111084638D01*
X159852638Y-111084647D01*
X159733863Y-111229376D01*
X159733859Y-111229382D01*
X159645606Y-111394493D01*
X159645605Y-111394495D01*
X159591252Y-111573671D01*
X159591251Y-111573674D01*
X159572901Y-111759995D01*
X153867967Y-111759995D01*
X153867758Y-111730682D01*
X153870847Y-111709200D01*
X153870484Y-111706678D01*
X153850365Y-111566743D01*
X153813777Y-111486627D01*
X153790577Y-111435827D01*
X153696328Y-111327057D01*
X153696327Y-111327056D01*
X153696326Y-111327055D01*
X153575257Y-111249249D01*
X153575254Y-111249247D01*
X153575253Y-111249247D01*
X153575250Y-111249246D01*
X153437164Y-111208700D01*
X153437161Y-111208700D01*
X153293239Y-111208700D01*
X153293235Y-111208700D01*
X153155149Y-111249246D01*
X153155142Y-111249249D01*
X153034073Y-111327055D01*
X152939822Y-111435828D01*
X152880034Y-111566743D01*
X152859553Y-111709197D01*
X143464774Y-111709197D01*
X143879975Y-111293996D01*
X143934492Y-111266219D01*
X143949979Y-111265000D01*
X147794999Y-111265000D01*
X147795000Y-111264999D01*
X147795000Y-111245148D01*
X147784744Y-111144767D01*
X147730846Y-110982113D01*
X147730845Y-110982111D01*
X147640891Y-110836273D01*
X147519723Y-110715105D01*
X147393062Y-110636979D01*
X147353461Y-110590338D01*
X147348838Y-110529328D01*
X147375030Y-110482717D01*
X147410528Y-110447220D01*
X147471719Y-110327126D01*
X147486152Y-110235997D01*
X147487500Y-110227489D01*
X147487500Y-109759479D01*
X147506407Y-109701288D01*
X147516496Y-109689475D01*
X147895475Y-109310496D01*
X147949992Y-109282719D01*
X147965479Y-109281500D01*
X149060500Y-109281500D01*
X149118691Y-109300407D01*
X149154655Y-109349907D01*
X149159500Y-109380500D01*
X149159500Y-110575746D01*
X149159501Y-110575758D01*
X149171132Y-110634227D01*
X149171134Y-110634233D01*
X149202455Y-110681107D01*
X149215448Y-110700552D01*
X149281769Y-110744867D01*
X149326231Y-110753711D01*
X149340241Y-110756498D01*
X149340246Y-110756498D01*
X149340252Y-110756500D01*
X149340253Y-110756500D01*
X150379747Y-110756500D01*
X150379748Y-110756500D01*
X150438231Y-110744867D01*
X150504552Y-110700552D01*
X150548867Y-110634231D01*
X150560500Y-110575748D01*
X150560500Y-107386252D01*
X150548867Y-107327769D01*
X150504552Y-107261448D01*
X150504006Y-107261083D01*
X150438233Y-107217134D01*
X150438231Y-107217133D01*
X150438228Y-107217132D01*
X150438227Y-107217132D01*
X150379758Y-107205501D01*
X150379748Y-107205500D01*
X149340252Y-107205500D01*
X149340251Y-107205500D01*
X149340241Y-107205501D01*
X149281772Y-107217132D01*
X149281766Y-107217134D01*
X149215451Y-107261445D01*
X149215445Y-107261451D01*
X149171134Y-107327766D01*
X149171132Y-107327772D01*
X149159501Y-107386241D01*
X149159500Y-107386253D01*
X149159500Y-108581500D01*
X149140593Y-108639691D01*
X149091093Y-108675655D01*
X149060500Y-108680500D01*
X147760435Y-108680500D01*
X147684012Y-108700978D01*
X147631367Y-108731373D01*
X147631366Y-108731372D01*
X147615491Y-108740538D01*
X147066525Y-109289504D01*
X147012008Y-109317281D01*
X146996521Y-109318500D01*
X146528510Y-109318500D01*
X146428874Y-109334281D01*
X146428867Y-109334283D01*
X146308782Y-109395470D01*
X146308780Y-109395472D01*
X146213472Y-109490780D01*
X146152281Y-109610874D01*
X146152280Y-109610875D01*
X146150462Y-109614445D01*
X146107197Y-109657710D01*
X146062252Y-109668500D01*
X145529748Y-109668500D01*
X145471557Y-109649593D01*
X145441538Y-109614445D01*
X145439719Y-109610875D01*
X145439719Y-109610874D01*
X145378528Y-109490780D01*
X145283220Y-109395472D01*
X145283217Y-109395470D01*
X145163132Y-109334283D01*
X145163127Y-109334281D01*
X145163126Y-109334281D01*
X145129913Y-109329020D01*
X145063490Y-109318500D01*
X145063488Y-109318500D01*
X144496512Y-109318500D01*
X144496510Y-109318500D01*
X144396874Y-109334281D01*
X144396867Y-109334283D01*
X144276782Y-109395470D01*
X144181470Y-109490782D01*
X144120283Y-109610867D01*
X144120281Y-109610874D01*
X144104500Y-109710510D01*
X144104500Y-109963661D01*
X144085593Y-110021852D01*
X144036093Y-110057816D01*
X143974907Y-110057816D01*
X143930680Y-110028492D01*
X143924926Y-110021852D01*
X143879746Y-109969710D01*
X143879745Y-109969709D01*
X143879744Y-109969708D01*
X143758675Y-109891902D01*
X143758672Y-109891900D01*
X143758671Y-109891900D01*
X143757779Y-109891638D01*
X143620582Y-109851353D01*
X143620579Y-109851353D01*
X143476657Y-109851353D01*
X143476653Y-109851353D01*
X143338567Y-109891899D01*
X143338565Y-109891900D01*
X143262434Y-109940826D01*
X143203258Y-109956379D01*
X143183144Y-109948547D01*
X143179961Y-110004229D01*
X143162526Y-110033141D01*
X143123241Y-110078479D01*
X143063452Y-110209396D01*
X143042971Y-110351850D01*
X143042971Y-110351855D01*
X143058570Y-110460352D01*
X143048137Y-110520641D01*
X143030582Y-110544445D01*
X141749108Y-111825920D01*
X141694591Y-111853697D01*
X141634159Y-111844126D01*
X141604671Y-111821191D01*
X141582579Y-111796000D01*
X139107420Y-111796000D01*
X138616983Y-111796000D01*
X138661165Y-111699257D01*
X138678604Y-111577963D01*
X138681647Y-111556802D01*
X138681647Y-111556797D01*
X138661165Y-111414343D01*
X138630181Y-111346499D01*
X138601377Y-111283427D01*
X138507128Y-111174657D01*
X138507127Y-111174656D01*
X138507126Y-111174655D01*
X138386057Y-111096849D01*
X138386054Y-111096847D01*
X138386053Y-111096847D01*
X138386050Y-111096846D01*
X138247964Y-111056300D01*
X138247961Y-111056300D01*
X138192361Y-111056300D01*
X138134170Y-111037393D01*
X138098206Y-110987893D01*
X138094369Y-110943211D01*
X138097447Y-110921802D01*
X138097447Y-110921797D01*
X138076965Y-110779343D01*
X138057399Y-110736500D01*
X138017177Y-110648427D01*
X137922928Y-110539657D01*
X137922927Y-110539656D01*
X137922926Y-110539655D01*
X137801857Y-110461849D01*
X137801854Y-110461847D01*
X137801853Y-110461847D01*
X137801850Y-110461846D01*
X137663764Y-110421300D01*
X137663761Y-110421300D01*
X137557279Y-110421300D01*
X137499088Y-110402393D01*
X137487275Y-110392304D01*
X136208337Y-109113366D01*
X136180560Y-109058849D01*
X136190131Y-108998417D01*
X136233396Y-108955152D01*
X136250441Y-108948375D01*
X136354053Y-108917953D01*
X136475128Y-108840143D01*
X136569377Y-108731373D01*
X136610741Y-108640798D01*
X136652113Y-108595722D01*
X136712079Y-108583571D01*
X136754315Y-108598641D01*
X136829369Y-108646875D01*
X136920922Y-108673757D01*
X136967457Y-108687421D01*
X136967458Y-108687421D01*
X136967461Y-108687422D01*
X136967463Y-108687422D01*
X137111381Y-108687422D01*
X137111383Y-108687422D01*
X137249475Y-108646875D01*
X137370550Y-108569065D01*
X137464799Y-108460295D01*
X137524587Y-108329379D01*
X137535903Y-108250677D01*
X137545069Y-108186924D01*
X137545069Y-108186919D01*
X137524587Y-108044465D01*
X137491930Y-107972957D01*
X137464799Y-107913549D01*
X137370550Y-107804779D01*
X137370549Y-107804778D01*
X137370548Y-107804777D01*
X137249479Y-107726971D01*
X137249476Y-107726969D01*
X137249475Y-107726969D01*
X137249472Y-107726968D01*
X137111386Y-107686422D01*
X137111383Y-107686422D01*
X137003951Y-107686422D01*
X136945765Y-107667518D01*
X136798100Y-107560247D01*
X136638416Y-107478895D01*
X136638415Y-107478894D01*
X136638414Y-107478894D01*
X136536946Y-107445931D01*
X136467966Y-107423522D01*
X136290959Y-107395496D01*
X136201352Y-107395500D01*
X135522979Y-107395500D01*
X135464788Y-107376593D01*
X135452977Y-107366505D01*
X135430266Y-107343795D01*
X135430265Y-107343794D01*
X135327491Y-107298415D01*
X135327490Y-107298414D01*
X135327488Y-107298414D01*
X135302368Y-107295500D01*
X133937639Y-107295500D01*
X133937636Y-107295501D01*
X133912509Y-107298414D01*
X133809735Y-107343794D01*
X133730293Y-107423236D01*
X133682816Y-107530761D01*
X133642015Y-107576356D01*
X133582207Y-107589261D01*
X133526235Y-107564547D01*
X133522248Y-107560776D01*
X133425496Y-107464024D01*
X133397719Y-107409507D01*
X133396500Y-107394020D01*
X133396500Y-105651007D01*
X133415407Y-105592816D01*
X133464907Y-105556852D01*
X133480012Y-105553226D01*
X133496304Y-105550646D01*
X133609342Y-105493050D01*
X133699050Y-105403342D01*
X133756646Y-105290304D01*
X133771500Y-105196519D01*
X133771499Y-104733482D01*
X133771498Y-104733478D01*
X133768800Y-104716441D01*
X133767380Y-104707474D01*
X133776951Y-104647044D01*
X133820215Y-104603779D01*
X133880647Y-104594207D01*
X133894985Y-104598529D01*
X133895153Y-104597958D01*
X133901946Y-104599952D01*
X133901947Y-104599953D01*
X133955542Y-104615689D01*
X134040035Y-104640499D01*
X134040036Y-104640499D01*
X134040039Y-104640500D01*
X134040041Y-104640500D01*
X134099500Y-104640500D01*
X134157691Y-104659407D01*
X134193655Y-104708907D01*
X134198500Y-104739500D01*
X134198500Y-105196520D01*
X134198501Y-105196523D01*
X134213352Y-105290299D01*
X134213353Y-105290304D01*
X134226057Y-105315235D01*
X134235629Y-105375667D01*
X134207852Y-105430184D01*
X134165744Y-105455169D01*
X134155954Y-105458043D01*
X134155942Y-105458049D01*
X134034873Y-105535855D01*
X133940622Y-105644628D01*
X133880834Y-105775543D01*
X133860353Y-105917997D01*
X133860353Y-105918002D01*
X133880834Y-106060456D01*
X133931776Y-106172002D01*
X133940623Y-106191373D01*
X134032891Y-106297857D01*
X134034873Y-106300144D01*
X134152581Y-106375790D01*
X134155947Y-106377953D01*
X134253603Y-106406627D01*
X134294035Y-106418499D01*
X134294036Y-106418499D01*
X134294039Y-106418500D01*
X134294041Y-106418500D01*
X134437959Y-106418500D01*
X134437961Y-106418500D01*
X134576053Y-106377953D01*
X134697128Y-106300143D01*
X134791377Y-106191373D01*
X134851165Y-106060457D01*
X134864816Y-105965511D01*
X134871647Y-105918002D01*
X134871647Y-105918000D01*
X134870629Y-105910918D01*
X134868558Y-105896517D01*
X134878990Y-105836230D01*
X134896537Y-105812435D01*
X134898954Y-105810018D01*
X134898989Y-105810000D01*
X134929171Y-105779814D01*
X134929172Y-105779815D01*
X134975785Y-105733197D01*
X135053280Y-105626526D01*
X135056829Y-105619559D01*
X135100091Y-105576292D01*
X135145042Y-105565499D01*
X135180521Y-105565499D01*
X135180522Y-105565498D01*
X135227411Y-105558072D01*
X135274299Y-105550647D01*
X135274301Y-105550647D01*
X135274302Y-105550646D01*
X135274304Y-105550646D01*
X135325360Y-105524631D01*
X135385788Y-105515060D01*
X135440305Y-105542836D01*
X135468084Y-105597352D01*
X135460357Y-105653967D01*
X135404833Y-105775545D01*
X135384353Y-105917997D01*
X135384353Y-105918002D01*
X135404834Y-106060456D01*
X135455776Y-106172002D01*
X135464623Y-106191373D01*
X135556891Y-106297857D01*
X135558873Y-106300144D01*
X135676581Y-106375790D01*
X135679947Y-106377953D01*
X135777603Y-106406627D01*
X135818035Y-106418499D01*
X135818036Y-106418499D01*
X135818039Y-106418500D01*
X135818041Y-106418500D01*
X135961959Y-106418500D01*
X135961961Y-106418500D01*
X136100053Y-106377953D01*
X136221128Y-106300143D01*
X136315377Y-106191373D01*
X136375165Y-106060457D01*
X136388816Y-105965511D01*
X136395647Y-105918002D01*
X136395647Y-105917998D01*
X136392558Y-105896516D01*
X136402991Y-105836227D01*
X136420547Y-105812422D01*
X136638475Y-105594495D01*
X136692991Y-105566718D01*
X136708478Y-105565499D01*
X136870712Y-105565499D01*
X136928903Y-105584406D01*
X136964867Y-105633906D01*
X136964867Y-105695092D01*
X136960765Y-105705626D01*
X136928834Y-105775543D01*
X136908353Y-105917997D01*
X136908353Y-105918002D01*
X136928834Y-106060456D01*
X136979776Y-106172002D01*
X136988623Y-106191373D01*
X137080891Y-106297857D01*
X137082873Y-106300144D01*
X137200581Y-106375790D01*
X137203947Y-106377953D01*
X137301603Y-106406627D01*
X137342035Y-106418499D01*
X137342036Y-106418499D01*
X137342039Y-106418500D01*
X137342041Y-106418500D01*
X137485959Y-106418500D01*
X137485961Y-106418500D01*
X137624053Y-106377953D01*
X137745128Y-106300143D01*
X137839377Y-106191373D01*
X137899165Y-106060457D01*
X137912816Y-105965511D01*
X137919647Y-105918002D01*
X137919647Y-105917998D01*
X137919093Y-105914147D01*
X137919647Y-105910944D01*
X137919647Y-105910918D01*
X137919652Y-105910918D01*
X137929522Y-105853858D01*
X137949349Y-105827851D01*
X137974309Y-105804439D01*
X138029680Y-105778421D01*
X138089776Y-105789919D01*
X138131636Y-105834544D01*
X138137661Y-105851022D01*
X138149978Y-105896986D01*
X138149979Y-105896990D01*
X138174391Y-105939273D01*
X138188993Y-105964564D01*
X138189540Y-105965511D01*
X138837963Y-106613934D01*
X139481275Y-107257246D01*
X139509052Y-107311763D01*
X139499481Y-107372195D01*
X139481276Y-107397252D01*
X139455295Y-107423233D01*
X139455294Y-107423234D01*
X139455294Y-107423235D01*
X139437284Y-107464024D01*
X139409914Y-107526011D01*
X139407000Y-107551130D01*
X139407000Y-107840859D01*
X139407001Y-107840864D01*
X139409914Y-107865990D01*
X139421281Y-107891733D01*
X139442352Y-107939455D01*
X139459000Y-107977157D01*
X139456626Y-107978205D01*
X139470037Y-108023757D01*
X139456977Y-108063949D01*
X139459000Y-108064843D01*
X139455294Y-108073234D01*
X139455294Y-108073235D01*
X139424615Y-108142717D01*
X139409914Y-108176011D01*
X139407000Y-108201130D01*
X139407000Y-108490859D01*
X139407001Y-108490864D01*
X139409914Y-108515990D01*
X139426536Y-108553634D01*
X139453585Y-108614895D01*
X139459000Y-108627157D01*
X139456626Y-108628205D01*
X139470037Y-108673757D01*
X139456977Y-108713949D01*
X139459000Y-108714843D01*
X139455294Y-108723234D01*
X139455294Y-108723235D01*
X139418118Y-108807430D01*
X139409914Y-108826011D01*
X139407000Y-108851130D01*
X139407000Y-109140859D01*
X139407001Y-109140864D01*
X139409914Y-109165990D01*
X139430450Y-109212499D01*
X139454724Y-109267475D01*
X139459000Y-109277157D01*
X139456624Y-109278205D01*
X139470037Y-109323744D01*
X139452758Y-109376935D01*
X139451474Y-109378810D01*
X139402995Y-109416140D01*
X139390805Y-109419618D01*
X139262183Y-109447556D01*
X139092806Y-109510687D01*
X139092801Y-109510690D01*
X138934144Y-109597292D01*
X138934142Y-109597293D01*
X138789427Y-109705607D01*
X138788521Y-109706514D01*
X138788181Y-109706686D01*
X138786756Y-109707922D01*
X138786450Y-109707568D01*
X138734001Y-109734283D01*
X138718528Y-109735500D01*
X138612035Y-109735500D01*
X138473949Y-109776046D01*
X138473942Y-109776049D01*
X138352873Y-109853855D01*
X138258622Y-109962628D01*
X138198834Y-110093543D01*
X138178353Y-110235997D01*
X138178353Y-110236002D01*
X138198834Y-110378456D01*
X138258600Y-110509323D01*
X138258623Y-110509373D01*
X138340374Y-110603719D01*
X138352873Y-110618144D01*
X138473942Y-110695950D01*
X138473947Y-110695953D01*
X138562418Y-110721930D01*
X138612035Y-110736499D01*
X138612036Y-110736499D01*
X138612039Y-110736500D01*
X138612041Y-110736500D01*
X138755959Y-110736500D01*
X138755961Y-110736500D01*
X138894053Y-110695953D01*
X139015128Y-110618143D01*
X139109377Y-110509373D01*
X139150762Y-110418752D01*
X139192132Y-110373677D01*
X139252099Y-110361526D01*
X139307755Y-110386943D01*
X139326550Y-110410380D01*
X139358658Y-110465991D01*
X139367041Y-110480511D01*
X139422990Y-110536460D01*
X139422995Y-110536463D01*
X139428139Y-110540410D01*
X139427352Y-110541434D01*
X139452643Y-110564895D01*
X139452866Y-110565222D01*
X139470031Y-110623950D01*
X139456989Y-110663955D01*
X139459000Y-110664843D01*
X139455294Y-110673234D01*
X139455294Y-110673235D01*
X139422866Y-110746677D01*
X139409914Y-110776011D01*
X139407000Y-110801130D01*
X139407000Y-110911393D01*
X139388093Y-110969584D01*
X139368268Y-110989934D01*
X139273876Y-111062364D01*
X139273868Y-111062372D01*
X139176413Y-111189376D01*
X139176411Y-111189380D01*
X139115150Y-111337279D01*
X139107419Y-111396000D01*
X141582580Y-111396000D01*
X141582580Y-111395999D01*
X141574849Y-111337280D01*
X141513588Y-111189380D01*
X141513586Y-111189376D01*
X141416131Y-111062372D01*
X141416123Y-111062364D01*
X141321731Y-110989933D01*
X141287076Y-110939509D01*
X141282999Y-110911392D01*
X141282999Y-110801139D01*
X141282999Y-110801136D01*
X141280085Y-110776009D01*
X141246297Y-110699488D01*
X141240089Y-110638620D01*
X141270844Y-110585727D01*
X141326816Y-110561012D01*
X141333230Y-110560567D01*
X141549254Y-110552669D01*
X141608095Y-110569438D01*
X141627690Y-110586773D01*
X141654871Y-110618142D01*
X141654872Y-110618143D01*
X141765065Y-110688960D01*
X141775947Y-110695953D01*
X141864418Y-110721930D01*
X141914035Y-110736499D01*
X141914036Y-110736499D01*
X141914039Y-110736500D01*
X141914041Y-110736500D01*
X142057959Y-110736500D01*
X142057961Y-110736500D01*
X142196053Y-110695953D01*
X142317128Y-110618143D01*
X142411377Y-110509373D01*
X142471165Y-110378457D01*
X142486290Y-110273260D01*
X142491647Y-110236002D01*
X142491647Y-110235997D01*
X142472438Y-110102396D01*
X142471165Y-110093543D01*
X142466708Y-110083783D01*
X142459733Y-110022997D01*
X142489819Y-109969719D01*
X142545475Y-109944301D01*
X142584648Y-109947665D01*
X142676039Y-109974500D01*
X142676041Y-109974500D01*
X142819959Y-109974500D01*
X142819961Y-109974500D01*
X142958053Y-109933953D01*
X143034184Y-109885026D01*
X143093357Y-109869472D01*
X143113472Y-109877303D01*
X143116657Y-109821622D01*
X143134088Y-109792714D01*
X143173377Y-109747373D01*
X143233165Y-109616457D01*
X143241356Y-109559486D01*
X143253647Y-109474002D01*
X143253647Y-109473997D01*
X143233165Y-109331543D01*
X143228350Y-109321000D01*
X143173377Y-109200627D01*
X143079128Y-109091857D01*
X143079127Y-109091856D01*
X143079126Y-109091855D01*
X142958057Y-109014049D01*
X142958054Y-109014047D01*
X142958053Y-109014047D01*
X142958050Y-109014046D01*
X142819964Y-108973500D01*
X142819961Y-108973500D01*
X142676039Y-108973500D01*
X142676035Y-108973500D01*
X142537949Y-109014046D01*
X142537942Y-109014049D01*
X142416873Y-109091855D01*
X142322622Y-109200628D01*
X142262834Y-109331543D01*
X142242353Y-109473997D01*
X142242353Y-109474002D01*
X142262834Y-109616456D01*
X142267292Y-109626218D01*
X142274266Y-109687005D01*
X142244178Y-109740281D01*
X142188522Y-109765698D01*
X142149347Y-109762333D01*
X142057964Y-109735500D01*
X142057961Y-109735500D01*
X141914039Y-109735500D01*
X141914035Y-109735500D01*
X141775949Y-109776046D01*
X141775942Y-109776049D01*
X141654871Y-109853856D01*
X141654870Y-109853858D01*
X141599345Y-109917936D01*
X141546949Y-109949531D01*
X141528145Y-109952038D01*
X141440797Y-109955232D01*
X141381954Y-109938464D01*
X141344205Y-109890311D01*
X141341969Y-109829166D01*
X141367173Y-109786296D01*
X142695473Y-108457997D01*
X143258353Y-108457997D01*
X143258353Y-108458002D01*
X143278834Y-108600456D01*
X143335318Y-108724137D01*
X143338623Y-108731373D01*
X143418488Y-108823543D01*
X143432873Y-108840144D01*
X143512578Y-108891367D01*
X143553947Y-108917953D01*
X143657546Y-108948372D01*
X143692035Y-108958499D01*
X143692036Y-108958499D01*
X143692039Y-108958500D01*
X143692041Y-108958500D01*
X143835959Y-108958500D01*
X143835961Y-108958500D01*
X143974053Y-108917953D01*
X144095128Y-108840143D01*
X144189377Y-108731373D01*
X144249165Y-108600457D01*
X144261309Y-108515991D01*
X144269647Y-108458002D01*
X144269647Y-108457997D01*
X144249165Y-108315543D01*
X144234418Y-108283252D01*
X144189377Y-108184627D01*
X144095128Y-108075857D01*
X144095127Y-108075856D01*
X144095126Y-108075855D01*
X143974057Y-107998049D01*
X143974054Y-107998047D01*
X143974053Y-107998047D01*
X143974050Y-107998046D01*
X143835964Y-107957500D01*
X143835961Y-107957500D01*
X143692039Y-107957500D01*
X143692035Y-107957500D01*
X143553949Y-107998046D01*
X143553942Y-107998049D01*
X143432873Y-108075855D01*
X143338622Y-108184628D01*
X143278834Y-108315543D01*
X143258353Y-108457997D01*
X142695473Y-108457997D01*
X144004460Y-107149010D01*
X144011508Y-107136803D01*
X144014520Y-107131587D01*
X144037137Y-107092411D01*
X144044021Y-107080488D01*
X144064500Y-107004061D01*
X144064500Y-105651007D01*
X144083407Y-105592816D01*
X144132907Y-105556852D01*
X144148012Y-105553226D01*
X144164304Y-105550646D01*
X144277342Y-105493050D01*
X144367050Y-105403342D01*
X144424646Y-105290304D01*
X144439500Y-105196519D01*
X144439499Y-104733482D01*
X144439498Y-104733478D01*
X144439498Y-104733476D01*
X144424647Y-104639700D01*
X144424646Y-104639698D01*
X144424646Y-104639696D01*
X144367050Y-104526658D01*
X144277342Y-104436950D01*
X144164304Y-104379354D01*
X144164305Y-104379354D01*
X144070522Y-104364500D01*
X143457479Y-104364500D01*
X143457476Y-104364501D01*
X143363700Y-104379352D01*
X143363695Y-104379354D01*
X143250659Y-104436949D01*
X143160949Y-104526659D01*
X143103354Y-104639695D01*
X143088500Y-104733477D01*
X143088500Y-105196520D01*
X143088501Y-105196523D01*
X143103352Y-105290299D01*
X143103354Y-105290304D01*
X143160950Y-105403342D01*
X143250658Y-105493050D01*
X143250660Y-105493051D01*
X143256168Y-105498559D01*
X143255052Y-105499674D01*
X143285737Y-105541906D01*
X143285738Y-105603091D01*
X143249775Y-105652592D01*
X143191585Y-105671500D01*
X143184039Y-105671500D01*
X143184037Y-105671500D01*
X143184033Y-105671501D01*
X143117773Y-105690956D01*
X143056613Y-105689208D01*
X143008161Y-105651845D01*
X142991891Y-105610054D01*
X142979165Y-105521544D01*
X142974455Y-105511229D01*
X142919377Y-105390627D01*
X142825128Y-105281857D01*
X142825127Y-105281856D01*
X142825126Y-105281855D01*
X142706976Y-105205925D01*
X142668244Y-105158559D01*
X142661499Y-105122641D01*
X142661499Y-104733478D01*
X142661498Y-104733476D01*
X142646647Y-104639700D01*
X142646646Y-104639698D01*
X142646646Y-104639696D01*
X142589050Y-104526658D01*
X142499342Y-104436950D01*
X142386304Y-104379354D01*
X142386305Y-104379354D01*
X142292522Y-104364500D01*
X141679479Y-104364500D01*
X141679476Y-104364501D01*
X141585700Y-104379352D01*
X141585695Y-104379354D01*
X141472659Y-104436949D01*
X141382949Y-104526659D01*
X141325354Y-104639695D01*
X141310500Y-104733477D01*
X141310500Y-105196520D01*
X141310501Y-105196523D01*
X141325352Y-105290299D01*
X141325354Y-105290304D01*
X141382950Y-105403342D01*
X141472658Y-105493050D01*
X141585696Y-105550646D01*
X141601986Y-105553226D01*
X141656503Y-105581003D01*
X141684281Y-105635519D01*
X141685500Y-105651007D01*
X141685500Y-105778521D01*
X141666593Y-105836712D01*
X141617093Y-105872676D01*
X141555907Y-105872676D01*
X141516496Y-105848525D01*
X140912495Y-105244524D01*
X140884718Y-105190007D01*
X140883499Y-105174532D01*
X140883499Y-104733482D01*
X140883498Y-104733478D01*
X140883498Y-104733476D01*
X140868647Y-104639700D01*
X140868646Y-104639698D01*
X140868646Y-104639696D01*
X140811050Y-104526658D01*
X140721342Y-104436950D01*
X140608304Y-104379354D01*
X140608305Y-104379354D01*
X140514522Y-104364500D01*
X140514519Y-104364500D01*
X140136479Y-104364500D01*
X140078288Y-104345593D01*
X140066475Y-104335504D01*
X139976546Y-104245575D01*
X139948769Y-104191058D01*
X139948558Y-104161482D01*
X139951647Y-104140000D01*
X139951647Y-104139998D01*
X139935629Y-104028588D01*
X139946062Y-103968299D01*
X139989940Y-103925656D01*
X140033617Y-103915499D01*
X140514518Y-103915499D01*
X140514521Y-103915499D01*
X140514522Y-103915498D01*
X140561411Y-103908072D01*
X140608299Y-103900647D01*
X140608299Y-103900646D01*
X140608304Y-103900646D01*
X140721342Y-103843050D01*
X140811050Y-103753342D01*
X140868646Y-103640304D01*
X140883500Y-103546519D01*
X140883499Y-103083482D01*
X140869622Y-102995857D01*
X140868647Y-102989700D01*
X140868646Y-102989697D01*
X140868646Y-102989696D01*
X140836971Y-102927532D01*
X140827401Y-102867101D01*
X140855178Y-102812585D01*
X140909695Y-102784807D01*
X140970127Y-102794378D01*
X140978705Y-102799304D01*
X141013947Y-102821953D01*
X141120403Y-102853211D01*
X141152035Y-102862499D01*
X141152036Y-102862499D01*
X141152039Y-102862500D01*
X141152041Y-102862500D01*
X141230421Y-102862500D01*
X141288612Y-102881407D01*
X141324576Y-102930907D01*
X141324576Y-102981683D01*
X141326573Y-102982000D01*
X141310500Y-103083477D01*
X141310500Y-103546520D01*
X141310501Y-103546523D01*
X141325352Y-103640299D01*
X141325354Y-103640304D01*
X141382950Y-103753342D01*
X141472658Y-103843050D01*
X141585696Y-103900646D01*
X141679481Y-103915500D01*
X142292518Y-103915499D01*
X142292520Y-103915499D01*
X142292521Y-103915498D01*
X142339411Y-103908072D01*
X142386299Y-103900647D01*
X142386299Y-103900646D01*
X142386304Y-103900646D01*
X142499342Y-103843050D01*
X142589050Y-103753342D01*
X142646646Y-103640304D01*
X142661500Y-103546519D01*
X142661499Y-103083482D01*
X142661498Y-103083477D01*
X143088500Y-103083477D01*
X143088500Y-103546520D01*
X143088501Y-103546523D01*
X143103352Y-103640299D01*
X143103354Y-103640304D01*
X143160950Y-103753342D01*
X143250658Y-103843050D01*
X143363696Y-103900646D01*
X143457481Y-103915500D01*
X144070518Y-103915499D01*
X144070520Y-103915499D01*
X144070521Y-103915498D01*
X144117411Y-103908072D01*
X144164299Y-103900647D01*
X144164299Y-103900646D01*
X144164304Y-103900646D01*
X144277342Y-103843050D01*
X144367050Y-103753342D01*
X144424646Y-103640304D01*
X144424647Y-103640295D01*
X144424928Y-103639434D01*
X144425469Y-103638688D01*
X144428184Y-103633361D01*
X144429027Y-103633790D01*
X144460889Y-103589931D01*
X144469571Y-103584292D01*
X144519511Y-103555460D01*
X144575460Y-103499511D01*
X144675473Y-103399496D01*
X144729989Y-103371719D01*
X144745477Y-103370500D01*
X144851959Y-103370500D01*
X144851961Y-103370500D01*
X144990053Y-103329953D01*
X145111128Y-103252143D01*
X145205377Y-103143373D01*
X145265165Y-103012457D01*
X145285647Y-102870000D01*
X145285606Y-102869718D01*
X145265165Y-102727543D01*
X145259208Y-102714500D01*
X145205377Y-102596627D01*
X145111128Y-102487857D01*
X145111127Y-102487856D01*
X145111126Y-102487855D01*
X144990057Y-102410049D01*
X144990054Y-102410047D01*
X144990053Y-102410047D01*
X144990050Y-102410046D01*
X144851964Y-102369500D01*
X144851961Y-102369500D01*
X144708039Y-102369500D01*
X144708035Y-102369500D01*
X144569949Y-102410046D01*
X144569942Y-102410049D01*
X144448873Y-102487855D01*
X144354622Y-102596628D01*
X144312450Y-102688970D01*
X144271078Y-102734047D01*
X144211111Y-102746198D01*
X144177453Y-102736053D01*
X144164305Y-102729354D01*
X144070522Y-102714500D01*
X143457479Y-102714500D01*
X143457476Y-102714501D01*
X143363700Y-102729352D01*
X143363695Y-102729354D01*
X143250659Y-102786949D01*
X143160949Y-102876659D01*
X143103354Y-102989695D01*
X143088500Y-103083477D01*
X142661498Y-103083477D01*
X142647622Y-102995857D01*
X142646647Y-102989700D01*
X142646646Y-102989697D01*
X142646646Y-102989696D01*
X142589050Y-102876658D01*
X142499342Y-102786950D01*
X142386304Y-102729354D01*
X142386306Y-102729354D01*
X142370010Y-102726773D01*
X142315494Y-102698993D01*
X142287718Y-102644476D01*
X142286500Y-102628992D01*
X142286500Y-102068437D01*
X142286499Y-102068435D01*
X142282896Y-102054990D01*
X142266021Y-101992011D01*
X142226460Y-101923489D01*
X142205017Y-101902046D01*
X142170511Y-101867539D01*
X142170511Y-101867540D01*
X142008546Y-101705575D01*
X141980769Y-101651058D01*
X141980558Y-101621482D01*
X141983647Y-101600000D01*
X141977195Y-101555128D01*
X141963165Y-101457544D01*
X141958708Y-101447783D01*
X141951733Y-101386997D01*
X141981819Y-101333719D01*
X142037475Y-101308301D01*
X142076648Y-101311665D01*
X142168039Y-101338500D01*
X142168041Y-101338500D01*
X142311959Y-101338500D01*
X142311961Y-101338500D01*
X142450053Y-101297953D01*
X142571128Y-101220143D01*
X142665377Y-101111373D01*
X142725165Y-100980457D01*
X142745647Y-100838000D01*
X142738122Y-100785665D01*
X142725165Y-100695543D01*
X142706199Y-100654014D01*
X142665377Y-100564627D01*
X142571128Y-100455857D01*
X142571127Y-100455856D01*
X142571126Y-100455855D01*
X142450057Y-100378049D01*
X142450054Y-100378047D01*
X142450053Y-100378047D01*
X142433580Y-100373210D01*
X142311964Y-100337500D01*
X142311961Y-100337500D01*
X142168039Y-100337500D01*
X142168035Y-100337500D01*
X142029949Y-100378046D01*
X142029942Y-100378049D01*
X141908873Y-100455855D01*
X141814622Y-100564628D01*
X141754834Y-100695543D01*
X141734353Y-100837997D01*
X141734353Y-100838002D01*
X141754834Y-100980456D01*
X141759292Y-100990218D01*
X141766266Y-101051005D01*
X141736178Y-101104281D01*
X141680522Y-101129698D01*
X141641347Y-101126333D01*
X141549964Y-101099500D01*
X141549961Y-101099500D01*
X141406039Y-101099500D01*
X141406035Y-101099500D01*
X141267949Y-101140046D01*
X141267942Y-101140049D01*
X141146873Y-101217855D01*
X141052622Y-101326628D01*
X140992834Y-101457543D01*
X140972353Y-101599997D01*
X140972353Y-101600002D01*
X140992834Y-101742456D01*
X141018334Y-101798292D01*
X141025309Y-101859079D01*
X140995223Y-101912356D01*
X140981805Y-101922703D01*
X140892872Y-101979857D01*
X140798622Y-102088628D01*
X140738834Y-102219543D01*
X140718353Y-102361997D01*
X140718353Y-102362002D01*
X140738834Y-102504456D01*
X140738834Y-102504458D01*
X140794356Y-102626032D01*
X140801331Y-102686818D01*
X140771245Y-102740095D01*
X140715588Y-102765513D01*
X140659357Y-102755367D01*
X140608304Y-102729354D01*
X140608305Y-102729354D01*
X140514522Y-102714500D01*
X140514519Y-102714500D01*
X140264479Y-102714500D01*
X140206288Y-102695593D01*
X140194475Y-102685504D01*
X139976546Y-102467575D01*
X139948769Y-102413058D01*
X139948558Y-102383482D01*
X139951647Y-102362000D01*
X139946902Y-102329000D01*
X139931165Y-102219543D01*
X139927100Y-102210643D01*
X139871377Y-102088627D01*
X139777128Y-101979857D01*
X139777127Y-101979856D01*
X139777126Y-101979855D01*
X139656057Y-101902049D01*
X139656054Y-101902047D01*
X139656053Y-101902047D01*
X139656050Y-101902046D01*
X139517964Y-101861500D01*
X139517961Y-101861500D01*
X139374039Y-101861500D01*
X139374035Y-101861500D01*
X139235949Y-101902046D01*
X139235942Y-101902049D01*
X139114873Y-101979855D01*
X139020622Y-102088628D01*
X138960834Y-102219543D01*
X138940353Y-102361997D01*
X138940353Y-102362002D01*
X138960834Y-102504456D01*
X138960834Y-102504458D01*
X139016356Y-102626032D01*
X139023331Y-102686818D01*
X138993245Y-102740095D01*
X138937588Y-102765513D01*
X138881357Y-102755367D01*
X138830304Y-102729354D01*
X138830305Y-102729354D01*
X138736522Y-102714500D01*
X138123479Y-102714500D01*
X138123476Y-102714501D01*
X138029700Y-102729352D01*
X138029695Y-102729354D01*
X137916659Y-102786949D01*
X137826949Y-102876659D01*
X137769354Y-102989695D01*
X137754500Y-103083477D01*
X137754501Y-103540500D01*
X137735594Y-103598691D01*
X137686094Y-103634655D01*
X137655501Y-103639500D01*
X137596035Y-103639500D01*
X137451153Y-103682042D01*
X137450387Y-103679436D01*
X137401462Y-103685030D01*
X137348197Y-103654921D01*
X137322803Y-103599255D01*
X137323380Y-103572526D01*
X137327500Y-103546519D01*
X137327499Y-103083482D01*
X137313622Y-102995857D01*
X137312647Y-102989700D01*
X137312646Y-102989697D01*
X137312646Y-102989696D01*
X137255050Y-102876658D01*
X137165342Y-102786950D01*
X137052304Y-102729354D01*
X137052305Y-102729354D01*
X136958522Y-102714500D01*
X136345479Y-102714500D01*
X136345476Y-102714501D01*
X136251700Y-102729352D01*
X136251695Y-102729354D01*
X136138659Y-102786949D01*
X136048949Y-102876659D01*
X135991354Y-102989695D01*
X135976500Y-103083477D01*
X135976501Y-103540500D01*
X135957594Y-103598691D01*
X135908094Y-103634655D01*
X135877501Y-103639500D01*
X135818035Y-103639500D01*
X135673153Y-103682042D01*
X135672387Y-103679436D01*
X135623462Y-103685030D01*
X135570197Y-103654921D01*
X135544803Y-103599255D01*
X135545380Y-103572526D01*
X135549500Y-103546519D01*
X135549499Y-103083482D01*
X135535622Y-102995857D01*
X135534647Y-102989700D01*
X135534646Y-102989697D01*
X135534646Y-102989696D01*
X135477050Y-102876658D01*
X135387342Y-102786950D01*
X135274304Y-102729354D01*
X135274305Y-102729354D01*
X135180522Y-102714500D01*
X134567479Y-102714500D01*
X134567476Y-102714501D01*
X134473700Y-102729352D01*
X134473695Y-102729354D01*
X134360659Y-102786949D01*
X134270949Y-102876659D01*
X134213354Y-102989695D01*
X134198500Y-103083477D01*
X134198501Y-103540500D01*
X134179594Y-103598691D01*
X134130094Y-103634655D01*
X134099501Y-103639500D01*
X134040035Y-103639500D01*
X133895153Y-103682042D01*
X133894387Y-103679436D01*
X133845462Y-103685030D01*
X133792197Y-103654921D01*
X133766803Y-103599255D01*
X133767380Y-103572526D01*
X133771500Y-103546519D01*
X133771499Y-103083482D01*
X133757622Y-102995857D01*
X133756647Y-102989700D01*
X133756646Y-102989697D01*
X133756646Y-102989696D01*
X133699050Y-102876658D01*
X133609342Y-102786950D01*
X133496304Y-102729354D01*
X133496305Y-102729354D01*
X133402522Y-102714500D01*
X132789479Y-102714500D01*
X132789476Y-102714501D01*
X132695700Y-102729352D01*
X132695695Y-102729354D01*
X132582659Y-102786949D01*
X132492949Y-102876659D01*
X132435354Y-102989695D01*
X132420500Y-103083477D01*
X132420501Y-103487499D01*
X132401594Y-103545690D01*
X132352094Y-103581654D01*
X132321501Y-103586499D01*
X132283631Y-103586499D01*
X132145545Y-103627045D01*
X132145543Y-103627046D01*
X132107741Y-103651340D01*
X132048565Y-103666893D01*
X131991549Y-103644694D01*
X131958470Y-103593222D01*
X131955218Y-103567779D01*
X131955235Y-103561635D01*
X131955619Y-103424166D01*
X131956070Y-103415004D01*
X131959615Y-103378002D01*
X131982807Y-103135936D01*
X131983346Y-103131425D01*
X132002776Y-102995417D01*
X132003256Y-102992403D01*
X132057600Y-102683364D01*
X132058892Y-102677187D01*
X132132608Y-102373881D01*
X132134300Y-102367787D01*
X132227354Y-102069890D01*
X132229445Y-102063885D01*
X132232866Y-102054990D01*
X132341459Y-101772604D01*
X132343920Y-101766769D01*
X132475104Y-101481837D01*
X132476411Y-101479115D01*
X132497061Y-101437818D01*
X132497061Y-101437816D01*
X132656803Y-101118330D01*
X132699737Y-101074740D01*
X132717453Y-101067618D01*
X132798053Y-101043953D01*
X132919128Y-100966143D01*
X133013377Y-100857373D01*
X133022226Y-100837997D01*
X137416353Y-100837997D01*
X137416353Y-100838002D01*
X137436834Y-100980456D01*
X137479893Y-101074740D01*
X137496623Y-101111373D01*
X137588891Y-101217857D01*
X137590873Y-101220144D01*
X137632673Y-101247007D01*
X137711947Y-101297953D01*
X137805533Y-101325432D01*
X137850035Y-101338499D01*
X137850036Y-101338499D01*
X137850039Y-101338500D01*
X137850041Y-101338500D01*
X137993959Y-101338500D01*
X137993961Y-101338500D01*
X138132053Y-101297953D01*
X138253128Y-101220143D01*
X138347377Y-101111373D01*
X138407165Y-100980457D01*
X138427647Y-100838000D01*
X138420122Y-100785665D01*
X138407165Y-100695543D01*
X138388199Y-100654014D01*
X138347377Y-100564627D01*
X138253128Y-100455857D01*
X138253127Y-100455856D01*
X138253126Y-100455855D01*
X138132057Y-100378049D01*
X138132054Y-100378047D01*
X138132053Y-100378047D01*
X138115580Y-100373210D01*
X137993964Y-100337500D01*
X137993961Y-100337500D01*
X137850039Y-100337500D01*
X137850035Y-100337500D01*
X137711949Y-100378046D01*
X137711942Y-100378049D01*
X137590873Y-100455855D01*
X137496622Y-100564628D01*
X137436834Y-100695543D01*
X137416353Y-100837997D01*
X133022226Y-100837997D01*
X133073165Y-100726457D01*
X133083016Y-100657942D01*
X133093647Y-100584002D01*
X133093647Y-100583997D01*
X133073165Y-100441543D01*
X133049735Y-100390239D01*
X133013377Y-100310627D01*
X132919128Y-100201857D01*
X132919127Y-100201856D01*
X132919126Y-100201855D01*
X132798057Y-100124049D01*
X132791612Y-100121106D01*
X132792971Y-100118128D01*
X132753803Y-100091308D01*
X132733280Y-100033667D01*
X132750558Y-99974971D01*
X132794390Y-99939428D01*
X132892122Y-99898993D01*
X132902914Y-99895243D01*
X132905345Y-99894552D01*
X132905354Y-99894551D01*
X132961742Y-99870199D01*
X132962865Y-99869724D01*
X133019653Y-99846230D01*
X133019663Y-99846221D01*
X133021842Y-99844966D01*
X133032062Y-99839832D01*
X133479218Y-99646731D01*
X133540135Y-99641020D01*
X133592776Y-99672205D01*
X133617034Y-99728377D01*
X133616459Y-99751707D01*
X133611150Y-99788637D01*
X133606354Y-99821997D01*
X133606353Y-99822002D01*
X133626834Y-99964456D01*
X133686622Y-100095371D01*
X133686623Y-100095373D01*
X133778891Y-100201857D01*
X133780873Y-100204144D01*
X133881085Y-100268546D01*
X133901947Y-100281953D01*
X133999603Y-100310627D01*
X134040035Y-100322499D01*
X134040036Y-100322499D01*
X134040039Y-100322500D01*
X134040041Y-100322500D01*
X134183959Y-100322500D01*
X134183961Y-100322500D01*
X134322053Y-100281953D01*
X134443128Y-100204143D01*
X134537377Y-100095373D01*
X134597165Y-99964457D01*
X134607216Y-99894549D01*
X134617647Y-99822002D01*
X134617647Y-99821997D01*
X134597165Y-99679543D01*
X134593411Y-99671322D01*
X134537377Y-99548627D01*
X134443128Y-99439857D01*
X134399385Y-99411745D01*
X134360654Y-99364378D01*
X134357162Y-99303293D01*
X134390241Y-99251821D01*
X134412601Y-99238038D01*
X135259718Y-98860490D01*
X135320564Y-98854073D01*
X135373564Y-98884645D01*
X135398472Y-98940531D01*
X135398010Y-98965006D01*
X135384353Y-99059996D01*
X135384353Y-99060002D01*
X135404834Y-99202456D01*
X135464622Y-99333371D01*
X135464623Y-99333373D01*
X135529977Y-99408796D01*
X135558873Y-99442144D01*
X135678061Y-99518741D01*
X135679947Y-99519953D01*
X135777603Y-99548627D01*
X135818035Y-99560499D01*
X135818036Y-99560499D01*
X135818039Y-99560500D01*
X135818041Y-99560500D01*
X135961959Y-99560500D01*
X135961961Y-99560500D01*
X136100053Y-99519953D01*
X136221128Y-99442143D01*
X136315377Y-99333373D01*
X136375165Y-99202457D01*
X136387425Y-99117186D01*
X136395647Y-99060002D01*
X136395647Y-99059997D01*
X137416353Y-99059997D01*
X137416353Y-99060002D01*
X137436834Y-99202456D01*
X137496622Y-99333371D01*
X137496623Y-99333373D01*
X137561977Y-99408796D01*
X137590873Y-99442144D01*
X137710061Y-99518741D01*
X137711947Y-99519953D01*
X137809603Y-99548627D01*
X137850035Y-99560499D01*
X137850036Y-99560499D01*
X137850039Y-99560500D01*
X137850041Y-99560500D01*
X137993959Y-99560500D01*
X137993961Y-99560500D01*
X138132053Y-99519953D01*
X138253128Y-99442143D01*
X138347377Y-99333373D01*
X138407165Y-99202457D01*
X138419425Y-99117186D01*
X138427647Y-99060002D01*
X138427647Y-99059997D01*
X141226353Y-99059997D01*
X141226353Y-99060002D01*
X141246834Y-99202456D01*
X141306622Y-99333371D01*
X141306623Y-99333373D01*
X141371977Y-99408796D01*
X141400873Y-99442144D01*
X141520061Y-99518741D01*
X141521947Y-99519953D01*
X141619603Y-99548627D01*
X141660035Y-99560499D01*
X141660036Y-99560499D01*
X141660039Y-99560500D01*
X141660041Y-99560500D01*
X141803959Y-99560500D01*
X141803961Y-99560500D01*
X141942053Y-99519953D01*
X142063128Y-99442143D01*
X142157377Y-99333373D01*
X142166226Y-99313997D01*
X143004353Y-99313997D01*
X143004353Y-99314002D01*
X143024834Y-99456456D01*
X143084622Y-99587371D01*
X143084623Y-99587373D01*
X143157365Y-99671322D01*
X143178873Y-99696144D01*
X143284435Y-99763984D01*
X143299947Y-99773953D01*
X143406403Y-99805211D01*
X143438035Y-99814499D01*
X143438036Y-99814499D01*
X143438039Y-99814500D01*
X143438041Y-99814500D01*
X143581959Y-99814500D01*
X143581961Y-99814500D01*
X143720053Y-99773953D01*
X143841128Y-99696143D01*
X143935377Y-99587373D01*
X143995165Y-99456457D01*
X144015647Y-99314000D01*
X144014949Y-99309148D01*
X143995165Y-99171543D01*
X143944223Y-99059997D01*
X143935377Y-99040627D01*
X143841128Y-98931857D01*
X143841127Y-98931856D01*
X143841126Y-98931855D01*
X143720057Y-98854049D01*
X143720054Y-98854047D01*
X143720053Y-98854047D01*
X143720050Y-98854046D01*
X143581964Y-98813500D01*
X143581961Y-98813500D01*
X143438039Y-98813500D01*
X143438035Y-98813500D01*
X143299949Y-98854046D01*
X143299942Y-98854049D01*
X143178873Y-98931855D01*
X143084622Y-99040628D01*
X143024834Y-99171543D01*
X143004353Y-99313997D01*
X142166226Y-99313997D01*
X142217165Y-99202457D01*
X142229425Y-99117186D01*
X142237647Y-99060002D01*
X142237647Y-99059997D01*
X142217165Y-98917543D01*
X142202141Y-98884645D01*
X142157377Y-98786627D01*
X142063128Y-98677857D01*
X142063127Y-98677856D01*
X142063126Y-98677855D01*
X141942057Y-98600049D01*
X141942054Y-98600047D01*
X141942053Y-98600047D01*
X141942050Y-98600046D01*
X141803964Y-98559500D01*
X141803961Y-98559500D01*
X141660039Y-98559500D01*
X141660035Y-98559500D01*
X141521949Y-98600046D01*
X141521942Y-98600049D01*
X141400873Y-98677855D01*
X141306622Y-98786628D01*
X141246834Y-98917543D01*
X141226353Y-99059997D01*
X138427647Y-99059997D01*
X138407165Y-98917543D01*
X138392141Y-98884645D01*
X138347377Y-98786627D01*
X138253128Y-98677857D01*
X138253127Y-98677856D01*
X138253126Y-98677855D01*
X138132057Y-98600049D01*
X138132054Y-98600047D01*
X138132053Y-98600047D01*
X138132050Y-98600046D01*
X137993964Y-98559500D01*
X137993961Y-98559500D01*
X137850039Y-98559500D01*
X137850035Y-98559500D01*
X137711949Y-98600046D01*
X137711942Y-98600049D01*
X137590873Y-98677855D01*
X137496622Y-98786628D01*
X137436834Y-98917543D01*
X137416353Y-99059997D01*
X136395647Y-99059997D01*
X136375165Y-98917543D01*
X136360141Y-98884645D01*
X136315377Y-98786627D01*
X136221128Y-98677857D01*
X136149426Y-98631777D01*
X136110695Y-98584411D01*
X136107203Y-98523325D01*
X136140282Y-98471853D01*
X136162639Y-98458072D01*
X136307238Y-98393626D01*
X136311494Y-98392045D01*
X136315018Y-98390456D01*
X136315022Y-98390456D01*
X136374269Y-98363752D01*
X136433365Y-98337414D01*
X136433370Y-98337409D01*
X136436941Y-98335818D01*
X136440932Y-98333704D01*
X137083698Y-98043997D01*
X139194353Y-98043997D01*
X139194353Y-98044002D01*
X139214834Y-98186456D01*
X139262350Y-98290499D01*
X139274623Y-98317373D01*
X139351422Y-98406004D01*
X139368873Y-98426144D01*
X139489942Y-98503950D01*
X139489947Y-98503953D01*
X139555923Y-98523325D01*
X139628035Y-98544499D01*
X139628036Y-98544499D01*
X139628039Y-98544500D01*
X139628041Y-98544500D01*
X139771959Y-98544500D01*
X139771961Y-98544500D01*
X139910053Y-98503953D01*
X140031128Y-98426143D01*
X140125377Y-98317373D01*
X140185165Y-98186457D01*
X140205647Y-98044000D01*
X140205647Y-98043997D01*
X146052353Y-98043997D01*
X146052353Y-98044002D01*
X146072834Y-98186456D01*
X146120350Y-98290499D01*
X146132623Y-98317373D01*
X146209422Y-98406004D01*
X146226873Y-98426144D01*
X146347942Y-98503950D01*
X146347947Y-98503953D01*
X146413923Y-98523325D01*
X146486035Y-98544499D01*
X146486036Y-98544499D01*
X146486039Y-98544500D01*
X146486041Y-98544500D01*
X146629959Y-98544500D01*
X146629961Y-98544500D01*
X146768053Y-98503953D01*
X146889128Y-98426143D01*
X146983377Y-98317373D01*
X147043165Y-98186457D01*
X147063647Y-98044000D01*
X147047951Y-97934834D01*
X147043165Y-97901543D01*
X147028772Y-97870027D01*
X146983377Y-97770627D01*
X146889128Y-97661857D01*
X146889127Y-97661856D01*
X146889126Y-97661855D01*
X146768057Y-97584049D01*
X146768054Y-97584047D01*
X146768053Y-97584047D01*
X146768050Y-97584046D01*
X146629964Y-97543500D01*
X146629961Y-97543500D01*
X146486039Y-97543500D01*
X146486035Y-97543500D01*
X146347949Y-97584046D01*
X146347942Y-97584049D01*
X146226873Y-97661855D01*
X146132622Y-97770628D01*
X146072834Y-97901543D01*
X146052353Y-98043997D01*
X140205647Y-98043997D01*
X140189951Y-97934834D01*
X140185165Y-97901543D01*
X140170772Y-97870027D01*
X140125377Y-97770627D01*
X140031128Y-97661857D01*
X140031127Y-97661856D01*
X140031126Y-97661855D01*
X139910057Y-97584049D01*
X139910054Y-97584047D01*
X139910053Y-97584047D01*
X139910050Y-97584046D01*
X139771964Y-97543500D01*
X139771961Y-97543500D01*
X139628039Y-97543500D01*
X139628035Y-97543500D01*
X139489949Y-97584046D01*
X139489942Y-97584049D01*
X139368873Y-97661855D01*
X139274622Y-97770628D01*
X139214834Y-97901543D01*
X139194353Y-98043997D01*
X137083698Y-98043997D01*
X140464963Y-96519997D01*
X144782353Y-96519997D01*
X144782353Y-96520002D01*
X144802834Y-96662456D01*
X144822305Y-96705090D01*
X144862623Y-96793373D01*
X144894948Y-96830678D01*
X144956873Y-96902144D01*
X145077942Y-96979950D01*
X145077947Y-96979953D01*
X145184403Y-97011211D01*
X145216035Y-97020499D01*
X145216036Y-97020499D01*
X145216039Y-97020500D01*
X145216041Y-97020500D01*
X145359959Y-97020500D01*
X145359961Y-97020500D01*
X145498053Y-96979953D01*
X145619128Y-96902143D01*
X145713377Y-96793373D01*
X145773165Y-96662457D01*
X145793321Y-96522267D01*
X145793647Y-96520002D01*
X145793647Y-96519997D01*
X145773165Y-96377543D01*
X145756332Y-96340685D01*
X145713377Y-96246627D01*
X145619128Y-96137857D01*
X145619127Y-96137856D01*
X145619126Y-96137855D01*
X145498057Y-96060049D01*
X145498054Y-96060047D01*
X145498053Y-96060047D01*
X145493946Y-96058841D01*
X145359964Y-96019500D01*
X145359961Y-96019500D01*
X145216039Y-96019500D01*
X145216035Y-96019500D01*
X145077949Y-96060046D01*
X145077942Y-96060049D01*
X144956873Y-96137855D01*
X144862622Y-96246628D01*
X144802834Y-96377543D01*
X144782353Y-96519997D01*
X140464963Y-96519997D01*
X141025228Y-96267475D01*
X141040276Y-96262107D01*
X141057028Y-96257619D01*
X141057030Y-96257617D01*
X141057032Y-96257617D01*
X141085166Y-96241373D01*
X141094993Y-96236406D01*
X141991312Y-95844417D01*
X141992109Y-95844073D01*
X142536607Y-95613157D01*
X142597559Y-95607846D01*
X142649994Y-95639375D01*
X142673883Y-95695705D01*
X142665311Y-95745426D01*
X142652295Y-95773927D01*
X142631814Y-95916381D01*
X142631814Y-95916386D01*
X142652295Y-96058840D01*
X142687464Y-96135847D01*
X142712084Y-96189757D01*
X142806333Y-96298527D01*
X142806334Y-96298528D01*
X142905496Y-96362255D01*
X142927408Y-96376337D01*
X142993013Y-96395600D01*
X143065496Y-96416883D01*
X143065497Y-96416883D01*
X143065500Y-96416884D01*
X143065502Y-96416884D01*
X143209420Y-96416884D01*
X143209422Y-96416884D01*
X143347514Y-96376337D01*
X143468589Y-96298527D01*
X143562838Y-96189757D01*
X143622626Y-96058841D01*
X143643108Y-95916384D01*
X143638760Y-95886144D01*
X143622626Y-95773927D01*
X143609610Y-95745426D01*
X143562838Y-95643011D01*
X143468589Y-95534241D01*
X143468588Y-95534240D01*
X143468587Y-95534239D01*
X143341558Y-95452603D01*
X143342925Y-95450475D01*
X143306220Y-95416792D01*
X143294064Y-95356826D01*
X143319478Y-95301168D01*
X143355189Y-95276371D01*
X143469010Y-95230180D01*
X143470877Y-95229446D01*
X144052056Y-95007918D01*
X144054607Y-95006987D01*
X144551760Y-94833534D01*
X144555070Y-94832447D01*
X144983961Y-94700184D01*
X144988102Y-94699006D01*
X145365497Y-94600662D01*
X145370192Y-94599561D01*
X145668094Y-94537339D01*
X145688335Y-94535248D01*
X145692283Y-94535248D01*
X145692284Y-94535248D01*
X145728857Y-94525447D01*
X145737877Y-94523477D01*
X145881476Y-94499073D01*
X145884105Y-94498663D01*
X146042181Y-94476241D01*
X146045181Y-94475863D01*
X146197040Y-94459085D01*
X146200393Y-94458773D01*
X146345808Y-94447786D01*
X146349602Y-94447573D01*
X146488241Y-94442474D01*
X146492472Y-94442410D01*
X146624172Y-94443230D01*
X146628859Y-94443370D01*
X146753494Y-94450084D01*
X146758662Y-94450499D01*
X146876082Y-94463016D01*
X146881671Y-94463774D01*
X146992008Y-94481979D01*
X146997999Y-94483160D01*
X147101419Y-94506911D01*
X147107797Y-94508602D01*
X147157156Y-94523476D01*
X147204647Y-94537787D01*
X147211321Y-94540061D01*
X147265239Y-94560597D01*
X147302183Y-94574669D01*
X147309001Y-94577563D01*
X147394656Y-94617764D01*
X147401478Y-94621295D01*
X147482749Y-94667443D01*
X147489415Y-94671586D01*
X147567224Y-94724331D01*
X147573575Y-94729016D01*
X147641458Y-94783403D01*
X147649559Y-94790659D01*
X147672834Y-94813933D01*
X147677982Y-94817883D01*
X147677765Y-94818165D01*
X147687820Y-94825644D01*
X147727613Y-94863121D01*
X147732937Y-94868535D01*
X147764956Y-94903701D01*
X147805341Y-94948054D01*
X147809914Y-94953452D01*
X147858668Y-95015371D01*
X147881224Y-95044018D01*
X147885148Y-95049360D01*
X147954519Y-95150754D01*
X147957862Y-95155987D01*
X148024489Y-95267862D01*
X148027337Y-95272984D01*
X148073198Y-95361543D01*
X148090447Y-95394850D01*
X148092869Y-95399867D01*
X148151824Y-95531332D01*
X148153865Y-95536232D01*
X148208000Y-95676666D01*
X148209709Y-95681464D01*
X148258483Y-95830396D01*
X148259895Y-95835098D01*
X148302768Y-95991910D01*
X148303913Y-95996531D01*
X148340413Y-96160683D01*
X148341314Y-96165235D01*
X148370998Y-96336191D01*
X148371672Y-96340685D01*
X148394112Y-96517821D01*
X148394574Y-96522267D01*
X148409388Y-96705090D01*
X148409646Y-96709500D01*
X148416457Y-96897417D01*
X148416519Y-96901796D01*
X148415448Y-97035430D01*
X148414855Y-97043966D01*
X148414855Y-97096152D01*
X148414725Y-97101230D01*
X148404682Y-97296750D01*
X148404388Y-97300829D01*
X148385473Y-97504445D01*
X148385035Y-97508327D01*
X148357220Y-97717672D01*
X148356660Y-97721354D01*
X148319794Y-97936494D01*
X148319134Y-97939971D01*
X148273070Y-98161001D01*
X148272328Y-98164279D01*
X148216959Y-98391114D01*
X148216155Y-98394194D01*
X148151322Y-98627036D01*
X148150469Y-98629927D01*
X148076120Y-98868576D01*
X148075234Y-98871283D01*
X147991230Y-99115903D01*
X147990321Y-99118438D01*
X147896596Y-99368962D01*
X147895674Y-99371333D01*
X147792154Y-99627766D01*
X147791228Y-99629981D01*
X147677850Y-99892316D01*
X147676927Y-99894387D01*
X147553644Y-100162600D01*
X147552728Y-100164536D01*
X147419502Y-100438602D01*
X147418600Y-100440411D01*
X147275323Y-100720461D01*
X147274437Y-100722153D01*
X147123028Y-101004529D01*
X147121518Y-101007242D01*
X147091993Y-101058384D01*
X147088966Y-101064570D01*
X146783794Y-101601051D01*
X146782673Y-101602970D01*
X146421253Y-102206393D01*
X146420665Y-102207363D01*
X145728411Y-103333666D01*
X145722011Y-103342800D01*
X145689543Y-103396896D01*
X145689002Y-103397785D01*
X145655993Y-103451492D01*
X145650831Y-103461396D01*
X145393826Y-103889610D01*
X145386618Y-103898936D01*
X145387020Y-103899239D01*
X145383121Y-103904419D01*
X145354596Y-103954907D01*
X145353288Y-103957152D01*
X145323426Y-104006909D01*
X145320842Y-104012860D01*
X145320381Y-104012659D01*
X145315827Y-104023528D01*
X145100324Y-104404973D01*
X145092425Y-104415858D01*
X145092568Y-104415958D01*
X145088850Y-104421269D01*
X145063214Y-104470540D01*
X145061588Y-104473537D01*
X145034261Y-104521909D01*
X145031834Y-104527927D01*
X145031672Y-104527861D01*
X145026856Y-104540420D01*
X144970832Y-104648099D01*
X144963298Y-104659273D01*
X144963440Y-104659365D01*
X144959905Y-104664808D01*
X144936004Y-104714910D01*
X144934475Y-104717977D01*
X144908864Y-104767202D01*
X144906645Y-104773304D01*
X144906485Y-104773246D01*
X144902095Y-104785997D01*
X144858111Y-104878202D01*
X144847074Y-104896138D01*
X144846011Y-104897511D01*
X144826177Y-104944876D01*
X144824216Y-104949257D01*
X144802118Y-104995583D01*
X144801802Y-104997289D01*
X144795780Y-105017471D01*
X144762060Y-105098002D01*
X144753097Y-105114707D01*
X144748539Y-105121538D01*
X144748537Y-105121543D01*
X144734129Y-105164080D01*
X144731680Y-105170554D01*
X144714335Y-105211978D01*
X144714332Y-105211987D01*
X144713230Y-105220121D01*
X144708895Y-105238578D01*
X144688057Y-105300099D01*
X144680030Y-105317833D01*
X144676619Y-105323741D01*
X144675941Y-105325425D01*
X144675584Y-105326298D01*
X144674886Y-105327982D01*
X144663985Y-105370313D01*
X144661881Y-105377379D01*
X144647913Y-105418619D01*
X144646654Y-105424973D01*
X144643677Y-105436377D01*
X144643056Y-105438282D01*
X144634720Y-105483043D01*
X144633267Y-105489601D01*
X144621914Y-105533693D01*
X144621816Y-105534502D01*
X144618786Y-105546905D01*
X144619190Y-105546999D01*
X144617725Y-105553324D01*
X144613899Y-105592792D01*
X144612689Y-105601359D01*
X144605430Y-105640343D01*
X144605086Y-105646818D01*
X144604553Y-105646789D01*
X144604208Y-105656681D01*
X144603645Y-105660483D01*
X144603040Y-105697925D01*
X144600749Y-105717557D01*
X144599522Y-105723141D01*
X144599521Y-105723157D01*
X144599758Y-105728349D01*
X144599400Y-105742399D01*
X144598493Y-105751752D01*
X144599123Y-105755528D01*
X144599388Y-105786386D01*
X144599148Y-105787992D01*
X144599148Y-105787996D01*
X144600554Y-105800304D01*
X144601180Y-105813128D01*
X144601005Y-105823978D01*
X144601748Y-105830419D01*
X144601317Y-105830468D01*
X144602865Y-105848403D01*
X144602878Y-105848403D01*
X144602903Y-105848840D01*
X144603330Y-105853786D01*
X144603250Y-105854873D01*
X144603250Y-105854885D01*
X144604920Y-105863644D01*
X144606568Y-105877672D01*
X144606914Y-105885270D01*
X144606916Y-105885282D01*
X144607880Y-105888319D01*
X144612515Y-105917560D01*
X144612556Y-105923349D01*
X144612557Y-105923358D01*
X144614031Y-105928711D01*
X144616942Y-105943742D01*
X144617450Y-105948185D01*
X144617451Y-105948189D01*
X144620293Y-105955400D01*
X144626766Y-105982566D01*
X144627697Y-105992622D01*
X144627699Y-105992628D01*
X144628565Y-105994971D01*
X144632952Y-106010743D01*
X144633267Y-106012396D01*
X144638224Y-106022656D01*
X144644527Y-106039432D01*
X144644830Y-106040532D01*
X144646762Y-106048971D01*
X144649084Y-106061642D01*
X144649094Y-106061661D01*
X144654535Y-106076297D01*
X144654958Y-106077298D01*
X144660904Y-106087434D01*
X144664955Y-106095086D01*
X144665895Y-106097067D01*
X144669305Y-106105164D01*
X144671130Y-106110098D01*
X144673637Y-106117838D01*
X144676798Y-106129171D01*
X144678218Y-106132501D01*
X144680943Y-106138228D01*
X144682910Y-106141961D01*
X144682912Y-106141965D01*
X144689366Y-106151084D01*
X144693776Y-106157892D01*
X144696477Y-106162462D01*
X144700687Y-106170385D01*
X144703521Y-106176356D01*
X144706640Y-106183670D01*
X144710533Y-106193926D01*
X144713071Y-106198644D01*
X144714357Y-106200819D01*
X144717259Y-106205306D01*
X144717261Y-106205310D01*
X144724380Y-106213679D01*
X144729274Y-106219924D01*
X144733154Y-106225307D01*
X144738065Y-106232816D01*
X144741071Y-106237901D01*
X144744929Y-106245088D01*
X144749628Y-106254781D01*
X144752073Y-106258493D01*
X144755400Y-106263118D01*
X144757747Y-106266112D01*
X144765917Y-106274116D01*
X144771492Y-106280048D01*
X144775343Y-106284498D01*
X144780771Y-106291364D01*
X144782803Y-106294183D01*
X144787576Y-106301460D01*
X144793224Y-106310955D01*
X144794179Y-106312167D01*
X144803465Y-106322939D01*
X144803752Y-106323244D01*
X144813196Y-106330950D01*
X144819703Y-106336756D01*
X144822144Y-106339135D01*
X144827552Y-106344841D01*
X144827580Y-106344873D01*
X144833833Y-106352802D01*
X144840355Y-106362000D01*
X144841291Y-106362776D01*
X144852960Y-106374203D01*
X144854326Y-106375782D01*
X144854328Y-106375783D01*
X144854331Y-106375787D01*
X144857522Y-106377950D01*
X144863768Y-106382184D01*
X144884506Y-106401032D01*
X144890137Y-106407840D01*
X144890138Y-106407840D01*
X144890140Y-106407843D01*
X144893217Y-106410030D01*
X144904938Y-106419807D01*
X144908452Y-106423231D01*
X144908458Y-106423235D01*
X144915102Y-106426957D01*
X144938532Y-106445183D01*
X144938713Y-106445373D01*
X144941843Y-106448672D01*
X144947462Y-106452115D01*
X144958919Y-106460312D01*
X144965067Y-106465410D01*
X144965069Y-106465411D01*
X144965068Y-106465411D01*
X144968307Y-106466898D01*
X144989635Y-106481181D01*
X144989680Y-106481119D01*
X144991853Y-106482667D01*
X144994456Y-106484410D01*
X144994961Y-106484881D01*
X144994963Y-106484882D01*
X145003334Y-106489325D01*
X145014272Y-106496076D01*
X145023294Y-106502489D01*
X145023296Y-106502489D01*
X145029026Y-106505524D01*
X145028874Y-106505809D01*
X145043250Y-106514138D01*
X145043677Y-106513463D01*
X145049159Y-106516924D01*
X145049160Y-106516924D01*
X145049162Y-106516926D01*
X145060256Y-106522044D01*
X145070508Y-106527527D01*
X145077518Y-106531823D01*
X145082469Y-106534857D01*
X145082474Y-106534858D01*
X145088397Y-106537496D01*
X145088264Y-106537793D01*
X145099173Y-106542412D01*
X145104288Y-106545295D01*
X145104291Y-106545297D01*
X145117960Y-106550793D01*
X145127430Y-106555196D01*
X145142206Y-106563039D01*
X145148290Y-106565309D01*
X145148076Y-106565880D01*
X145159311Y-106569946D01*
X145160329Y-106570461D01*
X145176279Y-106576060D01*
X145184954Y-106579574D01*
X145202300Y-106587577D01*
X145202304Y-106587577D01*
X145208409Y-106589475D01*
X145219577Y-106594483D01*
X145219790Y-106593995D01*
X145225742Y-106596585D01*
X145242202Y-106601310D01*
X145251818Y-106604614D01*
X145262716Y-106608996D01*
X145262719Y-106608997D01*
X145263254Y-106609061D01*
X145284148Y-106613931D01*
X145323563Y-106627770D01*
X145323567Y-106627770D01*
X145324344Y-106627933D01*
X145337729Y-106631738D01*
X145341606Y-106633141D01*
X145341609Y-106633143D01*
X145341612Y-106633143D01*
X145341613Y-106633144D01*
X145342237Y-106633281D01*
X145387442Y-106643213D01*
X145393482Y-106644742D01*
X145438603Y-106657697D01*
X145438608Y-106657697D01*
X145445016Y-106658657D01*
X145444909Y-106659370D01*
X145461072Y-106661931D01*
X145463401Y-106662643D01*
X145463414Y-106662649D01*
X145513557Y-106671053D01*
X145518414Y-106671993D01*
X145568079Y-106682907D01*
X145568081Y-106682906D01*
X145568082Y-106682907D01*
X145574545Y-106683461D01*
X145574454Y-106684517D01*
X145586109Y-106685745D01*
X145586110Y-106685741D01*
X145586309Y-106685766D01*
X145591697Y-106686334D01*
X145592541Y-106686555D01*
X145592548Y-106686558D01*
X145646087Y-106693346D01*
X145649922Y-106693910D01*
X145703121Y-106702828D01*
X145703121Y-106702827D01*
X145703122Y-106702828D01*
X145709606Y-106703056D01*
X145709563Y-106704261D01*
X145728492Y-106705470D01*
X145730291Y-106705881D01*
X145730298Y-106705884D01*
X145786413Y-106711189D01*
X145789491Y-106711529D01*
X145845416Y-106718621D01*
X145845423Y-106718619D01*
X145851905Y-106718590D01*
X145851910Y-106719733D01*
X145873123Y-106720404D01*
X145877807Y-106721352D01*
X145877810Y-106721353D01*
X145935946Y-106725357D01*
X145938448Y-106725562D01*
X145996440Y-106731046D01*
X145996448Y-106731044D01*
X146002931Y-106730808D01*
X146002950Y-106731348D01*
X146014535Y-106730773D01*
X146019568Y-106731119D01*
X146030424Y-106732473D01*
X146036079Y-106733497D01*
X146036091Y-106733501D01*
X146095818Y-106736393D01*
X146097793Y-106736508D01*
X146157453Y-106740620D01*
X146157460Y-106740618D01*
X146163190Y-106740262D01*
X146174121Y-106740186D01*
X146191660Y-106741035D01*
X146202934Y-106742233D01*
X146206013Y-106742739D01*
X146206015Y-106742740D01*
X146266989Y-106744697D01*
X146268561Y-106744761D01*
X146329538Y-106747715D01*
X146329544Y-106747713D01*
X146332655Y-106747457D01*
X146343993Y-106747170D01*
X146375692Y-106748188D01*
X146387306Y-106749249D01*
X146388369Y-106749408D01*
X146388380Y-106749412D01*
X146450494Y-106750597D01*
X146451565Y-106750625D01*
X146513610Y-106752618D01*
X146513621Y-106752615D01*
X146514675Y-106752511D01*
X146526334Y-106752045D01*
X146572547Y-106752928D01*
X146583417Y-106753793D01*
X146583882Y-106753797D01*
X146583886Y-106753798D01*
X146646697Y-106754348D01*
X146647605Y-106754361D01*
X146710497Y-106755563D01*
X146710500Y-106755562D01*
X146710966Y-106755571D01*
X146721862Y-106755009D01*
X146782940Y-106755546D01*
X146794726Y-106756355D01*
X146794813Y-106756366D01*
X146794817Y-106756365D01*
X146794821Y-106756367D01*
X146857445Y-106756205D01*
X146858451Y-106756208D01*
X146920917Y-106756758D01*
X146920927Y-106756755D01*
X146920976Y-106756750D01*
X146932783Y-106756011D01*
X147245468Y-106755206D01*
X147255644Y-106755799D01*
X147256488Y-106755788D01*
X147256490Y-106755789D01*
X147319638Y-106755018D01*
X147320272Y-106755014D01*
X147383458Y-106754852D01*
X147383461Y-106754851D01*
X147384309Y-106754849D01*
X147394465Y-106754106D01*
X147771621Y-106749509D01*
X147776975Y-106749782D01*
X147787240Y-106749605D01*
X147845008Y-106748615D01*
X147909697Y-106747827D01*
X147909700Y-106747825D01*
X147913142Y-106747784D01*
X147918474Y-106747355D01*
X148363321Y-106739729D01*
X148364729Y-106739797D01*
X148370387Y-106739692D01*
X148370389Y-106739693D01*
X148436051Y-106738483D01*
X148436051Y-106738512D01*
X148436176Y-106738480D01*
X148483944Y-106737662D01*
X148507193Y-106737264D01*
X148508604Y-106737146D01*
X149826469Y-106712864D01*
X149828293Y-106712848D01*
X149888682Y-106712848D01*
X149888686Y-106712848D01*
X149888689Y-106712846D01*
X149889782Y-106712703D01*
X149901420Y-106711862D01*
X153437203Y-106665670D01*
X153437212Y-106665669D01*
X155436885Y-106651656D01*
X155495207Y-106670156D01*
X155531517Y-106719402D01*
X155531946Y-106780586D01*
X155527633Y-106791779D01*
X155521726Y-106804713D01*
X155501245Y-106947167D01*
X155501245Y-106947172D01*
X155522127Y-107092411D01*
X155511694Y-107152700D01*
X155467816Y-107195342D01*
X155424135Y-107205500D01*
X154420252Y-107205500D01*
X154420251Y-107205500D01*
X154420241Y-107205501D01*
X154361772Y-107217132D01*
X154361766Y-107217134D01*
X154295451Y-107261445D01*
X154295445Y-107261451D01*
X154251134Y-107327766D01*
X154251132Y-107327771D01*
X154243426Y-107366510D01*
X154213528Y-107419893D01*
X154157963Y-107445507D01*
X154097953Y-107433569D01*
X154092822Y-107430487D01*
X153999553Y-107370547D01*
X153999550Y-107370546D01*
X153861464Y-107330000D01*
X153861461Y-107330000D01*
X153717539Y-107330000D01*
X153717535Y-107330000D01*
X153579449Y-107370546D01*
X153579442Y-107370549D01*
X153458373Y-107448355D01*
X153364122Y-107557128D01*
X153304334Y-107688043D01*
X153297492Y-107735633D01*
X153270496Y-107790541D01*
X153216382Y-107819094D01*
X153155819Y-107810387D01*
X153111941Y-107767744D01*
X153100500Y-107721544D01*
X153100500Y-107386253D01*
X153100498Y-107386241D01*
X153094815Y-107357672D01*
X153088867Y-107327769D01*
X153044552Y-107261448D01*
X153044006Y-107261083D01*
X152978233Y-107217134D01*
X152978231Y-107217133D01*
X152978228Y-107217132D01*
X152978227Y-107217132D01*
X152919758Y-107205501D01*
X152919748Y-107205500D01*
X151880252Y-107205500D01*
X151880251Y-107205500D01*
X151880241Y-107205501D01*
X151821772Y-107217132D01*
X151821766Y-107217134D01*
X151755451Y-107261445D01*
X151755445Y-107261451D01*
X151711134Y-107327766D01*
X151711132Y-107327772D01*
X151699501Y-107386241D01*
X151699500Y-107386253D01*
X151699500Y-109352921D01*
X151680593Y-109411112D01*
X151670505Y-109422923D01*
X151590123Y-109503304D01*
X151535608Y-109531081D01*
X151520121Y-109532300D01*
X151413635Y-109532300D01*
X151275549Y-109572846D01*
X151275542Y-109572849D01*
X151154473Y-109650655D01*
X151060222Y-109759428D01*
X151000434Y-109890343D01*
X150979953Y-110032797D01*
X150979953Y-110032802D01*
X151000434Y-110175256D01*
X151048402Y-110280290D01*
X151060223Y-110306173D01*
X151154472Y-110414943D01*
X151154473Y-110414944D01*
X151273821Y-110491644D01*
X151275547Y-110492753D01*
X151370526Y-110520641D01*
X151413635Y-110533299D01*
X151413636Y-110533299D01*
X151413639Y-110533300D01*
X151413641Y-110533300D01*
X151557559Y-110533300D01*
X151557561Y-110533300D01*
X151579820Y-110526764D01*
X151640979Y-110528511D01*
X151689432Y-110565873D01*
X151704808Y-110602437D01*
X151711132Y-110634228D01*
X151711134Y-110634233D01*
X151742455Y-110681107D01*
X151755448Y-110700552D01*
X151821769Y-110744867D01*
X151866231Y-110753711D01*
X151880241Y-110756498D01*
X151880246Y-110756498D01*
X151880252Y-110756500D01*
X151880253Y-110756500D01*
X152919747Y-110756500D01*
X152919748Y-110756500D01*
X152978231Y-110744867D01*
X153044552Y-110700552D01*
X153088867Y-110634231D01*
X153100500Y-110575748D01*
X153100500Y-107939455D01*
X153119407Y-107881264D01*
X153168907Y-107845300D01*
X153230093Y-107845300D01*
X153279593Y-107881264D01*
X153297492Y-107925366D01*
X153304334Y-107972956D01*
X153364122Y-108103871D01*
X153364123Y-108103873D01*
X153450880Y-108203997D01*
X153458373Y-108212644D01*
X153579442Y-108290450D01*
X153579447Y-108290453D01*
X153664897Y-108315543D01*
X153717535Y-108330999D01*
X153717536Y-108330999D01*
X153717539Y-108331000D01*
X153717541Y-108331000D01*
X153824021Y-108331000D01*
X153882212Y-108349907D01*
X153894025Y-108359996D01*
X154210504Y-108676475D01*
X154238281Y-108730992D01*
X154239500Y-108746479D01*
X154239500Y-110575746D01*
X154239501Y-110575758D01*
X154251132Y-110634227D01*
X154251134Y-110634233D01*
X154282455Y-110681107D01*
X154295448Y-110700552D01*
X154361769Y-110744867D01*
X154406231Y-110753711D01*
X154420241Y-110756498D01*
X154420246Y-110756498D01*
X154420252Y-110756500D01*
X154420253Y-110756500D01*
X155459747Y-110756500D01*
X155459748Y-110756500D01*
X155518231Y-110744867D01*
X155584552Y-110700552D01*
X155628867Y-110634231D01*
X155640500Y-110575748D01*
X155640500Y-110372001D01*
X161949000Y-110372001D01*
X161949000Y-110491587D01*
X161955504Y-110552088D01*
X161955506Y-110552098D01*
X162006552Y-110688960D01*
X162094092Y-110805899D01*
X162094100Y-110805907D01*
X162211039Y-110893447D01*
X162347901Y-110944493D01*
X162347911Y-110944495D01*
X162408413Y-110951000D01*
X162727999Y-110951000D01*
X162728000Y-110950999D01*
X162728000Y-110372001D01*
X163236000Y-110372001D01*
X163236000Y-110950999D01*
X163236001Y-110951000D01*
X163555587Y-110951000D01*
X163616088Y-110944495D01*
X163616098Y-110944493D01*
X163752960Y-110893447D01*
X163869899Y-110805907D01*
X163869907Y-110805899D01*
X163957447Y-110688960D01*
X164008493Y-110552098D01*
X164008495Y-110552088D01*
X164015000Y-110491587D01*
X164015000Y-110372001D01*
X166099000Y-110372001D01*
X166099000Y-110491587D01*
X166105504Y-110552088D01*
X166105506Y-110552098D01*
X166156552Y-110688960D01*
X166244092Y-110805899D01*
X166244100Y-110805907D01*
X166361039Y-110893447D01*
X166497901Y-110944493D01*
X166497911Y-110944495D01*
X166558413Y-110951000D01*
X166877999Y-110951000D01*
X166878000Y-110950999D01*
X166878000Y-110372001D01*
X167386000Y-110372001D01*
X167386000Y-110950999D01*
X167386001Y-110951000D01*
X167705587Y-110951000D01*
X167766088Y-110944495D01*
X167766098Y-110944493D01*
X167902960Y-110893447D01*
X168019899Y-110805907D01*
X168019907Y-110805899D01*
X168107447Y-110688960D01*
X168158493Y-110552098D01*
X168158495Y-110552088D01*
X168165000Y-110491587D01*
X168165000Y-110372001D01*
X168164999Y-110372000D01*
X167386001Y-110372000D01*
X167386000Y-110372001D01*
X166878000Y-110372001D01*
X166877999Y-110372000D01*
X166099001Y-110372000D01*
X166099000Y-110372001D01*
X164015000Y-110372001D01*
X164014999Y-110372000D01*
X163236001Y-110372000D01*
X163236000Y-110372001D01*
X162728000Y-110372001D01*
X162727999Y-110372000D01*
X161949001Y-110372000D01*
X161949000Y-110372001D01*
X155640500Y-110372001D01*
X155640500Y-107487954D01*
X155659407Y-107429763D01*
X155708907Y-107393799D01*
X155770093Y-107393799D01*
X155793020Y-107404668D01*
X155796839Y-107407123D01*
X155886907Y-107433569D01*
X155934927Y-107447669D01*
X155934928Y-107447669D01*
X155934931Y-107447670D01*
X155934933Y-107447670D01*
X156078851Y-107447670D01*
X156078853Y-107447670D01*
X156216945Y-107407123D01*
X156338020Y-107329313D01*
X156379156Y-107281838D01*
X156431552Y-107250243D01*
X156453975Y-107247670D01*
X157073691Y-107247670D01*
X157131882Y-107266577D01*
X157143695Y-107276666D01*
X157499218Y-107632189D01*
X157526995Y-107686706D01*
X157517424Y-107747138D01*
X157492020Y-107778721D01*
X157363442Y-107884243D01*
X157363438Y-107884247D01*
X157244663Y-108028976D01*
X157244659Y-108028982D01*
X157156406Y-108194093D01*
X157156405Y-108194095D01*
X157102052Y-108373271D01*
X157102051Y-108373274D01*
X157083701Y-108559595D01*
X157083701Y-108559604D01*
X157102051Y-108745925D01*
X157102052Y-108745928D01*
X157156405Y-108925104D01*
X157156406Y-108925106D01*
X157244659Y-109090217D01*
X157244662Y-109090222D01*
X157244664Y-109090225D01*
X157286223Y-109140864D01*
X157363438Y-109234952D01*
X157363447Y-109234961D01*
X157425337Y-109285752D01*
X157508175Y-109353736D01*
X157508180Y-109353738D01*
X157508182Y-109353740D01*
X157643284Y-109425953D01*
X157673299Y-109441996D01*
X157852469Y-109496347D01*
X157852471Y-109496347D01*
X157852474Y-109496348D01*
X158038796Y-109514699D01*
X158038800Y-109514699D01*
X158038804Y-109514699D01*
X158225125Y-109496348D01*
X158225126Y-109496347D01*
X158225131Y-109496347D01*
X158404301Y-109441996D01*
X158569425Y-109353736D01*
X158714157Y-109234957D01*
X158726436Y-109219995D01*
X159572901Y-109219995D01*
X159572901Y-109220004D01*
X159591251Y-109406325D01*
X159591252Y-109406328D01*
X159616871Y-109490782D01*
X159644058Y-109580406D01*
X159645605Y-109585504D01*
X159645606Y-109585506D01*
X159733859Y-109750617D01*
X159733862Y-109750622D01*
X159733864Y-109750625D01*
X159777669Y-109804001D01*
X159852638Y-109895352D01*
X159852647Y-109895361D01*
X159899671Y-109933952D01*
X159997375Y-110014136D01*
X159997380Y-110014138D01*
X159997382Y-110014140D01*
X160117753Y-110078479D01*
X160162499Y-110102396D01*
X160341669Y-110156747D01*
X160341671Y-110156747D01*
X160341674Y-110156748D01*
X160527996Y-110175099D01*
X160528000Y-110175099D01*
X160528004Y-110175099D01*
X160714325Y-110156748D01*
X160714326Y-110156747D01*
X160714331Y-110156747D01*
X160893501Y-110102396D01*
X161058625Y-110014136D01*
X161203357Y-109895357D01*
X161322136Y-109750625D01*
X161325457Y-109744412D01*
X161949000Y-109744412D01*
X161949000Y-109863999D01*
X161949001Y-109864000D01*
X162727999Y-109864000D01*
X162728000Y-109863999D01*
X162728000Y-109285001D01*
X163236000Y-109285001D01*
X163236000Y-109863999D01*
X163236001Y-109864000D01*
X164014999Y-109864000D01*
X164015000Y-109863999D01*
X164015000Y-109744412D01*
X166099000Y-109744412D01*
X166099000Y-109863999D01*
X166099001Y-109864000D01*
X166877999Y-109864000D01*
X166878000Y-109863999D01*
X166878000Y-109285001D01*
X167386000Y-109285001D01*
X167386000Y-109863999D01*
X167386001Y-109864000D01*
X168164999Y-109864000D01*
X168165000Y-109863999D01*
X168165000Y-109744412D01*
X168158495Y-109683911D01*
X168158493Y-109683901D01*
X168107447Y-109547039D01*
X168019907Y-109430100D01*
X168019899Y-109430092D01*
X167902960Y-109342552D01*
X167766098Y-109291506D01*
X167766088Y-109291504D01*
X167705587Y-109285000D01*
X167386001Y-109285000D01*
X167386000Y-109285001D01*
X166878000Y-109285001D01*
X166877999Y-109285000D01*
X166558413Y-109285000D01*
X166497911Y-109291504D01*
X166497901Y-109291506D01*
X166361039Y-109342552D01*
X166244100Y-109430092D01*
X166244092Y-109430100D01*
X166156552Y-109547039D01*
X166105506Y-109683901D01*
X166105504Y-109683911D01*
X166099000Y-109744412D01*
X164015000Y-109744412D01*
X164008495Y-109683911D01*
X164008493Y-109683901D01*
X163957447Y-109547039D01*
X163869907Y-109430100D01*
X163869899Y-109430092D01*
X163752960Y-109342552D01*
X163616098Y-109291506D01*
X163616088Y-109291504D01*
X163555587Y-109285000D01*
X163236001Y-109285000D01*
X163236000Y-109285001D01*
X162728000Y-109285001D01*
X162727999Y-109285000D01*
X162408413Y-109285000D01*
X162347911Y-109291504D01*
X162347901Y-109291506D01*
X162211039Y-109342552D01*
X162094100Y-109430092D01*
X162094092Y-109430100D01*
X162006552Y-109547039D01*
X161955506Y-109683901D01*
X161955504Y-109683911D01*
X161949000Y-109744412D01*
X161325457Y-109744412D01*
X161410396Y-109585501D01*
X161464747Y-109406331D01*
X161464924Y-109404540D01*
X161483099Y-109220004D01*
X161483099Y-109219995D01*
X161464748Y-109033674D01*
X161464747Y-109033671D01*
X161464747Y-109033669D01*
X161410396Y-108854499D01*
X161379517Y-108796728D01*
X161322140Y-108689382D01*
X161322138Y-108689380D01*
X161322136Y-108689375D01*
X161240917Y-108590410D01*
X161203361Y-108544647D01*
X161203352Y-108544638D01*
X161100579Y-108460295D01*
X161058625Y-108425864D01*
X161058622Y-108425862D01*
X161058617Y-108425859D01*
X160893506Y-108337606D01*
X160893504Y-108337605D01*
X160871730Y-108331000D01*
X160714331Y-108283253D01*
X160714328Y-108283252D01*
X160714325Y-108283251D01*
X160562196Y-108268268D01*
X160506139Y-108243748D01*
X160475200Y-108190961D01*
X160472900Y-108169745D01*
X160472900Y-108149893D01*
X160491807Y-108091702D01*
X160499141Y-108083711D01*
X160498891Y-108083494D01*
X160503528Y-108078143D01*
X160597777Y-107969373D01*
X160657565Y-107838457D01*
X160673445Y-107728006D01*
X160678047Y-107696002D01*
X160678047Y-107695997D01*
X160657565Y-107553543D01*
X160644991Y-107526011D01*
X160597777Y-107422627D01*
X160503528Y-107313857D01*
X160503527Y-107313856D01*
X160503526Y-107313855D01*
X160382457Y-107236049D01*
X160382454Y-107236047D01*
X160382453Y-107236047D01*
X160382450Y-107236046D01*
X160244364Y-107195500D01*
X160244361Y-107195500D01*
X160100439Y-107195500D01*
X160100435Y-107195500D01*
X159962349Y-107236046D01*
X159962342Y-107236049D01*
X159841273Y-107313855D01*
X159747022Y-107422628D01*
X159687234Y-107553543D01*
X159666753Y-107695997D01*
X159666753Y-107696002D01*
X159687234Y-107838456D01*
X159731345Y-107935043D01*
X159747023Y-107969373D01*
X159839291Y-108075857D01*
X159845909Y-108083494D01*
X159843871Y-108085259D01*
X159869325Y-108127458D01*
X159871900Y-108149893D01*
X159871900Y-108485754D01*
X159852993Y-108543945D01*
X159849428Y-108548558D01*
X159733867Y-108689370D01*
X159733859Y-108689382D01*
X159645606Y-108854493D01*
X159645605Y-108854495D01*
X159591252Y-109033671D01*
X159591251Y-109033674D01*
X159572901Y-109219995D01*
X158726436Y-109219995D01*
X158832936Y-109090225D01*
X158921196Y-108925101D01*
X158975547Y-108745931D01*
X158975952Y-108741828D01*
X158993899Y-108559604D01*
X158993899Y-108559595D01*
X158975548Y-108373274D01*
X158975547Y-108373271D01*
X158975547Y-108373269D01*
X158921196Y-108194099D01*
X158921193Y-108194093D01*
X158832940Y-108028982D01*
X158832938Y-108028980D01*
X158832936Y-108028975D01*
X158755844Y-107935038D01*
X158714161Y-107884247D01*
X158714152Y-107884238D01*
X158599981Y-107790541D01*
X158569425Y-107765464D01*
X158569422Y-107765462D01*
X158569417Y-107765459D01*
X158400013Y-107674911D01*
X158400329Y-107674319D01*
X158373090Y-107656119D01*
X157950534Y-107233563D01*
X157522524Y-106805553D01*
X157494749Y-106751039D01*
X157504320Y-106690607D01*
X157547585Y-106647342D01*
X157591834Y-106636554D01*
X157639015Y-106636223D01*
X157639150Y-106636222D01*
X161784443Y-106633277D01*
X161785294Y-106633280D01*
X165153964Y-106664993D01*
X165163919Y-106665695D01*
X165164870Y-106665695D01*
X165222547Y-106665695D01*
X165225257Y-106665732D01*
X166483783Y-106700192D01*
X166486068Y-106700283D01*
X166992991Y-106726381D01*
X166995737Y-106726561D01*
X167427823Y-106760935D01*
X167431896Y-106761345D01*
X167788134Y-106804713D01*
X167789728Y-106804907D01*
X167795712Y-106805822D01*
X168080808Y-106858379D01*
X168089286Y-106860332D01*
X168312994Y-106922337D01*
X168321343Y-106925056D01*
X168394859Y-106952666D01*
X168401434Y-106955409D01*
X168466344Y-106985276D01*
X168473612Y-106988990D01*
X168523861Y-107017350D01*
X168531611Y-107022209D01*
X168569561Y-107048532D01*
X168577453Y-107054617D01*
X168606174Y-107079167D01*
X168613762Y-107086382D01*
X168622707Y-107095839D01*
X168636632Y-107110562D01*
X168643480Y-107118624D01*
X168663528Y-107144963D01*
X168669299Y-107153420D01*
X168688580Y-107185079D01*
X168693137Y-107193441D01*
X168699880Y-107207371D01*
X168712562Y-107233573D01*
X168715936Y-107241384D01*
X168725551Y-107266577D01*
X168731956Y-107283361D01*
X168735201Y-107293459D01*
X168775334Y-107445931D01*
X168777437Y-107456033D01*
X168807331Y-107649759D01*
X168808113Y-107656239D01*
X168829615Y-107902302D01*
X168829864Y-107905911D01*
X168844313Y-108191137D01*
X168844440Y-108196146D01*
X168844440Y-108246866D01*
X168845287Y-108253300D01*
X168844833Y-108253359D01*
X168846563Y-108265247D01*
X168864385Y-108914842D01*
X168864419Y-108916752D01*
X168871127Y-109741762D01*
X168871128Y-109743243D01*
X168864995Y-110641932D01*
X168864977Y-110643258D01*
X168846101Y-111576617D01*
X168846064Y-111577963D01*
X168814615Y-112507289D01*
X168814551Y-112508825D01*
X168770758Y-113395466D01*
X168770642Y-113397427D01*
X168714904Y-114201648D01*
X168714667Y-114204482D01*
X168651282Y-114849672D01*
X168648384Y-114865609D01*
X168644073Y-114881700D01*
X168644072Y-114881711D01*
X168644072Y-114907035D01*
X168643170Y-114920372D01*
X168609818Y-115165694D01*
X168609212Y-115169570D01*
X168589551Y-115280927D01*
X168588779Y-115284837D01*
X168567148Y-115383882D01*
X168565904Y-115388939D01*
X168543022Y-115472387D01*
X168541081Y-115478645D01*
X168517448Y-115546791D01*
X168514544Y-115554190D01*
X168490808Y-115608191D01*
X168486678Y-115616506D01*
X168463226Y-115658636D01*
X168457704Y-115667435D01*
X168433999Y-115701141D01*
X168427124Y-115709838D01*
X168401169Y-115739136D01*
X168393245Y-115747117D01*
X168361543Y-115775612D01*
X168353080Y-115782418D01*
X168311279Y-115812413D01*
X168302851Y-115817836D01*
X168246733Y-115850052D01*
X168238805Y-115854140D01*
X168165018Y-115888070D01*
X168157886Y-115891018D01*
X168064162Y-115925553D01*
X168057953Y-115927611D01*
X167942925Y-115961555D01*
X167937639Y-115962957D01*
X167800540Y-115995305D01*
X167796109Y-115996244D01*
X167636519Y-116026266D01*
X167632840Y-116026887D01*
X167450304Y-116054149D01*
X167447273Y-116054554D01*
X167241460Y-116078822D01*
X167238974Y-116079083D01*
X167009596Y-116100274D01*
X167007568Y-116100441D01*
X166753936Y-116118623D01*
X166752288Y-116118727D01*
X166473995Y-116134018D01*
X166472664Y-116134082D01*
X166170361Y-116146611D01*
X166168853Y-116146662D01*
X165480772Y-116164683D01*
X165479430Y-116164709D01*
X164682887Y-116174771D01*
X164682109Y-116174778D01*
X163768159Y-116179140D01*
X163767777Y-116179141D01*
X162730653Y-116180079D01*
X162730311Y-116180079D01*
X150778706Y-116149608D01*
X150720563Y-116130552D01*
X150684726Y-116080961D01*
X150684882Y-116019775D01*
X150719633Y-115971352D01*
X150722901Y-115968905D01*
X150722907Y-115968899D01*
X150810447Y-115851960D01*
X150861493Y-115715098D01*
X150861495Y-115715088D01*
X150868000Y-115654587D01*
X150868000Y-114734218D01*
X150886907Y-114676027D01*
X150936407Y-114640063D01*
X150997593Y-114640063D01*
X151041820Y-114669388D01*
X151049589Y-114678354D01*
X151052872Y-114682143D01*
X151173461Y-114759641D01*
X151173947Y-114759953D01*
X151280008Y-114791095D01*
X151312035Y-114800499D01*
X151312036Y-114800499D01*
X151312039Y-114800500D01*
X151312041Y-114800500D01*
X151455959Y-114800500D01*
X151455961Y-114800500D01*
X151572610Y-114766249D01*
X151633769Y-114767996D01*
X151682222Y-114805359D01*
X151699500Y-114861239D01*
X151699500Y-115625746D01*
X151699501Y-115625758D01*
X151711132Y-115684227D01*
X151711134Y-115684233D01*
X151755445Y-115750548D01*
X151755448Y-115750552D01*
X151821769Y-115794867D01*
X151866231Y-115803711D01*
X151880241Y-115806498D01*
X151880246Y-115806498D01*
X151880252Y-115806500D01*
X151880253Y-115806500D01*
X152919747Y-115806500D01*
X152919748Y-115806500D01*
X152978231Y-115794867D01*
X153044552Y-115750552D01*
X153088867Y-115684231D01*
X153100500Y-115625748D01*
X153100500Y-112436252D01*
X153088867Y-112377769D01*
X153050854Y-112320880D01*
X153034246Y-112261993D01*
X153055056Y-112205583D01*
X153017732Y-112248659D01*
X152958137Y-112262518D01*
X152947294Y-112260979D01*
X152919751Y-112255500D01*
X152919748Y-112255500D01*
X151880252Y-112255500D01*
X151880251Y-112255500D01*
X151880241Y-112255501D01*
X151821772Y-112267132D01*
X151821766Y-112267134D01*
X151755451Y-112311445D01*
X151755445Y-112311451D01*
X151711134Y-112377766D01*
X151711132Y-112377772D01*
X151699501Y-112436241D01*
X151699500Y-112436253D01*
X151699500Y-113632349D01*
X151680593Y-113690540D01*
X151631093Y-113726504D01*
X151613460Y-113730493D01*
X151537011Y-113750978D01*
X151495312Y-113775053D01*
X151475943Y-113786236D01*
X151426444Y-113799500D01*
X151312035Y-113799500D01*
X151173949Y-113840046D01*
X151173942Y-113840049D01*
X151052872Y-113917856D01*
X151052870Y-113917858D01*
X151041819Y-113930612D01*
X150989423Y-113962208D01*
X150928462Y-113956972D01*
X150882221Y-113916904D01*
X150868000Y-113865781D01*
X150868000Y-112407412D01*
X150861495Y-112346911D01*
X150861493Y-112346901D01*
X150810447Y-112210039D01*
X150722907Y-112093100D01*
X150722899Y-112093092D01*
X150605960Y-112005552D01*
X150469098Y-111954506D01*
X150469088Y-111954504D01*
X150408587Y-111948000D01*
X150114001Y-111948000D01*
X150114000Y-111948001D01*
X150114000Y-113932000D01*
X150095093Y-113990191D01*
X150045593Y-114026155D01*
X150015000Y-114031000D01*
X149860001Y-114031000D01*
X149860000Y-114031001D01*
X149860000Y-114186000D01*
X149841093Y-114244191D01*
X149791593Y-114280155D01*
X149761000Y-114285000D01*
X148852001Y-114285000D01*
X148852000Y-114285001D01*
X148852000Y-115654587D01*
X148858504Y-115715088D01*
X148858506Y-115715098D01*
X148909552Y-115851960D01*
X148997092Y-115968899D01*
X149002103Y-115973910D01*
X149000402Y-115975610D01*
X149029342Y-116016661D01*
X149028468Y-116077840D01*
X148991801Y-116126821D01*
X148934508Y-116144906D01*
X139688281Y-116121332D01*
X139686084Y-116121173D01*
X139686081Y-116121299D01*
X139684941Y-116121271D01*
X139683195Y-116121145D01*
X139680146Y-116121145D01*
X139614746Y-116121145D01*
X139544689Y-116120966D01*
X139542091Y-116121132D01*
X136303112Y-116120602D01*
X136291445Y-116119910D01*
X136290561Y-116119805D01*
X136290558Y-116119805D01*
X136288142Y-116119835D01*
X136228492Y-116120581D01*
X136227240Y-116120589D01*
X136165125Y-116120579D01*
X136164234Y-116120697D01*
X136152584Y-116121532D01*
X134483283Y-116142436D01*
X134469729Y-116141066D01*
X134469718Y-116141209D01*
X134463254Y-116140671D01*
X134463252Y-116140671D01*
X134441650Y-116141705D01*
X134407998Y-116143317D01*
X134404504Y-116143422D01*
X134349232Y-116144114D01*
X134342813Y-116145042D01*
X134342792Y-116144901D01*
X134329347Y-116147085D01*
X133973810Y-116164117D01*
X133954251Y-116163114D01*
X133948036Y-116162173D01*
X133901513Y-116167379D01*
X133895244Y-116167879D01*
X133848464Y-116170121D01*
X133848460Y-116170122D01*
X133842472Y-116172038D01*
X133823317Y-116176132D01*
X133626496Y-116198162D01*
X133614602Y-116198772D01*
X133584846Y-116198506D01*
X133562143Y-116204372D01*
X133548396Y-116206904D01*
X133525107Y-116209511D01*
X133525096Y-116209514D01*
X133497389Y-116220364D01*
X133486057Y-116224032D01*
X133368576Y-116254386D01*
X133363356Y-116255585D01*
X133314665Y-116265391D01*
X133311589Y-116266917D01*
X133292373Y-116274077D01*
X133289063Y-116274932D01*
X133289056Y-116274935D01*
X133245822Y-116299381D01*
X133241092Y-116301889D01*
X133197333Y-116323598D01*
X133178967Y-116330536D01*
X133177547Y-116330916D01*
X133173034Y-116332126D01*
X133167724Y-116334325D01*
X133162333Y-116336706D01*
X133128119Y-116357526D01*
X133120654Y-116361639D01*
X133084768Y-116379442D01*
X133080165Y-116383498D01*
X133064235Y-116394942D01*
X133058916Y-116398013D01*
X133058572Y-116398278D01*
X133047893Y-116404735D01*
X133047994Y-116404895D01*
X133042516Y-116408360D01*
X133042515Y-116408361D01*
X133030102Y-116416215D01*
X132991213Y-116440819D01*
X132989748Y-116441728D01*
X132937968Y-116473238D01*
X132934945Y-116475671D01*
X132925826Y-116482192D01*
X132864335Y-116521099D01*
X132863957Y-116521337D01*
X132734115Y-116602673D01*
X132732337Y-116603761D01*
X132594039Y-116686392D01*
X132591981Y-116687588D01*
X132523244Y-116726446D01*
X132521507Y-116727405D01*
X132448787Y-116766613D01*
X132446808Y-116767651D01*
X132371739Y-116805964D01*
X132369517Y-116807064D01*
X132291957Y-116844230D01*
X132289511Y-116845361D01*
X132209311Y-116881142D01*
X132206650Y-116882283D01*
X132123567Y-116916473D01*
X132120703Y-116917600D01*
X132034621Y-116949933D01*
X132031564Y-116951024D01*
X131950929Y-116978330D01*
X131944801Y-116980187D01*
X131899891Y-116992221D01*
X131893898Y-116994704D01*
X131893779Y-116994418D01*
X131882071Y-116999481D01*
X131868591Y-117003546D01*
X131844946Y-117010675D01*
X131841926Y-117011534D01*
X131742141Y-117038181D01*
X131739312Y-117038892D01*
X131633236Y-117063895D01*
X131630629Y-117064473D01*
X131517676Y-117087901D01*
X131515296Y-117088364D01*
X131395309Y-117110201D01*
X131393154Y-117110569D01*
X131268430Y-117130433D01*
X131265617Y-117130840D01*
X130984255Y-117167403D01*
X130981200Y-117167751D01*
X130670318Y-117198368D01*
X130667978Y-117198571D01*
X130322244Y-117224356D01*
X130320507Y-117224470D01*
X129937928Y-117246245D01*
X129936690Y-117246308D01*
X129525999Y-117264531D01*
X129521611Y-117264628D01*
X129469008Y-117264628D01*
X129462578Y-117265474D01*
X129462535Y-117265151D01*
X129450006Y-117266994D01*
X128568266Y-117294028D01*
X128566835Y-117294061D01*
X128066984Y-117302155D01*
X128065821Y-117302167D01*
X127560770Y-117304413D01*
X127559372Y-117304409D01*
X127552503Y-117304342D01*
X127062145Y-117299597D01*
X127060407Y-117299565D01*
X126583050Y-117286563D01*
X126580813Y-117286477D01*
X126135620Y-117264266D01*
X126132611Y-117264070D01*
X125774691Y-117235265D01*
X125757014Y-117232212D01*
X125746060Y-117229277D01*
X125746058Y-117229277D01*
X125713449Y-117229277D01*
X125702491Y-117228669D01*
X125664340Y-117224420D01*
X125550528Y-117211744D01*
X125548020Y-117211432D01*
X125384417Y-117188969D01*
X125381455Y-117188516D01*
X125233034Y-117163539D01*
X125229547Y-117162888D01*
X125096456Y-117135555D01*
X125092374Y-117134626D01*
X124974752Y-117105238D01*
X124970004Y-117103926D01*
X124868068Y-117072995D01*
X124862608Y-117071163D01*
X124776305Y-117039376D01*
X124770101Y-117036849D01*
X124699206Y-117005123D01*
X124692272Y-117001689D01*
X124666208Y-116987485D01*
X124636034Y-116971041D01*
X124628515Y-116966498D01*
X124585582Y-116937884D01*
X124577718Y-116932062D01*
X124545930Y-116905990D01*
X124538078Y-116898810D01*
X124514657Y-116874959D01*
X124507269Y-116866530D01*
X124489228Y-116843429D01*
X124482749Y-116834070D01*
X124467485Y-116809061D01*
X124462223Y-116799233D01*
X124451143Y-116775403D01*
X124448192Y-116769057D01*
X124444263Y-116759275D01*
X124430930Y-116720181D01*
X124428305Y-116711084D01*
X124415987Y-116659145D01*
X124414476Y-116651406D01*
X124404347Y-116585652D01*
X124403571Y-116579204D01*
X124396767Y-116501142D01*
X124396450Y-116495862D01*
X124393538Y-116407462D01*
X124393491Y-116403109D01*
X124394567Y-116306200D01*
X124394668Y-116302742D01*
X124399512Y-116199035D01*
X124399682Y-116196246D01*
X124405365Y-116120601D01*
X124407869Y-116087257D01*
X124408055Y-116085109D01*
X124410664Y-116058251D01*
X124418730Y-115975211D01*
X124419000Y-115972762D01*
X124468475Y-115571988D01*
X124470310Y-115562108D01*
X124470412Y-115561207D01*
X124470414Y-115561204D01*
X124477574Y-115498302D01*
X124477640Y-115497748D01*
X124485381Y-115435047D01*
X124485380Y-115435043D01*
X124485492Y-115434141D01*
X124486021Y-115424104D01*
X124494709Y-115347786D01*
X124497588Y-115335430D01*
X124497271Y-115335362D01*
X124498646Y-115329018D01*
X124503321Y-115272555D01*
X124503618Y-115269525D01*
X124503904Y-115267016D01*
X124509485Y-115217992D01*
X124510315Y-115212355D01*
X124510323Y-115212170D01*
X124510325Y-115212167D01*
X124512968Y-115156760D01*
X124513190Y-115153379D01*
X124516907Y-115108499D01*
X124516957Y-115107879D01*
X124517614Y-115102056D01*
X124517619Y-115102015D01*
X124517621Y-115102011D01*
X124517621Y-115102006D01*
X124517664Y-115101706D01*
X124517753Y-115101270D01*
X124517960Y-115099705D01*
X124518124Y-115098516D01*
X124518359Y-115096883D01*
X124518391Y-115096434D01*
X124518441Y-115096054D01*
X124518441Y-115062892D01*
X124519901Y-115051047D01*
X124519245Y-115050972D01*
X124519984Y-115044529D01*
X124519607Y-115021956D01*
X124519706Y-115015581D01*
X124520807Y-114992511D01*
X124521013Y-114988205D01*
X124521010Y-114988195D01*
X124520966Y-114987654D01*
X124520740Y-114984254D01*
X124519504Y-114958949D01*
X124519394Y-114952991D01*
X124519538Y-114940942D01*
X124519966Y-114936435D01*
X124519839Y-114936430D01*
X124520137Y-114929958D01*
X124520139Y-114929950D01*
X124517852Y-114903048D01*
X124517513Y-114896364D01*
X124517282Y-114882528D01*
X124517502Y-114878893D01*
X124517465Y-114878893D01*
X124517503Y-114872410D01*
X124517502Y-114872407D01*
X124517503Y-114872406D01*
X124514336Y-114847215D01*
X124513683Y-114839709D01*
X124512872Y-114823084D01*
X124512926Y-114820598D01*
X124512686Y-114814425D01*
X124508713Y-114791267D01*
X124507644Y-114782929D01*
X124505871Y-114762065D01*
X124505867Y-114761833D01*
X124505543Y-114758185D01*
X124505509Y-114757793D01*
X124505350Y-114755926D01*
X124505336Y-114755867D01*
X124505337Y-114755865D01*
X124500676Y-114734991D01*
X124499072Y-114725777D01*
X124496626Y-114706311D01*
X124496624Y-114706308D01*
X124496253Y-114703349D01*
X124495420Y-114699235D01*
X124495052Y-114696690D01*
X124495052Y-114696681D01*
X124489890Y-114678350D01*
X124487611Y-114668261D01*
X124486400Y-114661208D01*
X124484657Y-114651044D01*
X124484656Y-114651041D01*
X124484527Y-114650290D01*
X124482640Y-114642967D01*
X124481386Y-114636901D01*
X124481386Y-114636891D01*
X124475951Y-114621259D01*
X124472842Y-114610324D01*
X124469546Y-114595558D01*
X124468269Y-114592066D01*
X124465981Y-114582883D01*
X124465612Y-114582985D01*
X124463890Y-114576733D01*
X124463888Y-114576729D01*
X124463888Y-114576726D01*
X124458449Y-114563849D01*
X124454363Y-114552186D01*
X124450901Y-114539891D01*
X124448342Y-114533929D01*
X124449260Y-114533534D01*
X124444930Y-114522435D01*
X124444291Y-114522661D01*
X124442138Y-114516544D01*
X124436954Y-114506325D01*
X124431733Y-114494045D01*
X124428305Y-114484181D01*
X124428303Y-114484179D01*
X124428303Y-114484177D01*
X124425394Y-114478385D01*
X124425751Y-114478205D01*
X124418543Y-114462848D01*
X124418430Y-114462898D01*
X124416574Y-114458655D01*
X124415921Y-114457262D01*
X124415833Y-114456957D01*
X124411104Y-114449125D01*
X124404656Y-114436475D01*
X124401397Y-114428758D01*
X124400458Y-114427552D01*
X124385867Y-114401455D01*
X124384822Y-114398663D01*
X124380613Y-114392767D01*
X124372892Y-114380023D01*
X124369871Y-114374067D01*
X124369869Y-114374064D01*
X124367275Y-114371172D01*
X124351271Y-114346959D01*
X124349193Y-114342510D01*
X124349192Y-114342509D01*
X124349192Y-114342508D01*
X124345419Y-114338018D01*
X124336469Y-114325506D01*
X124333608Y-114320766D01*
X124332513Y-114319713D01*
X124329684Y-114316992D01*
X124312205Y-114294498D01*
X124309271Y-114289327D01*
X124305643Y-114285644D01*
X124295602Y-114273698D01*
X124292649Y-114269562D01*
X124288024Y-114265753D01*
X124268934Y-114244764D01*
X124268424Y-114244009D01*
X124265635Y-114239882D01*
X124265633Y-114239880D01*
X124261690Y-114236458D01*
X124250773Y-114225365D01*
X124247311Y-114221244D01*
X124247309Y-114221243D01*
X124242805Y-114218093D01*
X124221955Y-114198458D01*
X124218949Y-114194665D01*
X124214120Y-114191079D01*
X124202627Y-114181082D01*
X124198140Y-114176527D01*
X124198132Y-114176521D01*
X124194706Y-114174509D01*
X124171913Y-114156091D01*
X124169999Y-114154006D01*
X124169998Y-114154005D01*
X124163734Y-114150021D01*
X124151977Y-114141258D01*
X124145893Y-114135978D01*
X124144445Y-114135274D01*
X124124831Y-114121667D01*
X124124751Y-114121778D01*
X124119855Y-114118214D01*
X124119549Y-114118002D01*
X124119506Y-114117961D01*
X124118436Y-114117379D01*
X124111273Y-114113481D01*
X124099564Y-114106000D01*
X124091351Y-114099901D01*
X124085685Y-114096747D01*
X124085888Y-114096381D01*
X124073942Y-114089269D01*
X124073564Y-114089866D01*
X124068090Y-114086388D01*
X124068089Y-114086387D01*
X124057505Y-114081467D01*
X124046118Y-114075235D01*
X124035381Y-114068407D01*
X124029498Y-114065670D01*
X124029618Y-114065410D01*
X124021358Y-114061856D01*
X124016246Y-114059009D01*
X124003089Y-114053797D01*
X123992241Y-114048720D01*
X123988212Y-114046528D01*
X123978694Y-114041350D01*
X123978691Y-114041349D01*
X123972635Y-114039018D01*
X123972823Y-114038527D01*
X123964307Y-114035453D01*
X123964260Y-114035430D01*
X123948458Y-114030115D01*
X123938296Y-114026059D01*
X123931292Y-114022804D01*
X123921864Y-114018422D01*
X123921859Y-114018421D01*
X123918684Y-114017424D01*
X123914573Y-114015895D01*
X123893969Y-114010038D01*
X123884583Y-114006854D01*
X123865315Y-113999222D01*
X123865314Y-113999221D01*
X123865307Y-113999219D01*
X123865295Y-113999216D01*
X123860615Y-113998039D01*
X123859528Y-113997847D01*
X123839749Y-113993126D01*
X123831176Y-113990667D01*
X123809222Y-113983283D01*
X123805006Y-113982457D01*
X123800248Y-113981837D01*
X123785872Y-113978978D01*
X123778119Y-113977109D01*
X123753708Y-113970171D01*
X123749172Y-113969504D01*
X123742762Y-113968933D01*
X123732272Y-113967213D01*
X123725316Y-113965815D01*
X123706932Y-113961428D01*
X123705061Y-113960833D01*
X123705044Y-113960904D01*
X123698757Y-113959299D01*
X123672739Y-113956187D01*
X123665206Y-113954990D01*
X123644129Y-113950801D01*
X123644127Y-113950801D01*
X123637658Y-113950378D01*
X123637671Y-113950175D01*
X123624379Y-113949529D01*
X123606362Y-113946576D01*
X123602176Y-113945518D01*
X123602128Y-113945753D01*
X123595751Y-113944437D01*
X123591335Y-113943917D01*
X123589839Y-113943869D01*
X123589837Y-113943869D01*
X123589834Y-113943869D01*
X123588352Y-113943822D01*
X123584339Y-113943612D01*
X123543987Y-113940683D01*
X123539400Y-113940243D01*
X123487819Y-113934075D01*
X123481339Y-113934152D01*
X123481336Y-113933915D01*
X123475675Y-113934214D01*
X123435211Y-113932724D01*
X123431687Y-113932531D01*
X123380393Y-113928808D01*
X123377196Y-113928478D01*
X123376537Y-113928478D01*
X123321692Y-113928478D01*
X123318049Y-113928411D01*
X123263213Y-113926391D01*
X123256757Y-113927001D01*
X123256746Y-113926884D01*
X123243079Y-113928421D01*
X122861909Y-113928108D01*
X122859504Y-113928077D01*
X122611863Y-113921856D01*
X122608226Y-113921697D01*
X122488398Y-113914272D01*
X122485193Y-113914022D01*
X122361188Y-113902286D01*
X122357463Y-113901862D01*
X122232671Y-113885263D01*
X122228467Y-113884611D01*
X122200846Y-113879721D01*
X122103089Y-113862411D01*
X122098448Y-113861474D01*
X121972702Y-113832947D01*
X121967684Y-113831669D01*
X121841717Y-113796074D01*
X121836394Y-113794407D01*
X121710200Y-113750935D01*
X121704652Y-113748836D01*
X121573773Y-113694781D01*
X121569544Y-113692917D01*
X121510393Y-113665188D01*
X121507543Y-113663796D01*
X121444158Y-113631567D01*
X121441351Y-113630083D01*
X121377767Y-113595102D01*
X121374987Y-113593513D01*
X121364727Y-113587420D01*
X121355012Y-113580842D01*
X121354499Y-113580448D01*
X121313286Y-113556654D01*
X121308158Y-113553481D01*
X121212168Y-113489953D01*
X121177115Y-113466754D01*
X121172308Y-113463363D01*
X121104097Y-113412144D01*
X121038943Y-113363220D01*
X121034833Y-113359959D01*
X120903057Y-113249538D01*
X120898988Y-113246128D01*
X120895399Y-113242970D01*
X120758215Y-113116253D01*
X120755076Y-113113222D01*
X120617574Y-112974495D01*
X120614805Y-112971587D01*
X120477846Y-112821713D01*
X120475384Y-112818914D01*
X120439034Y-112775997D01*
X127002353Y-112775997D01*
X127002353Y-112776002D01*
X127022834Y-112918456D01*
X127073776Y-113030002D01*
X127082623Y-113049373D01*
X127174891Y-113155857D01*
X127176873Y-113158144D01*
X127297942Y-113235950D01*
X127297947Y-113235953D01*
X127404403Y-113267211D01*
X127436035Y-113276499D01*
X127436036Y-113276499D01*
X127436039Y-113276500D01*
X127436041Y-113276500D01*
X127579959Y-113276500D01*
X127579961Y-113276500D01*
X127718053Y-113235953D01*
X127839128Y-113158143D01*
X127933377Y-113049373D01*
X127942226Y-113029997D01*
X128272353Y-113029997D01*
X128272353Y-113030002D01*
X128292834Y-113172456D01*
X128343776Y-113284002D01*
X128352623Y-113303373D01*
X128440659Y-113404973D01*
X128446873Y-113412144D01*
X128567942Y-113489950D01*
X128567947Y-113489953D01*
X128648973Y-113513744D01*
X128706035Y-113530499D01*
X128706036Y-113530499D01*
X128706039Y-113530500D01*
X128706041Y-113530500D01*
X128849959Y-113530500D01*
X128849961Y-113530500D01*
X128988053Y-113489953D01*
X129109128Y-113412143D01*
X129203377Y-113303373D01*
X129212226Y-113283997D01*
X129542353Y-113283997D01*
X129542353Y-113284002D01*
X129562834Y-113426456D01*
X129613776Y-113538002D01*
X129622623Y-113557373D01*
X129716872Y-113666143D01*
X129716873Y-113666144D01*
X129837942Y-113743950D01*
X129837947Y-113743953D01*
X129944403Y-113775211D01*
X129976035Y-113784499D01*
X129976036Y-113784499D01*
X129976039Y-113784500D01*
X129976041Y-113784500D01*
X130119959Y-113784500D01*
X130119961Y-113784500D01*
X130258053Y-113743953D01*
X130379128Y-113666143D01*
X130473377Y-113557373D01*
X130533165Y-113426457D01*
X130547681Y-113325494D01*
X130553647Y-113284002D01*
X130553647Y-113283997D01*
X130533165Y-113141543D01*
X130521457Y-113115907D01*
X130473377Y-113010627D01*
X130379128Y-112901857D01*
X130379127Y-112901856D01*
X130379126Y-112901855D01*
X130258057Y-112824049D01*
X130258054Y-112824047D01*
X130258053Y-112824047D01*
X130252771Y-112822496D01*
X130119964Y-112783500D01*
X130119961Y-112783500D01*
X129976039Y-112783500D01*
X129976035Y-112783500D01*
X129837949Y-112824046D01*
X129837942Y-112824049D01*
X129716873Y-112901855D01*
X129622622Y-113010628D01*
X129562834Y-113141543D01*
X129542353Y-113283997D01*
X129212226Y-113283997D01*
X129263165Y-113172457D01*
X129276385Y-113080511D01*
X129283647Y-113030002D01*
X129283647Y-113029997D01*
X129263165Y-112887543D01*
X129249777Y-112858227D01*
X129203377Y-112756627D01*
X129109128Y-112647857D01*
X129109127Y-112647856D01*
X129109126Y-112647855D01*
X128988057Y-112570049D01*
X128988054Y-112570047D01*
X128988053Y-112570047D01*
X128985121Y-112569186D01*
X128849964Y-112529500D01*
X128849961Y-112529500D01*
X128706039Y-112529500D01*
X128706035Y-112529500D01*
X128567949Y-112570046D01*
X128567942Y-112570049D01*
X128446873Y-112647855D01*
X128352622Y-112756628D01*
X128292834Y-112887543D01*
X128272353Y-113029997D01*
X127942226Y-113029997D01*
X127993165Y-112918457D01*
X128003917Y-112843674D01*
X128013647Y-112776002D01*
X128013647Y-112775997D01*
X127993165Y-112633543D01*
X127933377Y-112502627D01*
X127839128Y-112393857D01*
X127839127Y-112393856D01*
X127839126Y-112393855D01*
X127718057Y-112316049D01*
X127718054Y-112316047D01*
X127718053Y-112316047D01*
X127718050Y-112316046D01*
X127579964Y-112275500D01*
X127579961Y-112275500D01*
X127436039Y-112275500D01*
X127436035Y-112275500D01*
X127297949Y-112316046D01*
X127297942Y-112316049D01*
X127176873Y-112393855D01*
X127082622Y-112502628D01*
X127022834Y-112633543D01*
X127002353Y-112775997D01*
X120439034Y-112775997D01*
X120344705Y-112664628D01*
X120339854Y-112658901D01*
X120337645Y-112656197D01*
X120326767Y-112642394D01*
X120269753Y-112570046D01*
X120204254Y-112486931D01*
X120202250Y-112484298D01*
X120071714Y-112306757D01*
X120069904Y-112304211D01*
X119942863Y-112119322D01*
X119941173Y-112116779D01*
X119818335Y-111925632D01*
X119816764Y-111923104D01*
X119718746Y-111759997D01*
X120652353Y-111759997D01*
X120652353Y-111760002D01*
X120672834Y-111902456D01*
X120716323Y-111997681D01*
X120732623Y-112033373D01*
X120812456Y-112125506D01*
X120826873Y-112142144D01*
X120931991Y-112209699D01*
X120947947Y-112219953D01*
X121045712Y-112248659D01*
X121086035Y-112260499D01*
X121086036Y-112260499D01*
X121086039Y-112260500D01*
X121086041Y-112260500D01*
X121229959Y-112260500D01*
X121229961Y-112260500D01*
X121368053Y-112219953D01*
X121489128Y-112142143D01*
X121583377Y-112033373D01*
X121643165Y-111902457D01*
X121660862Y-111779371D01*
X121663647Y-111760002D01*
X121663647Y-111759997D01*
X121643165Y-111617543D01*
X121624761Y-111577245D01*
X121592223Y-111505997D01*
X124462353Y-111505997D01*
X124462353Y-111506002D01*
X124482834Y-111648456D01*
X124539713Y-111773001D01*
X124542623Y-111779373D01*
X124634891Y-111885857D01*
X124636873Y-111888144D01*
X124756319Y-111964907D01*
X124757947Y-111965953D01*
X124855603Y-111994627D01*
X124896035Y-112006499D01*
X124896036Y-112006499D01*
X124896039Y-112006500D01*
X124896041Y-112006500D01*
X125039959Y-112006500D01*
X125039961Y-112006500D01*
X125178053Y-111965953D01*
X125299128Y-111888143D01*
X125393377Y-111779373D01*
X125453165Y-111648457D01*
X125463917Y-111573674D01*
X125473647Y-111506002D01*
X125473647Y-111505997D01*
X125453165Y-111363543D01*
X125430445Y-111313794D01*
X125393377Y-111232627D01*
X125299128Y-111123857D01*
X125299127Y-111123856D01*
X125299126Y-111123855D01*
X125178057Y-111046049D01*
X125178054Y-111046047D01*
X125178053Y-111046047D01*
X125160851Y-111040996D01*
X125039964Y-111005500D01*
X125039961Y-111005500D01*
X124896039Y-111005500D01*
X124896035Y-111005500D01*
X124757949Y-111046046D01*
X124757942Y-111046049D01*
X124636873Y-111123855D01*
X124542622Y-111232628D01*
X124482834Y-111363543D01*
X124462353Y-111505997D01*
X121592223Y-111505997D01*
X121583377Y-111486627D01*
X121489128Y-111377857D01*
X121489127Y-111377856D01*
X121489126Y-111377855D01*
X121368057Y-111300049D01*
X121368054Y-111300047D01*
X121368053Y-111300047D01*
X121368050Y-111300046D01*
X121229964Y-111259500D01*
X121229961Y-111259500D01*
X121086039Y-111259500D01*
X121086035Y-111259500D01*
X120947949Y-111300046D01*
X120947942Y-111300049D01*
X120826873Y-111377855D01*
X120732622Y-111486628D01*
X120672834Y-111617543D01*
X120652353Y-111759997D01*
X119718746Y-111759997D01*
X119698636Y-111726533D01*
X119697163Y-111723998D01*
X119694360Y-111719005D01*
X119584374Y-111523067D01*
X119582986Y-111520506D01*
X119476056Y-111316140D01*
X119474776Y-111313604D01*
X119374246Y-111106803D01*
X119372989Y-111104115D01*
X119295427Y-110931587D01*
X119290099Y-110916626D01*
X119285537Y-110899599D01*
X119272346Y-110876752D01*
X119266594Y-110865076D01*
X119266196Y-110864114D01*
X119213451Y-110736499D01*
X119191714Y-110683906D01*
X119190606Y-110681107D01*
X119110838Y-110470158D01*
X119109835Y-110467381D01*
X119048193Y-110288407D01*
X119036277Y-110253810D01*
X119035389Y-110251103D01*
X118967607Y-110034137D01*
X118966849Y-110031588D01*
X118904375Y-109810278D01*
X118903710Y-109807792D01*
X118902746Y-109804001D01*
X118846204Y-109581573D01*
X118845640Y-109579233D01*
X118841133Y-109559487D01*
X118792673Y-109347198D01*
X118792204Y-109345031D01*
X118789445Y-109331543D01*
X118743396Y-109106415D01*
X118743015Y-109104441D01*
X118741039Y-109093647D01*
X118717669Y-108965997D01*
X121160353Y-108965997D01*
X121160353Y-108966002D01*
X121180834Y-109108456D01*
X121234618Y-109226224D01*
X121240623Y-109239373D01*
X121334076Y-109347224D01*
X121334873Y-109348144D01*
X121455942Y-109425950D01*
X121455947Y-109425953D01*
X121562403Y-109457211D01*
X121594035Y-109466499D01*
X121594036Y-109466499D01*
X121594039Y-109466500D01*
X121594041Y-109466500D01*
X121737959Y-109466500D01*
X121737961Y-109466500D01*
X121876053Y-109425953D01*
X121997128Y-109348143D01*
X122091377Y-109239373D01*
X122097855Y-109225187D01*
X122139226Y-109180109D01*
X122199192Y-109167957D01*
X122215801Y-109171322D01*
X122217944Y-109171951D01*
X122217947Y-109171953D01*
X122356039Y-109212500D01*
X122356041Y-109212500D01*
X122499959Y-109212500D01*
X122499961Y-109212500D01*
X122638053Y-109171953D01*
X122759128Y-109094143D01*
X122853377Y-108985373D01*
X122913165Y-108854457D01*
X122928769Y-108745928D01*
X122933647Y-108712002D01*
X122933647Y-108711997D01*
X122913165Y-108569543D01*
X122908622Y-108559595D01*
X122853377Y-108438627D01*
X122759128Y-108329857D01*
X122759127Y-108329856D01*
X122759126Y-108329855D01*
X122638057Y-108252049D01*
X122638054Y-108252047D01*
X122638053Y-108252047D01*
X122638050Y-108252046D01*
X122499964Y-108211500D01*
X122499961Y-108211500D01*
X122356039Y-108211500D01*
X122356035Y-108211500D01*
X122217949Y-108252046D01*
X122217942Y-108252049D01*
X122096873Y-108329855D01*
X122002622Y-108438628D01*
X121996142Y-108452817D01*
X121954768Y-108497893D01*
X121894801Y-108510041D01*
X121878199Y-108506677D01*
X121737964Y-108465500D01*
X121737961Y-108465500D01*
X121594039Y-108465500D01*
X121594035Y-108465500D01*
X121455949Y-108506046D01*
X121455942Y-108506049D01*
X121334873Y-108583855D01*
X121240622Y-108692628D01*
X121180834Y-108823543D01*
X121160353Y-108965997D01*
X118717669Y-108965997D01*
X118698014Y-108858638D01*
X118697730Y-108857001D01*
X118657327Y-108610400D01*
X118656538Y-108605582D01*
X118656182Y-108603232D01*
X118581512Y-108067122D01*
X118581198Y-108064644D01*
X118581119Y-108063949D01*
X118516178Y-107492502D01*
X118515999Y-107490781D01*
X118513824Y-107468045D01*
X118487037Y-107187997D01*
X120652353Y-107187997D01*
X120652353Y-107188002D01*
X120672834Y-107330456D01*
X120726365Y-107447670D01*
X120732623Y-107461373D01*
X120810402Y-107551135D01*
X120826873Y-107570144D01*
X120947942Y-107647950D01*
X120947947Y-107647953D01*
X121039759Y-107674911D01*
X121086035Y-107688499D01*
X121086036Y-107688499D01*
X121086039Y-107688500D01*
X121086041Y-107688500D01*
X121229959Y-107688500D01*
X121229961Y-107688500D01*
X121368053Y-107647953D01*
X121489128Y-107570143D01*
X121583377Y-107461373D01*
X121643165Y-107330457D01*
X121650909Y-107276593D01*
X121663647Y-107188002D01*
X121663647Y-107187997D01*
X121643165Y-107045543D01*
X121625010Y-107005790D01*
X121592223Y-106933997D01*
X123700353Y-106933997D01*
X123700353Y-106934002D01*
X123720834Y-107076456D01*
X123779768Y-107205500D01*
X123780623Y-107207373D01*
X123872891Y-107313857D01*
X123874873Y-107316144D01*
X123995707Y-107393799D01*
X123995947Y-107393953D01*
X124095677Y-107423236D01*
X124134035Y-107434499D01*
X124134036Y-107434499D01*
X124134039Y-107434500D01*
X124134041Y-107434500D01*
X124277959Y-107434500D01*
X124277961Y-107434500D01*
X124416053Y-107393953D01*
X124537128Y-107316143D01*
X124631377Y-107207373D01*
X124691165Y-107076457D01*
X124708569Y-106955409D01*
X124711647Y-106934002D01*
X124711647Y-106933997D01*
X124691165Y-106791543D01*
X124675279Y-106756758D01*
X124631377Y-106660627D01*
X124537128Y-106551857D01*
X124537127Y-106551856D01*
X124537126Y-106551855D01*
X124416057Y-106474049D01*
X124416054Y-106474047D01*
X124416053Y-106474047D01*
X124416050Y-106474046D01*
X124277964Y-106433500D01*
X124277961Y-106433500D01*
X124134039Y-106433500D01*
X124134035Y-106433500D01*
X123995949Y-106474046D01*
X123995942Y-106474049D01*
X123874873Y-106551855D01*
X123780622Y-106660628D01*
X123720834Y-106791543D01*
X123700353Y-106933997D01*
X121592223Y-106933997D01*
X121583377Y-106914627D01*
X121489128Y-106805857D01*
X121489127Y-106805856D01*
X121489126Y-106805855D01*
X121368057Y-106728049D01*
X121368054Y-106728047D01*
X121368053Y-106728047D01*
X121368050Y-106728046D01*
X121229964Y-106687500D01*
X121229961Y-106687500D01*
X121086039Y-106687500D01*
X121086035Y-106687500D01*
X120947949Y-106728046D01*
X120947942Y-106728049D01*
X120826873Y-106805855D01*
X120732622Y-106914628D01*
X120672834Y-107045543D01*
X120652353Y-107187997D01*
X118487037Y-107187997D01*
X118463653Y-106943533D01*
X118459534Y-106900469D01*
X118459084Y-106891042D01*
X118459084Y-106853760D01*
X118459083Y-106853756D01*
X118455959Y-106842096D01*
X118452924Y-106824653D01*
X118451365Y-106805857D01*
X118402383Y-106215123D01*
X118402285Y-106213831D01*
X118401695Y-106205306D01*
X118399391Y-106171997D01*
X121668353Y-106171997D01*
X121668353Y-106172002D01*
X121688834Y-106314456D01*
X121742541Y-106432056D01*
X121748623Y-106445373D01*
X121840891Y-106551857D01*
X121842873Y-106554144D01*
X121958501Y-106628453D01*
X121963947Y-106631953D01*
X122051621Y-106657696D01*
X122102035Y-106672499D01*
X122102036Y-106672499D01*
X122102039Y-106672500D01*
X122102041Y-106672500D01*
X122245959Y-106672500D01*
X122245961Y-106672500D01*
X122384053Y-106631953D01*
X122505128Y-106554143D01*
X122599377Y-106445373D01*
X122659165Y-106314457D01*
X122673633Y-106213831D01*
X122679647Y-106172002D01*
X122679647Y-106171997D01*
X122659165Y-106029543D01*
X122650579Y-106010743D01*
X122599377Y-105898627D01*
X122505128Y-105789857D01*
X122505127Y-105789856D01*
X122505126Y-105789855D01*
X122384057Y-105712049D01*
X122384054Y-105712047D01*
X122384053Y-105712047D01*
X122384050Y-105712046D01*
X122245964Y-105671500D01*
X122245961Y-105671500D01*
X122102039Y-105671500D01*
X122102035Y-105671500D01*
X121963949Y-105712046D01*
X121963942Y-105712049D01*
X121842873Y-105789855D01*
X121748622Y-105898628D01*
X121688834Y-106029543D01*
X121668353Y-106171997D01*
X118399391Y-106171997D01*
X118353776Y-105512558D01*
X118353683Y-105511028D01*
X118353483Y-105507268D01*
X118314225Y-104769961D01*
X118314150Y-104768245D01*
X118314113Y-104767210D01*
X118309896Y-104647997D01*
X120144353Y-104647997D01*
X120144353Y-104648002D01*
X120164834Y-104790456D01*
X120213098Y-104896138D01*
X120224623Y-104921373D01*
X120316891Y-105027857D01*
X120318873Y-105030144D01*
X120439942Y-105107950D01*
X120439947Y-105107953D01*
X120537603Y-105136627D01*
X120578035Y-105148499D01*
X120578036Y-105148499D01*
X120578039Y-105148500D01*
X120578041Y-105148500D01*
X120721959Y-105148500D01*
X120721961Y-105148500D01*
X120860053Y-105107953D01*
X120981128Y-105030143D01*
X121075377Y-104921373D01*
X121135165Y-104790457D01*
X121147381Y-104705495D01*
X121155647Y-104648002D01*
X121155647Y-104647997D01*
X121135165Y-104505543D01*
X121094252Y-104415958D01*
X121075377Y-104374627D01*
X120981128Y-104265857D01*
X120981127Y-104265856D01*
X120981126Y-104265855D01*
X120860057Y-104188049D01*
X120860054Y-104188047D01*
X120860053Y-104188047D01*
X120860050Y-104188046D01*
X120721964Y-104147500D01*
X120721961Y-104147500D01*
X120578039Y-104147500D01*
X120578035Y-104147500D01*
X120439949Y-104188046D01*
X120439942Y-104188049D01*
X120318873Y-104265855D01*
X120224622Y-104374628D01*
X120164834Y-104505543D01*
X120144353Y-104647997D01*
X118309896Y-104647997D01*
X118286573Y-103988699D01*
X118286523Y-103986758D01*
X118285151Y-103899649D01*
X118273658Y-103169976D01*
X118273649Y-103168059D01*
X118278343Y-102315606D01*
X118278378Y-102313486D01*
X118292104Y-101828497D01*
X120144353Y-101828497D01*
X120144353Y-101828502D01*
X120164834Y-101970956D01*
X120210022Y-102069901D01*
X120224623Y-102101873D01*
X120315643Y-102206916D01*
X120318873Y-102210644D01*
X120439942Y-102288450D01*
X120439947Y-102288453D01*
X120546403Y-102319711D01*
X120578035Y-102328999D01*
X120578036Y-102328999D01*
X120578039Y-102329000D01*
X120578041Y-102329000D01*
X120721959Y-102329000D01*
X120721961Y-102329000D01*
X120860053Y-102288453D01*
X120981128Y-102210643D01*
X121070071Y-102107997D01*
X125986353Y-102107997D01*
X125986353Y-102108002D01*
X126006834Y-102250456D01*
X126066622Y-102381371D01*
X126066623Y-102381373D01*
X126158891Y-102487857D01*
X126160873Y-102490144D01*
X126281942Y-102567950D01*
X126281947Y-102567953D01*
X126379603Y-102596627D01*
X126420035Y-102608499D01*
X126420036Y-102608499D01*
X126420039Y-102608500D01*
X126420041Y-102608500D01*
X126563959Y-102608500D01*
X126563961Y-102608500D01*
X126702053Y-102567953D01*
X126823128Y-102490143D01*
X126917377Y-102381373D01*
X126926226Y-102361997D01*
X129034353Y-102361997D01*
X129034353Y-102362002D01*
X129054834Y-102504456D01*
X129102350Y-102608499D01*
X129114623Y-102635373D01*
X129208872Y-102744143D01*
X129208873Y-102744144D01*
X129329942Y-102821950D01*
X129329947Y-102821953D01*
X129436403Y-102853211D01*
X129468035Y-102862499D01*
X129468036Y-102862499D01*
X129468039Y-102862500D01*
X129468041Y-102862500D01*
X129611959Y-102862500D01*
X129611961Y-102862500D01*
X129750053Y-102821953D01*
X129871128Y-102744143D01*
X129965377Y-102635373D01*
X130025165Y-102504457D01*
X130043936Y-102373903D01*
X130045647Y-102362002D01*
X130045647Y-102361997D01*
X130025165Y-102219543D01*
X130021100Y-102210643D01*
X129965377Y-102088627D01*
X129871128Y-101979857D01*
X129871127Y-101979856D01*
X129871126Y-101979855D01*
X129750057Y-101902049D01*
X129750054Y-101902047D01*
X129750053Y-101902047D01*
X129750050Y-101902046D01*
X129611964Y-101861500D01*
X129611961Y-101861500D01*
X129468039Y-101861500D01*
X129468035Y-101861500D01*
X129329949Y-101902046D01*
X129329942Y-101902049D01*
X129208873Y-101979855D01*
X129114622Y-102088628D01*
X129054834Y-102219543D01*
X129034353Y-102361997D01*
X126926226Y-102361997D01*
X126977165Y-102250457D01*
X126997647Y-102108000D01*
X126992169Y-102069901D01*
X126977165Y-101965543D01*
X126948167Y-101902047D01*
X126917377Y-101834627D01*
X126823128Y-101725857D01*
X126823127Y-101725856D01*
X126823126Y-101725855D01*
X126702057Y-101648049D01*
X126702054Y-101648047D01*
X126702053Y-101648047D01*
X126702050Y-101648046D01*
X126563964Y-101607500D01*
X126563961Y-101607500D01*
X126420039Y-101607500D01*
X126420035Y-101607500D01*
X126281949Y-101648046D01*
X126281942Y-101648049D01*
X126160873Y-101725855D01*
X126066622Y-101834628D01*
X126006834Y-101965543D01*
X125986353Y-102107997D01*
X121070071Y-102107997D01*
X121075377Y-102101873D01*
X121135165Y-101970957D01*
X121145073Y-101902046D01*
X121155647Y-101828502D01*
X121155647Y-101828497D01*
X121135165Y-101686043D01*
X121119188Y-101651058D01*
X121075377Y-101555127D01*
X120981128Y-101446357D01*
X120981127Y-101446356D01*
X120981126Y-101446355D01*
X120860057Y-101368549D01*
X120860054Y-101368547D01*
X120860053Y-101368547D01*
X120860050Y-101368546D01*
X120721964Y-101328000D01*
X120721961Y-101328000D01*
X120578039Y-101328000D01*
X120578035Y-101328000D01*
X120439949Y-101368546D01*
X120439942Y-101368549D01*
X120318873Y-101446355D01*
X120224622Y-101555128D01*
X120164834Y-101686043D01*
X120144353Y-101828497D01*
X118292104Y-101828497D01*
X118303471Y-101426829D01*
X118303568Y-101424447D01*
X118307693Y-101345997D01*
X118334400Y-100837997D01*
X125732353Y-100837997D01*
X125732353Y-100838002D01*
X125752834Y-100980456D01*
X125795893Y-101074740D01*
X125812623Y-101111373D01*
X125904891Y-101217857D01*
X125906873Y-101220144D01*
X125948673Y-101247007D01*
X126027947Y-101297953D01*
X126121533Y-101325432D01*
X126166035Y-101338499D01*
X126166036Y-101338499D01*
X126166039Y-101338500D01*
X126166041Y-101338500D01*
X126309959Y-101338500D01*
X126309961Y-101338500D01*
X126448053Y-101297953D01*
X126569128Y-101220143D01*
X126663377Y-101111373D01*
X126723165Y-100980457D01*
X126743647Y-100838000D01*
X126736122Y-100785665D01*
X126723165Y-100695543D01*
X126704199Y-100654014D01*
X126663377Y-100564627D01*
X126569128Y-100455857D01*
X126569127Y-100455856D01*
X126569126Y-100455855D01*
X126448057Y-100378049D01*
X126448054Y-100378047D01*
X126448053Y-100378047D01*
X126431580Y-100373210D01*
X126309964Y-100337500D01*
X126309961Y-100337500D01*
X126166039Y-100337500D01*
X126166035Y-100337500D01*
X126027949Y-100378046D01*
X126027942Y-100378049D01*
X125906873Y-100455855D01*
X125812622Y-100564628D01*
X125752834Y-100695543D01*
X125732353Y-100837997D01*
X118334400Y-100837997D01*
X118348992Y-100560440D01*
X118352228Y-100540018D01*
X118352988Y-100537182D01*
X118352988Y-100494480D01*
X118353284Y-100486833D01*
X118358731Y-100416551D01*
X118425728Y-99552162D01*
X118425919Y-99550022D01*
X118523561Y-98577781D01*
X118523771Y-98575880D01*
X118526672Y-98551997D01*
X121160353Y-98551997D01*
X121160353Y-98552002D01*
X121180834Y-98694456D01*
X121235201Y-98813500D01*
X121240623Y-98825373D01*
X121332891Y-98931857D01*
X121334873Y-98934144D01*
X121397575Y-98974440D01*
X121455947Y-99011953D01*
X121553603Y-99040627D01*
X121594035Y-99052499D01*
X121594036Y-99052499D01*
X121594039Y-99052500D01*
X121594041Y-99052500D01*
X121737959Y-99052500D01*
X121737961Y-99052500D01*
X121876053Y-99011953D01*
X121997128Y-98934143D01*
X122091377Y-98825373D01*
X122151165Y-98694457D01*
X122170143Y-98562462D01*
X122171647Y-98552002D01*
X122171647Y-98551997D01*
X122151165Y-98409543D01*
X122144155Y-98394194D01*
X122091377Y-98278627D01*
X121997128Y-98169857D01*
X121997127Y-98169856D01*
X121997126Y-98169855D01*
X121876057Y-98092049D01*
X121876054Y-98092047D01*
X121876053Y-98092047D01*
X121876050Y-98092046D01*
X121737964Y-98051500D01*
X121737961Y-98051500D01*
X121594039Y-98051500D01*
X121594035Y-98051500D01*
X121455949Y-98092046D01*
X121455942Y-98092049D01*
X121334873Y-98169855D01*
X121240622Y-98278628D01*
X121180834Y-98409543D01*
X121160353Y-98551997D01*
X118526672Y-98551997D01*
X118619224Y-97789997D01*
X125478353Y-97789997D01*
X125478353Y-97790002D01*
X125498834Y-97932456D01*
X125549776Y-98044002D01*
X125558623Y-98063373D01*
X125650891Y-98169857D01*
X125652873Y-98172144D01*
X125773942Y-98249950D01*
X125773947Y-98249953D01*
X125871603Y-98278627D01*
X125912035Y-98290499D01*
X125912036Y-98290499D01*
X125912039Y-98290500D01*
X125912041Y-98290500D01*
X126055959Y-98290500D01*
X126055961Y-98290500D01*
X126194053Y-98249953D01*
X126315128Y-98172143D01*
X126409377Y-98063373D01*
X126469165Y-97932457D01*
X126489647Y-97790000D01*
X126479777Y-97721354D01*
X126469165Y-97647543D01*
X126444047Y-97592543D01*
X126409377Y-97516627D01*
X126315128Y-97407857D01*
X126315127Y-97407856D01*
X126315126Y-97407855D01*
X126194057Y-97330049D01*
X126194054Y-97330047D01*
X126194053Y-97330047D01*
X126194050Y-97330046D01*
X126055964Y-97289500D01*
X126055961Y-97289500D01*
X125912039Y-97289500D01*
X125912035Y-97289500D01*
X125773949Y-97330046D01*
X125773942Y-97330049D01*
X125652873Y-97407855D01*
X125558622Y-97516628D01*
X125498834Y-97647543D01*
X125478353Y-97789997D01*
X118619224Y-97789997D01*
X118643103Y-97593401D01*
X118643334Y-97591647D01*
X118781980Y-96611024D01*
X118782245Y-96609267D01*
X118937806Y-95642436D01*
X118938121Y-95640593D01*
X118942489Y-95616420D01*
X118962801Y-95503997D01*
X121922353Y-95503997D01*
X121922353Y-95504002D01*
X121942834Y-95646456D01*
X121988033Y-95745426D01*
X122002623Y-95777373D01*
X122096872Y-95886143D01*
X122096873Y-95886144D01*
X122143923Y-95916381D01*
X122217947Y-95963953D01*
X122313161Y-95991910D01*
X122356035Y-96004499D01*
X122356036Y-96004499D01*
X122356039Y-96004500D01*
X122356041Y-96004500D01*
X122499959Y-96004500D01*
X122499961Y-96004500D01*
X122638053Y-95963953D01*
X122759128Y-95886143D01*
X122853377Y-95777373D01*
X122913165Y-95646457D01*
X122929299Y-95534241D01*
X122933647Y-95504002D01*
X122933647Y-95503997D01*
X122913165Y-95361543D01*
X122896401Y-95324835D01*
X122853377Y-95230627D01*
X122759128Y-95121857D01*
X122759127Y-95121856D01*
X122759126Y-95121855D01*
X122638057Y-95044049D01*
X122638054Y-95044047D01*
X122638053Y-95044047D01*
X122638050Y-95044046D01*
X122499964Y-95003500D01*
X122499961Y-95003500D01*
X122356039Y-95003500D01*
X122356035Y-95003500D01*
X122217949Y-95044046D01*
X122217942Y-95044049D01*
X122096873Y-95121855D01*
X122002622Y-95230628D01*
X121942834Y-95361543D01*
X121922353Y-95503997D01*
X118962801Y-95503997D01*
X119100478Y-94741997D01*
X124716353Y-94741997D01*
X124716353Y-94742002D01*
X124736834Y-94884456D01*
X124793000Y-95007439D01*
X124796623Y-95015373D01*
X124888891Y-95121857D01*
X124890873Y-95124144D01*
X124932259Y-95150741D01*
X125011947Y-95201953D01*
X125109603Y-95230627D01*
X125150035Y-95242499D01*
X125150036Y-95242499D01*
X125150039Y-95242500D01*
X125150041Y-95242500D01*
X125293959Y-95242500D01*
X125293961Y-95242500D01*
X125432053Y-95201953D01*
X125553128Y-95124143D01*
X125647377Y-95015373D01*
X125707165Y-94884457D01*
X125714645Y-94832429D01*
X125727647Y-94742002D01*
X125727647Y-94741997D01*
X125707165Y-94599543D01*
X125647377Y-94468627D01*
X125553128Y-94359857D01*
X125553127Y-94359856D01*
X125553126Y-94359855D01*
X125432057Y-94282049D01*
X125432054Y-94282047D01*
X125432053Y-94282047D01*
X125432050Y-94282046D01*
X125293964Y-94241500D01*
X125293961Y-94241500D01*
X125150039Y-94241500D01*
X125150035Y-94241500D01*
X125011949Y-94282046D01*
X125011942Y-94282049D01*
X124890873Y-94359855D01*
X124796622Y-94468628D01*
X124736834Y-94599543D01*
X124716353Y-94741997D01*
X119100478Y-94741997D01*
X119108205Y-94699229D01*
X119108553Y-94697414D01*
X119290668Y-93793610D01*
X119291097Y-93791593D01*
X119362787Y-93471997D01*
X122176353Y-93471997D01*
X122176353Y-93472002D01*
X122196834Y-93614456D01*
X122209911Y-93643090D01*
X122256623Y-93745373D01*
X122320016Y-93818533D01*
X122350873Y-93854144D01*
X122453945Y-93920384D01*
X122471947Y-93931953D01*
X122572348Y-93961433D01*
X122610035Y-93972499D01*
X122610036Y-93972499D01*
X122610039Y-93972500D01*
X122610041Y-93972500D01*
X122753959Y-93972500D01*
X122753961Y-93972500D01*
X122892053Y-93931953D01*
X123013128Y-93854143D01*
X123107377Y-93745373D01*
X123167165Y-93614457D01*
X123180043Y-93524886D01*
X123187647Y-93472002D01*
X123187647Y-93471997D01*
X123167165Y-93329543D01*
X123107377Y-93198628D01*
X123107377Y-93198627D01*
X123013128Y-93089857D01*
X123013127Y-93089856D01*
X123013126Y-93089855D01*
X122892057Y-93012049D01*
X122892054Y-93012047D01*
X122892053Y-93012047D01*
X122892050Y-93012046D01*
X122753964Y-92971500D01*
X122753961Y-92971500D01*
X122610039Y-92971500D01*
X122610035Y-92971500D01*
X122471949Y-93012046D01*
X122471942Y-93012049D01*
X122350873Y-93089855D01*
X122256622Y-93198628D01*
X122196834Y-93329543D01*
X122176353Y-93471997D01*
X119362787Y-93471997D01*
X119481666Y-92942027D01*
X119482622Y-92938141D01*
X119496495Y-92886373D01*
X119496495Y-92886370D01*
X119496942Y-92882980D01*
X119499053Y-92871881D01*
X119520907Y-92784492D01*
X119682236Y-92139364D01*
X119682882Y-92136916D01*
X119735493Y-91947997D01*
X124208353Y-91947997D01*
X124208353Y-91948002D01*
X124228834Y-92090456D01*
X124258051Y-92154431D01*
X124288623Y-92221373D01*
X124382872Y-92330143D01*
X124382873Y-92330144D01*
X124503942Y-92407950D01*
X124503947Y-92407953D01*
X124610403Y-92439211D01*
X124642035Y-92448499D01*
X124642036Y-92448499D01*
X124642039Y-92448500D01*
X124642041Y-92448500D01*
X124785959Y-92448500D01*
X124785961Y-92448500D01*
X124924053Y-92407953D01*
X125045128Y-92330143D01*
X125139377Y-92221373D01*
X125199165Y-92090457D01*
X125219647Y-91948000D01*
X125219389Y-91946207D01*
X125199165Y-91805543D01*
X125139377Y-91674628D01*
X125139377Y-91674627D01*
X125045128Y-91565857D01*
X125045127Y-91565856D01*
X125045126Y-91565855D01*
X124924057Y-91488049D01*
X124924054Y-91488047D01*
X124924053Y-91488047D01*
X124924050Y-91488046D01*
X124785964Y-91447500D01*
X124785961Y-91447500D01*
X124642039Y-91447500D01*
X124642035Y-91447500D01*
X124503949Y-91488046D01*
X124503942Y-91488049D01*
X124382873Y-91565855D01*
X124288622Y-91674628D01*
X124228834Y-91805543D01*
X124208353Y-91947997D01*
X119735493Y-91947997D01*
X119887702Y-91401437D01*
X119888503Y-91398716D01*
X119898295Y-91367106D01*
X119982975Y-91093732D01*
X122471354Y-91093732D01*
X122471354Y-91093737D01*
X122491835Y-91236191D01*
X122514759Y-91286386D01*
X122551624Y-91367108D01*
X122621284Y-91447500D01*
X122645874Y-91475879D01*
X122766943Y-91553685D01*
X122766948Y-91553688D01*
X122873404Y-91584946D01*
X122905036Y-91594234D01*
X122905037Y-91594234D01*
X122905040Y-91594235D01*
X122905042Y-91594235D01*
X123048960Y-91594235D01*
X123048962Y-91594235D01*
X123187054Y-91553688D01*
X123308129Y-91475878D01*
X123402378Y-91367108D01*
X123462166Y-91236192D01*
X123482648Y-91093735D01*
X123477053Y-91054822D01*
X123462166Y-90951278D01*
X123449882Y-90924380D01*
X123402378Y-90820362D01*
X123308129Y-90711592D01*
X123308128Y-90711591D01*
X123308127Y-90711590D01*
X123187058Y-90633784D01*
X123187055Y-90633782D01*
X123187054Y-90633782D01*
X123187051Y-90633781D01*
X123048965Y-90593235D01*
X123048962Y-90593235D01*
X122905040Y-90593235D01*
X122905036Y-90593235D01*
X122766950Y-90633781D01*
X122766943Y-90633784D01*
X122645874Y-90711590D01*
X122551623Y-90820363D01*
X122491835Y-90951278D01*
X122471354Y-91093732D01*
X119982975Y-91093732D01*
X120097946Y-90722570D01*
X120098907Y-90719633D01*
X120101678Y-90711592D01*
X120311678Y-90102116D01*
X120312824Y-90098968D01*
X120527488Y-89539614D01*
X120528903Y-89536129D01*
X120692700Y-89153997D01*
X122430353Y-89153997D01*
X122430353Y-89154002D01*
X122450834Y-89296456D01*
X122510622Y-89427371D01*
X122510623Y-89427373D01*
X122604839Y-89536105D01*
X122604873Y-89536144D01*
X122699191Y-89596758D01*
X122725947Y-89613953D01*
X122832403Y-89645211D01*
X122864035Y-89654499D01*
X122864036Y-89654499D01*
X122864039Y-89654500D01*
X122864041Y-89654500D01*
X123007959Y-89654500D01*
X123007961Y-89654500D01*
X123146053Y-89613953D01*
X123267128Y-89536143D01*
X123361377Y-89427373D01*
X123421165Y-89296457D01*
X123441647Y-89154000D01*
X123436335Y-89117057D01*
X123421165Y-89011543D01*
X123361377Y-88880628D01*
X123361377Y-88880627D01*
X123267128Y-88771857D01*
X123267127Y-88771856D01*
X123267126Y-88771855D01*
X123146057Y-88694049D01*
X123146054Y-88694047D01*
X123146053Y-88694047D01*
X123118559Y-88685974D01*
X123007964Y-88653500D01*
X123007961Y-88653500D01*
X122864039Y-88653500D01*
X122864035Y-88653500D01*
X122725949Y-88694046D01*
X122725942Y-88694049D01*
X122604873Y-88771855D01*
X122510622Y-88880628D01*
X122450834Y-89011543D01*
X122430353Y-89153997D01*
X120692700Y-89153997D01*
X120743984Y-89034352D01*
X120745738Y-89030492D01*
X120959544Y-88585929D01*
X120961738Y-88581641D01*
X121174495Y-88190020D01*
X121176537Y-88186443D01*
X121277971Y-88017129D01*
X121279503Y-88014659D01*
X121381716Y-87855354D01*
X121383458Y-87852734D01*
X121484295Y-87706417D01*
X121486283Y-87703639D01*
X121585696Y-87569740D01*
X121587941Y-87566833D01*
X121591372Y-87562556D01*
X121686056Y-87444539D01*
X121688526Y-87441582D01*
X121785369Y-87330222D01*
X121788082Y-87327231D01*
X121883742Y-87226066D01*
X121886714Y-87223058D01*
X121981334Y-87131313D01*
X121984568Y-87128314D01*
X122078376Y-87045178D01*
X122081831Y-87042255D01*
X122128471Y-87004589D01*
X122175167Y-86966877D01*
X122178771Y-86964102D01*
X122271975Y-86895705D01*
X122275661Y-86893128D01*
X122369272Y-86830871D01*
X122372997Y-86828513D01*
X122467390Y-86771753D01*
X122471137Y-86769612D01*
X122566801Y-86717700D01*
X122570503Y-86715790D01*
X122668055Y-86668075D01*
X122671582Y-86666436D01*
X122739440Y-86636534D01*
X122753730Y-86631505D01*
X122772921Y-86626364D01*
X122791801Y-86615462D01*
X122804858Y-86609152D01*
X122874297Y-86581681D01*
X122878152Y-86580250D01*
X122976190Y-86546199D01*
X122980675Y-86544761D01*
X123076192Y-86516654D01*
X123081299Y-86515299D01*
X123174224Y-86493324D01*
X123180009Y-86492139D01*
X123270183Y-86476443D01*
X123276598Y-86475541D01*
X123364214Y-86466162D01*
X123371191Y-86465665D01*
X123456555Y-86462638D01*
X123464070Y-86462657D01*
G37*
%TD.AperFunction*%
%TD*%
M02*
