%TF.GenerationSoftware,KiCad,Pcbnew,8.0.7*%
%TF.CreationDate,2025-01-17T18:48:29+01:00*%
%TF.ProjectId,SAO_Attraktor,53414f5f-4174-4747-9261-6b746f722e6b,rev?*%
%TF.SameCoordinates,Original*%
%TF.FileFunction,Copper,L2,Inr*%
%TF.FilePolarity,Positive*%
%FSLAX46Y46*%
G04 Gerber Fmt 4.6, Leading zero omitted, Abs format (unit mm)*
G04 Created by KiCad (PCBNEW 8.0.7) date 2025-01-17 18:48:29*
%MOMM*%
%LPD*%
G01*
G04 APERTURE LIST*
%TA.AperFunction,ViaPad*%
%ADD10C,0.600000*%
%TD*%
%TA.AperFunction,Conductor*%
%ADD11C,0.200000*%
%TD*%
G04 APERTURE END LIST*
D10*
%TO.N,/PD0*%
X153365200Y-111709200D03*
X143548618Y-110351853D03*
%TO.N,Net-(U1-PC7)*%
X138176000Y-111556800D03*
%TO.N,Net-(U1-PC6)*%
X137718800Y-112268000D03*
%TO.N,Net-(U1-PC3)*%
X134219115Y-114451742D03*
%TO.N,Net-(U1-PC4)*%
X131974048Y-116158798D03*
%TO.N,Net-(U1-PC6)*%
X160172400Y-107696000D03*
%TO.N,Net-(U1-PC4)*%
X161086800Y-113131600D03*
%TO.N,Net-(U1-PC3)*%
X156768800Y-114309600D03*
%TO.N,Net-(U1-PC7)*%
X156006892Y-106947170D03*
%TO.N,IO1*%
X126238000Y-100838000D03*
X145288000Y-96520000D03*
X134366000Y-105918000D03*
X137039422Y-108186922D03*
X124206000Y-106934000D03*
X134112000Y-99822000D03*
X128778000Y-113030000D03*
%TO.N,Net-(D1-K)*%
X126492000Y-102108000D03*
X132355596Y-104086999D03*
%TO.N,IO2*%
X125984000Y-97790000D03*
X137414000Y-105918000D03*
X146558000Y-98044000D03*
X136144000Y-108458000D03*
X135890000Y-99060000D03*
X127508000Y-112776000D03*
X122428000Y-95504000D03*
%TO.N,IO3*%
X133096000Y-110490000D03*
X124968000Y-111506000D03*
X143510000Y-99314000D03*
X125730000Y-105410000D03*
X121666000Y-98552000D03*
X125222000Y-94742000D03*
X139446000Y-104140000D03*
%TO.N,IO4*%
X137922000Y-99060000D03*
X142494000Y-105664000D03*
X132080000Y-111506000D03*
X126492000Y-103378000D03*
X124714000Y-91948000D03*
X129032000Y-109474000D03*
X120650000Y-101828500D03*
%TO.N,IO5*%
X142240000Y-100838000D03*
X120650000Y-104648000D03*
X143256000Y-106172000D03*
X138684000Y-110236000D03*
X129286000Y-106934000D03*
X122936000Y-89154000D03*
X139700000Y-98044000D03*
X129540000Y-102362000D03*
%TO.N,IO6*%
X130810000Y-101346000D03*
X131318000Y-112268000D03*
X121158000Y-107188000D03*
X141732000Y-99060000D03*
X135890000Y-105918000D03*
X122977001Y-91093735D03*
X141986000Y-110236000D03*
X121666000Y-108966000D03*
X121158000Y-111760000D03*
X141224000Y-102362000D03*
%TO.N,Net-(D10-K)*%
X134112000Y-104140000D03*
X122174000Y-106172000D03*
%TO.N,IO0*%
X143137461Y-95916384D03*
X122682000Y-93472000D03*
X142748000Y-109474000D03*
X122428000Y-108712000D03*
X132588000Y-100584000D03*
X140462000Y-106680000D03*
X132080000Y-105410000D03*
X130048000Y-113284000D03*
%TO.N,/SDA*%
X147828000Y-112938000D03*
X151485600Y-110032800D03*
%TO.N,/SWD*%
X137591800Y-110921800D03*
X153789500Y-107830500D03*
%TO.N,/SCL*%
X151384000Y-114300000D03*
X136412328Y-113001343D03*
%TO.N,Net-(U1-PC0)*%
X145796000Y-113538000D03*
X161036000Y-114249200D03*
%TO.N,Net-(D13-K)*%
X137668000Y-104140000D03*
X130810000Y-105156000D03*
%TO.N,Net-(D19-K)*%
X137922000Y-100838000D03*
X139446000Y-102362000D03*
%TO.N,Net-(D25-K)*%
X141478000Y-101600000D03*
%TO.N,Net-(D31-K)*%
X144780000Y-102870000D03*
X143764000Y-108458000D03*
%TO.N,Net-(D37-K)*%
X135890000Y-104140000D03*
X129286000Y-108204000D03*
%TD*%
D11*
%TO.N,/PD0*%
X149809200Y-111607600D02*
X148616435Y-110414835D01*
X148616435Y-110414835D02*
X143611600Y-110414835D01*
X153365200Y-111709200D02*
X153263600Y-111607600D01*
X153263600Y-111607600D02*
X149809200Y-111607600D01*
X143611600Y-110414835D02*
X143548618Y-110351853D01*
%TO.N,Net-(U1-PC3)*%
X155864000Y-115214400D02*
X134981773Y-115214400D01*
X156768800Y-114309600D02*
X155864000Y-115214400D01*
X134981773Y-115214400D02*
X134219115Y-114451742D01*
%TO.N,Net-(U1-PC6)*%
X156413200Y-112630000D02*
X156413200Y-108000800D01*
X154686000Y-114357200D02*
X156413200Y-112630000D01*
X153879600Y-114357200D02*
X154686000Y-114357200D01*
X152501600Y-112979200D02*
X153879600Y-114357200D01*
X150063200Y-112979200D02*
X152501600Y-112979200D01*
X137718800Y-112268000D02*
X139649200Y-114198400D01*
X148844000Y-114198400D02*
X150063200Y-112979200D01*
X139649200Y-114198400D02*
X148844000Y-114198400D01*
X156413200Y-108000800D02*
X156718000Y-107696000D01*
X156718000Y-107696000D02*
X160172400Y-107696000D01*
%TO.N,Net-(U1-PC7)*%
X156006800Y-110134400D02*
X156006892Y-110134308D01*
X156006892Y-110134308D02*
X156006892Y-106947170D01*
X154838400Y-113588800D02*
X156006800Y-112420400D01*
X153419443Y-113331357D02*
X153463357Y-113331357D01*
X145897600Y-112217200D02*
X152305286Y-112217200D01*
X144373600Y-113741200D02*
X145897600Y-112217200D01*
X144373600Y-113798400D02*
X144373600Y-113741200D01*
X140417600Y-113798400D02*
X144373600Y-113798400D01*
X152305286Y-112217200D02*
X153419443Y-113331357D01*
X156006800Y-112420400D02*
X156006800Y-110134400D01*
X138176000Y-111556800D02*
X140417600Y-113798400D01*
X153463357Y-113331357D02*
X153720800Y-113588800D01*
X153720800Y-113588800D02*
X154838400Y-113588800D01*
%TO.N,Net-(U1-PC4)*%
X132512046Y-115620800D02*
X131974048Y-116158798D01*
X157784800Y-115620800D02*
X132512046Y-115620800D01*
X161086800Y-113131600D02*
X160274000Y-113131600D01*
X160274000Y-113131600D02*
X157784800Y-115620800D01*
%TO.N,IO5*%
X134366000Y-111760000D02*
G75*
G03*
X133008977Y-112236017I0J-2172300D01*
G01*
X131953000Y-113411000D02*
G75*
G03*
X131450272Y-114776458I3344400J-2006600D01*
G01*
X124206000Y-113919000D02*
G75*
G02*
X125040697Y-114844512I-1945000J-2593300D01*
G01*
X135666815Y-111221184D02*
G75*
G02*
X134366000Y-111760008I-1300815J1300784D01*
G01*
X131393279Y-115118325D02*
G75*
G02*
X131064001Y-115951000I-2104379J350725D01*
G01*
X120431223Y-111936117D02*
G75*
G03*
X121230663Y-112754276I1324577J494617D01*
G01*
X131064000Y-115951000D02*
G75*
G02*
X130355632Y-116388810I-832500J555000D01*
G01*
X125095000Y-114935000D02*
G75*
G03*
X126183788Y-115787761I1657100J994300D01*
G01*
X132912257Y-112313394D02*
G75*
G03*
X131952992Y-113410995I2574043J-3217606D01*
G01*
X121285000Y-112776000D02*
G75*
G03*
X122577600Y-113217889I4966100J12415200D01*
G01*
X137668000Y-110236000D02*
G75*
G03*
X135933588Y-110954429I0J-2452800D01*
G01*
X123087432Y-113363552D02*
G75*
G02*
X124205992Y-113919011I-944732J-3306448D01*
G01*
X127799371Y-116284883D02*
G75*
G03*
X129794000Y-116459002I1402929J4559483D01*
G01*
X120431223Y-111936117D02*
X120212446Y-111350234D01*
X121230667Y-112754266D02*
X121285000Y-112776000D01*
X122577601Y-113217886D02*
X123087432Y-113363552D01*
X125040704Y-114844508D02*
X125095000Y-114935000D01*
X126183783Y-115787779D02*
X127799371Y-116284883D01*
X130355630Y-116388796D02*
X129794000Y-116459000D01*
X135666815Y-111221184D02*
X135933579Y-110954420D01*
X133008977Y-112236017D02*
X132912257Y-112313394D01*
X131450257Y-114776455D02*
X131393279Y-115118325D01*
X137668000Y-110236000D02*
X138684000Y-110236000D01*
%TO.N,IO1*%
X124714000Y-107061000D02*
X124206000Y-106934000D01*
X131884986Y-102303012D02*
X131513012Y-102674987D01*
X139983131Y-97018288D02*
X139894529Y-97047823D01*
X129429261Y-104028785D02*
X127192178Y-104545035D01*
X134112000Y-99822000D02*
X133676704Y-100547491D01*
X136554675Y-107301470D02*
X135969518Y-107067407D01*
X125671012Y-106918592D02*
X125857000Y-106807000D01*
X138466508Y-97717295D02*
X138557000Y-97663000D01*
X137227287Y-98565034D02*
X137414000Y-98425000D01*
X134112000Y-99822000D02*
X136370212Y-103209318D01*
X143012510Y-96520000D02*
X145288000Y-96520000D01*
X125479897Y-102543729D02*
X126238000Y-100838000D01*
X134112000Y-99822000D02*
X135488390Y-99822000D01*
X137039422Y-108186922D02*
X136972711Y-107814461D01*
X136180333Y-104836665D02*
X135971582Y-104920166D01*
X125602999Y-103632000D02*
X125709256Y-103773675D01*
X126596726Y-105692911D02*
X126681242Y-105101302D01*
X134366000Y-105918000D02*
X134829119Y-106226746D01*
X134366000Y-105918000D02*
X134874000Y-105537000D01*
X139894529Y-97047823D02*
G75*
G03*
X138557002Y-97663004I2133271J-6399777D01*
G01*
X136779000Y-99187000D02*
G75*
G02*
X136271000Y-99695000I-762000J254000D01*
G01*
X126681242Y-105101302D02*
G75*
G03*
X126365018Y-104393972I-719242J102802D01*
G01*
X131513012Y-102674987D02*
G75*
G02*
X130556002Y-103505003I-6318212J6318187D01*
G01*
X136370212Y-103209318D02*
G75*
G02*
X136652002Y-104140000I-1396012J-930682D01*
G01*
X141478000Y-96647000D02*
G75*
G03*
X139983133Y-97018295I1618600J-9711500D01*
G01*
X135971582Y-104920166D02*
G75*
G03*
X134873997Y-105536996I1783018J-4457634D01*
G01*
X126365000Y-104394000D02*
G75*
G03*
X127192180Y-104545045I588600J882900D01*
G01*
X137227287Y-98565034D02*
G75*
G03*
X136778987Y-99186996I771413J-1028566D01*
G01*
X130556000Y-103505000D02*
G75*
G02*
X129429261Y-104028785I-1802100J2402800D01*
G01*
X136554675Y-107301470D02*
G75*
G02*
X136972720Y-107814459I-253275J-633230D01*
G01*
X126596726Y-105692911D02*
G75*
G02*
X125857013Y-106807021I-1540226J220011D01*
G01*
X134829119Y-106226746D02*
G75*
G02*
X135382001Y-106679999I-2012219J-3018354D01*
G01*
X132842000Y-101473000D02*
G75*
G03*
X131884989Y-102303015I5361100J-7148100D01*
G01*
X127192178Y-104545035D02*
G75*
G03*
X126681247Y-105101303I150122J-650665D01*
G01*
X138466508Y-97717295D02*
G75*
G03*
X137414002Y-98425003I6332892J-10554805D01*
G01*
X125479897Y-102543729D02*
G75*
G03*
X125603016Y-103631987I988403J-439271D01*
G01*
X136271000Y-99695000D02*
G75*
G02*
X135488390Y-99821993I-782600J2347900D01*
G01*
X124714000Y-107061000D02*
G75*
G03*
X125671009Y-106918587I306600J1226400D01*
G01*
X133676704Y-100547491D02*
G75*
G02*
X132842005Y-101473006I-2779704J1667791D01*
G01*
X125709256Y-103773675D02*
G75*
G03*
X126364997Y-104394005I2138644J1603975D01*
G01*
X143012510Y-96520000D02*
G75*
G03*
X141478000Y-96646999I-10J-9334000D01*
G01*
X135382000Y-106680000D02*
G75*
G03*
X135969517Y-107067410I1237500J1237500D01*
G01*
X136652000Y-104140000D02*
G75*
G02*
X136180326Y-104836647I-750300J0D01*
G01*
%TO.N,IO2*%
X135359692Y-110758871D02*
X135404307Y-110729128D01*
X133731000Y-111252000D02*
X133201210Y-111252000D01*
X128781165Y-111843611D02*
X129359593Y-111650802D01*
X127889000Y-112395000D02*
X127508000Y-112776000D01*
X131000233Y-110886941D02*
X131202375Y-110836406D01*
X136144000Y-109347000D02*
X136144000Y-108458000D01*
X131974789Y-110744000D02*
X131953000Y-110744000D01*
X125984000Y-97790000D02*
X122428000Y-95504000D01*
X135359692Y-110758871D02*
G75*
G02*
X133731000Y-111251994I-1628692J2443071D01*
G01*
X132588000Y-110998000D02*
G75*
G03*
X131974789Y-110744004I-613200J-613200D01*
G01*
X136144000Y-109347000D02*
G75*
G02*
X135404304Y-110729124I-1661100J0D01*
G01*
X132588000Y-110998000D02*
G75*
G03*
X133201210Y-111251996I613200J613200D01*
G01*
X131953000Y-110744000D02*
G75*
G03*
X131202375Y-110836406I0J-3094900D01*
G01*
X130175000Y-111252000D02*
G75*
G02*
X129359592Y-111650798I-1896700J2845100D01*
G01*
X131000233Y-110886941D02*
G75*
G03*
X130175000Y-111252000I641167J-2564659D01*
G01*
X128781165Y-111843611D02*
G75*
G03*
X127888995Y-112394995I721735J-2165289D01*
G01*
%TO.N,IO3*%
X121792999Y-93852999D02*
X121830197Y-93667012D01*
X125059581Y-93605067D02*
X125222000Y-94742000D01*
X121666000Y-98552000D02*
X121666000Y-100447974D01*
X124333000Y-92836999D02*
X124196134Y-92809626D01*
X121607371Y-95132915D02*
X121470628Y-96637083D01*
X122114808Y-104000641D02*
X122304791Y-104855563D01*
X123998436Y-105794791D02*
X125730000Y-105410000D01*
X123190000Y-92710000D02*
X123139905Y-92710000D01*
X121666000Y-98552000D02*
X121539000Y-97917000D01*
X122301000Y-92964000D02*
G75*
G03*
X121830203Y-93667013I613200J-919800D01*
G01*
X124333000Y-92836999D02*
G75*
G02*
X125059577Y-93605068I-179500J-897501D01*
G01*
X121470628Y-96637083D02*
G75*
G03*
X121539009Y-97916998I4446672J-404217D01*
G01*
X123139905Y-92710000D02*
G75*
G03*
X122301004Y-92964006I-5J-1512300D01*
G01*
X121792999Y-93852999D02*
G75*
G03*
X121607372Y-95132915I11887001J-2377401D01*
G01*
X122936000Y-105664000D02*
G75*
G03*
X123998435Y-105794787I715400J1430800D01*
G01*
X121666000Y-100447974D02*
G75*
G03*
X121793000Y-102235000I12635800J-26D01*
G01*
X122304791Y-104855563D02*
G75*
G03*
X122936013Y-105663974I1164809J258863D01*
G01*
X124196134Y-92809626D02*
G75*
G03*
X123190000Y-92709999I-1006134J-5030674D01*
G01*
X121793000Y-102235000D02*
G75*
G03*
X122114810Y-104000641I23148200J3306900D01*
G01*
%TO.N,IO4*%
X139797227Y-101491841D02*
X139700000Y-101346000D01*
X123245575Y-92131553D02*
X124714000Y-91948000D01*
X127508000Y-100869268D02*
X127508000Y-101294803D01*
X127000000Y-102743000D02*
X126492000Y-103378000D01*
X138605712Y-99880455D02*
X137922000Y-99060000D01*
X124714000Y-91948000D02*
X125095000Y-92075000D01*
X121411999Y-93344999D02*
X121455064Y-93237338D01*
X120291440Y-98058797D02*
X120420371Y-97414144D01*
X126668824Y-96796473D02*
X126619000Y-96647000D01*
X125967082Y-94330026D02*
X125566305Y-92593324D01*
X142494000Y-105664000D02*
X141380772Y-103994158D01*
X120650000Y-101828500D02*
X120386646Y-101051659D01*
X121009637Y-94647629D02*
X120904000Y-95123000D01*
X122174000Y-92456000D02*
G75*
G03*
X121455098Y-93237352I668100J-1336100D01*
G01*
X125095000Y-92075000D02*
G75*
G02*
X125566305Y-92593324I-226400J-679300D01*
G01*
X140589000Y-102743000D02*
G75*
G03*
X141380771Y-103994158I26686300J16011800D01*
G01*
X123245575Y-92131553D02*
G75*
G03*
X122173993Y-92455986I411225J-3290147D01*
G01*
X127254000Y-98806000D02*
G75*
G02*
X127508007Y-100869268I-8253100J-2063300D01*
G01*
X121411999Y-93344999D02*
G75*
G03*
X121009639Y-94647629I7830301J-3132101D01*
G01*
X139797227Y-101491841D02*
G75*
G02*
X140588999Y-102743001I-25893427J-17262259D01*
G01*
X126668824Y-96796473D02*
G75*
G02*
X127253999Y-98806000I-25870724J-8623527D01*
G01*
X120142000Y-99568000D02*
G75*
G03*
X120386649Y-101051658I4621100J0D01*
G01*
X120291440Y-98058797D02*
G75*
G03*
X120142000Y-99568000I7546060J-1509203D01*
G01*
X120904000Y-95123000D02*
G75*
G03*
X120420370Y-97414144I107439300J-23875600D01*
G01*
X138605712Y-99880455D02*
G75*
G02*
X139699998Y-101346001I-13170312J-10975245D01*
G01*
X127508000Y-101294803D02*
G75*
G02*
X127000008Y-102743006I-2318300J3D01*
G01*
X125967082Y-94330026D02*
G75*
G03*
X126619003Y-96646999I24709418J5702226D01*
G01*
%TO.N,IO5*%
X142240000Y-100838000D02*
X139700000Y-98044000D01*
X122936000Y-89154000D02*
X121539000Y-90678000D01*
X120007489Y-106736160D02*
X120650000Y-104648000D01*
X118978460Y-99183235D02*
X119802119Y-94241280D01*
X143764000Y-103124000D02*
X142240000Y-100838000D01*
X124036957Y-89311279D02*
X122936000Y-89154000D01*
X119634000Y-110130789D02*
X119634000Y-109220000D01*
X126171886Y-90573601D02*
X129540000Y-102362000D01*
X143256000Y-106172000D02*
X143764000Y-103124000D01*
X121920000Y-110998000D02*
X120501210Y-110998000D01*
X119888000Y-104267000D02*
X120650000Y-104648000D01*
X125135932Y-109952230D02*
X129286000Y-106934000D01*
X118733841Y-101729130D02*
X118973600Y-103047800D01*
X119888000Y-110744000D02*
G75*
G03*
X120501210Y-110997996I613200J613200D01*
G01*
X118978460Y-99183235D02*
G75*
G02*
X118745001Y-100457000I-39618060J6603035D01*
G01*
X121539000Y-90678000D02*
G75*
G03*
X119802132Y-94241282I5137000J-4708900D01*
G01*
X119634000Y-110130789D02*
G75*
G03*
X119887997Y-110744003I867200J-11D01*
G01*
X125349000Y-89662000D02*
G75*
G02*
X126171885Y-90573601I-517900J-1294700D01*
G01*
X120501210Y-110998000D02*
G75*
G03*
X120212416Y-111350240I-10J-294500D01*
G01*
X124036957Y-89311279D02*
G75*
G02*
X125348997Y-89662009I-806857J-5647821D01*
G01*
X125135932Y-109952230D02*
G75*
G02*
X121920000Y-110997995I-3215932J4421930D01*
G01*
X120007489Y-106736160D02*
G75*
G03*
X119634001Y-109220000I8072511J-2483840D01*
G01*
X118745000Y-100457000D02*
G75*
G03*
X118733838Y-101729130I3326400J-665300D01*
G01*
X120212446Y-111350234D02*
G75*
G03*
X119888000Y-110744000I-1163346J-232666D01*
G01*
X118973600Y-103047800D02*
G75*
G03*
X119888000Y-104267000I1676400J304800D01*
G01*
%TO.N,IO6*%
X135890000Y-105918000D02*
X135890000Y-106172000D01*
X121158000Y-107188000D02*
X121666000Y-108966000D01*
X128650999Y-102362000D02*
X128711975Y-102727855D01*
X127190704Y-115424130D02*
X128039086Y-115637853D01*
X125992661Y-114776239D02*
X125893613Y-114684940D01*
X120566620Y-93160249D02*
X119565002Y-98568985D01*
X141986000Y-108458000D02*
X141986000Y-109474000D01*
X138059242Y-107017611D02*
X136135050Y-106492831D01*
X120324954Y-103469477D02*
X120748437Y-103681218D01*
X122428000Y-112648999D02*
X122546381Y-112678595D01*
X130810000Y-101346000D02*
X130649372Y-102309766D01*
X121576197Y-105097012D02*
X121158000Y-107188000D01*
X124353500Y-91012867D02*
X122977001Y-91093735D01*
X121572473Y-91753349D02*
X122977001Y-91093735D01*
X141986000Y-110236000D02*
X141986000Y-109474000D01*
X141118789Y-107442000D02*
X140601575Y-107442000D01*
X119380000Y-100584000D02*
X119380000Y-100827489D01*
X131318000Y-112268000D02*
X130869053Y-114961677D01*
X129899210Y-103198394D02*
X130048000Y-103124000D01*
X129942789Y-115824000D02*
X129540000Y-115824000D01*
X141986000Y-108309210D02*
X141986000Y-108458000D01*
X128328277Y-100852694D02*
X126079350Y-92265883D01*
X124042377Y-112728626D02*
X124480977Y-112991786D01*
X121158000Y-111760000D02*
X121549734Y-112151734D01*
X125992661Y-114776239D02*
G75*
G03*
X127190703Y-115424136I1873239J2032239D01*
G01*
X130649372Y-102309766D02*
G75*
G02*
X130047999Y-103123998I-1100172J183366D01*
G01*
X119380000Y-100827489D02*
G75*
G03*
X119506999Y-102362000I9334000J-11D01*
G01*
X139319000Y-107315000D02*
G75*
G03*
X140601575Y-107442002I1282600J6413000D01*
G01*
X126079350Y-92265883D02*
G75*
G03*
X124353505Y-91012952I-1627150J-426217D01*
G01*
X119507000Y-102362000D02*
G75*
G03*
X120324953Y-103469480I1496400J249400D01*
G01*
X128711975Y-102727855D02*
G75*
G03*
X129159006Y-103250982I657925J109655D01*
G01*
X124480977Y-112991786D02*
G75*
G02*
X125222019Y-113791991I-1003477J-1672514D01*
G01*
X128039086Y-115637853D02*
G75*
G03*
X129540000Y-115823999I1500914J5957953D01*
G01*
X125222000Y-113792000D02*
G75*
G03*
X125893617Y-114684936I2772400J1386200D01*
G01*
X138059242Y-107017611D02*
G75*
G03*
X139319000Y-107314998I4947258J18140111D01*
G01*
X124042377Y-112728626D02*
G75*
G03*
X123316994Y-112648981I-449277J-748774D01*
G01*
X141732000Y-107696000D02*
G75*
G03*
X141118789Y-107442004I-613200J-613200D01*
G01*
X120904000Y-92329000D02*
G75*
G03*
X120566609Y-93160247I1856200J-1237500D01*
G01*
X121412000Y-104267000D02*
G75*
G02*
X121576192Y-105097011I-919800J-613200D01*
G01*
X141732000Y-107696000D02*
G75*
G02*
X141985996Y-108309210I-613200J-613200D01*
G01*
X135890000Y-106172000D02*
G75*
G03*
X136135059Y-106492796I332500J0D01*
G01*
X128328277Y-100852694D02*
G75*
G02*
X128650995Y-102362001I-16412277J-4298406D01*
G01*
X120748437Y-103681218D02*
G75*
G02*
X121412007Y-104266995I-771137J-1542282D01*
G01*
X119565002Y-98568985D02*
G75*
G03*
X119379998Y-100584000I10880998J-2015015D01*
G01*
X121549734Y-112151734D02*
G75*
G03*
X122427998Y-112649006I1336766J1336734D01*
G01*
X129159000Y-103251000D02*
G75*
G03*
X129899208Y-103198391I306600J919800D01*
G01*
X130869053Y-114961677D02*
G75*
G02*
X130555999Y-115569999I-1105653J184277D01*
G01*
X122546381Y-112678595D02*
G75*
G03*
X123317005Y-112649014I334519J1337995D01*
G01*
X130556000Y-115570000D02*
G75*
G02*
X129942789Y-115823996I-613200J613200D01*
G01*
X121572473Y-91753349D02*
G75*
G03*
X120904006Y-92329004I698227J-1486751D01*
G01*
%TO.N,IO0*%
X143499489Y-107188000D02*
X143164573Y-107188000D01*
X125959703Y-107918636D02*
X126929742Y-107142605D01*
X132080000Y-105410000D02*
X131826000Y-105664000D01*
X140462000Y-106680000D02*
X141351000Y-106934000D01*
X144652999Y-95376999D02*
X144494719Y-95408656D01*
X145929066Y-95158418D02*
X146612697Y-95060757D01*
X143577730Y-95710192D02*
X143137461Y-95916384D01*
X144466946Y-108357677D02*
X144399000Y-107950000D01*
X148071677Y-96266000D02*
X147967473Y-95940146D01*
X146134666Y-101980999D02*
X146410335Y-101464120D01*
X145474155Y-103259689D02*
X145365175Y-103477649D01*
X123698000Y-108712000D02*
X122428000Y-108712000D01*
X144271999Y-108965999D02*
X144218804Y-109019195D01*
X129518530Y-105918000D02*
X131212789Y-105918000D01*
X144272000Y-106150530D02*
X144272000Y-106415489D01*
X147944676Y-98043999D02*
X148041156Y-97779557D01*
X147090335Y-100027329D02*
X146617868Y-100972263D01*
X142748000Y-109474000D02*
X143226019Y-109474000D01*
X129518530Y-105918000D02*
G75*
G03*
X128142996Y-106298993I-30J-2673500D01*
G01*
X146515666Y-101219000D02*
G75*
G02*
X146410335Y-101464120I-1506566J502200D01*
G01*
X145929066Y-95158418D02*
G75*
G03*
X144652999Y-95376997I3299234J-23095082D01*
G01*
X144399000Y-107950000D02*
G75*
G03*
X143499489Y-107187995I-899500J-149900D01*
G01*
X147447000Y-95250000D02*
G75*
G02*
X147967477Y-95940145I-725800J-1088700D01*
G01*
X148071677Y-96266000D02*
G75*
G02*
X148041170Y-97779562I-2227077J-712200D01*
G01*
X128143000Y-106299000D02*
G75*
G03*
X126929746Y-107142610I5664400J-9440600D01*
G01*
X141351000Y-106934000D02*
G75*
G03*
X143164573Y-107188004I1813600J6347600D01*
G01*
X147447000Y-95250000D02*
G75*
G03*
X146612698Y-95060762I-664800J-997200D01*
G01*
X144653000Y-104775000D02*
G75*
G03*
X144272009Y-106150530I2292500J-1375500D01*
G01*
X143764000Y-109347000D02*
G75*
G02*
X143226019Y-109474005I-538000J1076000D01*
G01*
X143499489Y-107188000D02*
G75*
G03*
X144272000Y-106415489I11J772500D01*
G01*
X146134666Y-101980999D02*
G75*
G03*
X145474156Y-103259689I48267834J-25742801D01*
G01*
X131826000Y-105664000D02*
G75*
G02*
X131212789Y-105917996I-613200J613200D01*
G01*
X145365175Y-103477649D02*
G75*
G02*
X144652997Y-104774998I-17246975J8623549D01*
G01*
X144494719Y-95408656D02*
G75*
G03*
X143577726Y-95710182I788681J-3943644D01*
G01*
X147944676Y-98043999D02*
G75*
G02*
X147090332Y-100027327I-17834576J6506799D01*
G01*
X146617868Y-100972263D02*
G75*
G03*
X146515669Y-101219001I1684932J-842437D01*
G01*
X125959703Y-107918636D02*
G75*
G02*
X123698000Y-108711997I-2261703J2827136D01*
G01*
X144218804Y-109019195D02*
G75*
G02*
X143763992Y-109346984I-1237404J1237495D01*
G01*
X144466946Y-108357677D02*
G75*
G02*
X144271987Y-108965987I-688546J-114723D01*
G01*
%TO.N,Net-(D37-K)*%
X131990434Y-106354978D02*
X132080000Y-106299000D01*
X130175000Y-107569000D02*
X129286000Y-108204000D01*
X134147820Y-105090279D02*
X135890000Y-104140000D01*
X134147820Y-105090279D02*
G75*
G03*
X132080000Y-106299001I19359180J-35491821D01*
G01*
X131990434Y-106354978D02*
G75*
G03*
X130175000Y-107568999I18777066J-30043422D01*
G01*
%TD*%
M02*
