%TF.GenerationSoftware,KiCad,Pcbnew,8.0.7*%
%TF.CreationDate,2025-01-17T18:48:29+01:00*%
%TF.ProjectId,SAO_Attraktor,53414f5f-4174-4747-9261-6b746f722e6b,rev?*%
%TF.SameCoordinates,Original*%
%TF.FileFunction,Soldermask,Bot*%
%TF.FilePolarity,Negative*%
%FSLAX46Y46*%
G04 Gerber Fmt 4.6, Leading zero omitted, Abs format (unit mm)*
G04 Created by KiCad (PCBNEW 8.0.7) date 2025-01-17 18:48:29*
%MOMM*%
%LPD*%
G01*
G04 APERTURE LIST*
G04 Aperture macros list*
%AMRoundRect*
0 Rectangle with rounded corners*
0 $1 Rounding radius*
0 $2 $3 $4 $5 $6 $7 $8 $9 X,Y pos of 4 corners*
0 Add a 4 corners polygon primitive as box body*
4,1,4,$2,$3,$4,$5,$6,$7,$8,$9,$2,$3,0*
0 Add four circle primitives for the rounded corners*
1,1,$1+$1,$2,$3*
1,1,$1+$1,$4,$5*
1,1,$1+$1,$6,$7*
1,1,$1+$1,$8,$9*
0 Add four rect primitives between the rounded corners*
20,1,$1+$1,$2,$3,$4,$5,0*
20,1,$1+$1,$4,$5,$6,$7,0*
20,1,$1+$1,$6,$7,$8,$9,0*
20,1,$1+$1,$8,$9,$2,$3,0*%
G04 Aperture macros list end*
%ADD10C,1.500000*%
%ADD11RoundRect,0.200000X0.275000X-0.200000X0.275000X0.200000X-0.275000X0.200000X-0.275000X-0.200000X0*%
%ADD12R,1.000000X3.150000*%
%ADD13R,1.050000X0.650000*%
%ADD14RoundRect,0.225000X-0.250000X0.225000X-0.250000X-0.225000X0.250000X-0.225000X0.250000X0.225000X0*%
%ADD15RoundRect,0.100000X0.637500X0.100000X-0.637500X0.100000X-0.637500X-0.100000X0.637500X-0.100000X0*%
G04 APERTURE END LIST*
D10*
%TO.C,PC7*%
X158038800Y-108559600D03*
%TD*%
%TO.C,PC6*%
X160528000Y-109220000D03*
%TD*%
%TO.C,PC4*%
X160528000Y-111760000D03*
%TD*%
%TO.C,PC3*%
X158242000Y-113030000D03*
%TD*%
D11*
%TO.C,R3*%
X138430000Y-104965000D03*
X138430000Y-103315000D03*
%TD*%
D12*
%TO.C,J1*%
X149860000Y-108981000D03*
X149860000Y-114031000D03*
X152400000Y-108981000D03*
X152400000Y-114031000D03*
X154940000Y-108981000D03*
X154940000Y-114031000D03*
%TD*%
D11*
%TO.C,R1*%
X133096000Y-104965000D03*
X133096000Y-103315000D03*
%TD*%
D13*
%TO.C,SW1*%
X167132000Y-110118000D03*
X162982000Y-110118000D03*
X167132000Y-112268000D03*
X162982000Y-112268000D03*
%TD*%
D11*
%TO.C,R5*%
X141986000Y-104965000D03*
X141986000Y-103315000D03*
%TD*%
D14*
%TO.C,C2*%
X146812000Y-109969000D03*
X146812000Y-111519000D03*
%TD*%
D15*
%TO.C,U1*%
X140345000Y-107696000D03*
X140345000Y-108346000D03*
X140345000Y-108996000D03*
X140345000Y-109646000D03*
X140345000Y-110296000D03*
X140345000Y-110946000D03*
X140345000Y-111596000D03*
X140345000Y-112246000D03*
X140345000Y-112896000D03*
X140345000Y-113546000D03*
X134620000Y-113546000D03*
X134620000Y-112896000D03*
X134620000Y-112246000D03*
X134620000Y-111596000D03*
X134620000Y-110946000D03*
X134620000Y-110296000D03*
X134620000Y-109646000D03*
X134620000Y-108996000D03*
X134620000Y-108346000D03*
X134620000Y-107696000D03*
%TD*%
D11*
%TO.C,R4*%
X140208000Y-104965000D03*
X140208000Y-103315000D03*
%TD*%
%TO.C,R2*%
X134874000Y-104965000D03*
X134874000Y-103315000D03*
%TD*%
%TO.C,R7*%
X136652000Y-104965000D03*
X136652000Y-103315000D03*
%TD*%
%TO.C,R6*%
X143764000Y-104965000D03*
X143764000Y-103315000D03*
%TD*%
D14*
%TO.C,C1*%
X144780000Y-109969000D03*
X144780000Y-111519000D03*
%TD*%
D10*
%TO.C,PC5*%
X131419600Y-108610400D03*
%TD*%
M02*
