M48
; DRILL file {KiCad 8.0.7} date 2025-01-17T18:48:33+0100
; FORMAT={-:-/ absolute / metric / decimal}
; #@! TF.CreationDate,2025-01-17T18:48:33+01:00
; #@! TF.GenerationSoftware,Kicad,Pcbnew,8.0.7
; #@! TF.FileFunction,Plated,1,4,PTH
FMAT,2
METRIC
; #@! TA.AperFunction,Plated,PTH,ViaDrill
T1C0.300
%
G90
G05
T1
X120.65Y-101.828
X120.65Y-104.648
X121.158Y-107.188
X121.158Y-111.76
X121.666Y-98.552
X121.666Y-108.966
X122.174Y-106.172
X122.428Y-95.504
X122.428Y-108.712
X122.682Y-93.472
X122.936Y-89.154
X122.977Y-91.094
X124.206Y-106.934
X124.714Y-91.948
X124.968Y-111.506
X125.222Y-94.742
X125.73Y-105.41
X125.984Y-97.79
X126.238Y-100.838
X126.492Y-102.108
X126.492Y-103.378
X127.508Y-112.776
X128.778Y-113.03
X129.032Y-109.474
X129.286Y-106.934
X129.286Y-108.204
X129.54Y-102.362
X130.048Y-113.284
X130.81Y-101.346
X130.81Y-105.156
X131.318Y-112.268
X131.974Y-116.159
X132.08Y-105.41
X132.08Y-111.506
X132.356Y-104.087
X132.588Y-100.584
X133.096Y-110.49
X134.112Y-99.822
X134.112Y-104.14
X134.219Y-114.452
X134.366Y-105.918
X135.89Y-99.06
X135.89Y-104.14
X135.89Y-105.918
X136.144Y-108.458
X136.412Y-113.001
X137.039Y-108.187
X137.414Y-105.918
X137.592Y-110.922
X137.668Y-104.14
X137.719Y-112.268
X137.922Y-99.06
X137.922Y-100.838
X138.176Y-111.557
X138.684Y-110.236
X139.446Y-102.362
X139.446Y-104.14
X139.7Y-98.044
X140.462Y-106.68
X141.224Y-102.362
X141.478Y-101.6
X141.732Y-99.06
X141.986Y-110.236
X142.24Y-100.838
X142.494Y-105.664
X142.748Y-109.474
X143.137Y-95.916
X143.256Y-106.172
X143.51Y-99.314
X143.549Y-110.352
X143.764Y-108.458
X144.78Y-102.87
X145.288Y-96.52
X145.796Y-113.538
X146.558Y-98.044
X147.828Y-112.938
X151.384Y-114.3
X151.486Y-110.033
X153.365Y-111.709
X153.79Y-107.831
X156.007Y-106.947
X156.769Y-114.31
X160.172Y-107.696
X161.036Y-114.249
X161.087Y-113.132
M30
